<?xml version="1.0" encoding="utf-8"?>
<!-- Generator: Adobe Illustrator 15.0.0, SVG Export Plug-In . SVG Version: 6.00 Build 0)  -->
<!DOCTYPE svg PUBLIC "-//W3C//DTD SVG 1.1//EN" "http://www.w3.org/Graphics/SVG/1.1/DTD/svg11.dtd">
<svg version="1.1" id="Layer_1" xmlns="http://www.w3.org/2000/svg" xmlns:xlink="http://www.w3.org/1999/xlink" x="0px" y="0px"
	 width="705.036px" height="162.59px" viewBox="0 0 705.036 162.59" enable-background="new 0 0 705.036 162.59"
	 xml:space="preserve">
<path id="path13406_2_" fill="#FFFFFF" stroke="#000000" stroke-linecap="round" d="M160.892,121.426
	c0,17.695-14.344,32.041-32.042,32.041c-17.696,0-32.041-14.346-32.041-32.041c0-17.696,14.345-32.041,32.041-32.041
	C146.548,89.385,160.892,103.729,160.892,121.426L160.892,121.426z"/>
<path id="text13438_2_" d="M104.964,132.223v-21.594h16.485v3.651h-11.996v4.788h11.161v3.638h-11.161v5.876h12.421v3.641H104.964z
	 M128.866,132.223l-5.309-21.594h4.596l3.351,14.83l4.064-14.83h5.339l3.898,15.082l3.413-15.082h4.519l-5.4,21.594h-4.76
	l-4.428-16.146l-4.413,16.146H128.866z"/>
<path id="path13412_2_" fill="#FFFFFF" stroke="#000000" stroke-linecap="round" d="M486.92,121.426
	c0,17.695-14.352,32.041-32.047,32.041s-32.041-14.346-32.041-32.041c0-17.696,14.346-32.041,32.041-32.041
	S486.92,103.729,486.92,121.426L486.92,121.426z"/>
<path id="text13426_2_" stroke="#000000" d="M442.442,132.058l-7.961-21.632h4.879l5.633,16.007l5.456-16.007h4.771l-7.979,21.632
	H442.442z M457.512,110.426h4.498v11.714c0,1.858,0.059,3.063,0.166,3.615c0.193,0.886,0.65,1.595,1.377,2.13
	c0.721,0.538,1.711,0.805,2.969,0.805c1.275,0,2.24-0.253,2.885-0.759c0.65-0.505,1.039-1.13,1.174-1.866
	c0.129-0.738,0.197-1.965,0.197-3.675v-11.964h4.493v11.358c0,2.599-0.118,4.433-0.361,5.504c-0.247,1.073-0.693,1.977-1.345,2.714
	c-0.656,0.74-1.527,1.327-2.619,1.768c-1.099,0.438-2.523,0.656-4.287,0.656c-2.126,0-3.74-0.24-4.838-0.717
	c-1.097-0.477-1.969-1.099-2.604-1.861c-0.64-0.764-1.061-1.562-1.265-2.396c-0.29-1.239-0.44-3.068-0.44-5.489V110.426z"/>
<path id="path13410_2_" fill="#FFFFFF" stroke="#000000" stroke-linecap="round" d="M405.411,121.426
	c0,17.695-14.344,32.041-32.041,32.041c-17.696,0-32.042-14.346-32.042-32.041c0-17.696,14.346-32.041,32.042-32.041
	C391.067,89.385,405.411,103.729,405.411,121.426L405.411,121.426z"/>
<path id="text13430_2_" stroke="#000000" d="M353.794,132.426v-22h16.794v3.72h-12.221v4.878h11.373v3.706h-11.373v5.985h12.654
	v3.711H353.794z M374.977,132.426v-22h4.448l9.271,14.689v-14.689h4.249v22h-4.587l-9.134-14.35v14.35H374.977z"/>
<path id="path13408_2_" fill="#FF0000" stroke="#FF0000" stroke-linecap="round" d="M323.905,121.426
	c0,17.695-14.347,32.041-32.042,32.041s-32.041-14.346-32.041-32.041c0-17.696,14.345-32.041,32.041-32.041
	S323.905,103.729,323.905,121.426L323.905,121.426z"/>
<path id="text13442_2_" stroke="#000000" d="M285.357,124.239l4.288,1.323c-0.658,2.32-1.752,4.045-3.281,5.172
	c-1.529,1.129-3.469,1.691-5.819,1.691c-2.91,0-5.299-0.965-7.172-2.895c-1.873-1.932-2.81-4.57-2.81-7.916
	c0-3.543,0.94-6.292,2.824-8.25c1.884-1.961,4.359-2.939,7.425-2.939c2.68,0,4.857,0.771,6.53,2.307
	c0.996,0.91,1.744,2.215,2.24,3.919l-4.377,1.016c-0.258-1.103-0.799-1.974-1.621-2.61c-0.822-0.641-1.821-0.959-2.994-0.959
	c-1.625,0-2.943,0.564-3.954,1.697c-1.01,1.132-1.516,2.965-1.516,5.5c0,2.691,0.499,4.606,1.495,5.746
	c0.995,1.143,2.29,1.712,3.884,1.712c1.175,0,2.188-0.362,3.033-1.087C284.381,126.941,284.987,125.798,285.357,124.239
	L285.357,124.239z M293.47,132.064v-21.275h9.309c2.34,0,4.042,0.189,5.104,0.574c1.06,0.381,1.909,1.061,2.546,2.037
	c0.638,0.979,0.956,2.096,0.956,3.352c0,1.598-0.482,2.916-1.448,3.955c-0.967,1.039-2.411,1.695-4.333,1.967
	c0.956,0.541,1.746,1.137,2.367,1.785c0.624,0.648,1.462,1.799,2.519,3.452l2.674,4.153h-5.289l-3.197-4.633
	c-1.136-1.652-1.913-2.695-2.332-3.127c-0.419-0.431-0.861-0.725-1.331-0.883c-0.469-0.162-1.211-0.241-2.226-0.241h-0.896v8.884
	H293.47z M297.893,119.787h3.271c2.122,0,3.447-0.088,3.975-0.262c0.527-0.175,0.94-0.475,1.24-0.9
	c0.298-0.426,0.447-0.958,0.447-1.598c0-0.714-0.196-1.294-0.59-1.733c-0.392-0.438-0.949-0.716-1.666-0.833
	c-0.358-0.05-1.435-0.074-3.228-0.074h-3.451V119.787z"/>
<path id="path13404_7_" fill="#FFFFFF" stroke="#000000" stroke-linecap="round" d="M79.386,121.426
	c0,17.695-14.346,32.041-32.042,32.041c-17.696,0-32.042-14.346-32.042-32.041c0-17.696,14.346-32.041,32.042-32.041
	C65.041,89.385,79.386,103.729,79.386,121.426L79.386,121.426z"/>
<path id="text13434_5_" d="M27.766,132.223v-21.594h16.485v3.651H32.255v4.788h11.163v3.638H32.255v5.876h12.421v3.641H27.766z
	 M46.253,132.223l7.598-11.27l-6.885-10.324h5.248l4.458,6.936l4.368-6.936h5.201l-6.916,10.485l7.598,11.108h-5.414l-4.929-7.471
	l-4.943,7.471H46.253z"/>
<path id="path13414_6_" fill="#FFFFFF" stroke="#000000" stroke-linecap="round" d="M568.429,121.426
	c0,17.695-14.35,32.041-32.045,32.041s-32.041-14.346-32.041-32.041c0-17.696,14.346-32.041,32.041-32.041
	S568.429,103.729,568.429,121.426L568.429,121.426z"/>
<path id="text1899_2_" stroke="#000000" d="M516.789,132.426v-22h4.447l9.269,14.689v-14.689h4.252v22h-4.591l-9.133-14.35v14.35
	H516.789z M544.704,132.426v-18.28h-6.72v-3.72h18.001v3.72h-6.709v18.28H544.704z"/>
<path id="path2072_2_" fill="#FFFFFF" stroke="#000000" stroke-linecap="round" d="M649.938,121.426
	c0,17.695-14.344,32.041-32.041,32.041c-17.695,0-32.045-14.346-32.045-32.041c0-17.696,14.35-32.041,32.045-32.041
	C635.594,89.385,649.938,103.729,649.938,121.426L649.938,121.426z"/>
<path id="text3021_2_" stroke="#000000" d="M599.45,132.064v-21.102h4.418v17.515h11v3.587H599.45z M632.049,124.239l4.291,1.323
	c-0.66,2.32-1.75,4.045-3.279,5.172c-1.529,1.129-3.473,1.691-5.822,1.691c-2.908,0-5.301-0.965-7.174-2.895
	c-1.867-1.932-2.805-4.57-2.805-7.916c0-3.543,0.941-6.292,2.82-8.25c1.883-1.961,4.359-2.939,7.43-2.939
	c2.678,0,4.852,0.771,6.527,2.307c0.996,0.91,1.742,2.215,2.24,3.919l-4.377,1.016c-0.258-1.103-0.799-1.974-1.619-2.61
	c-0.824-0.641-1.818-0.959-3-0.959c-1.617,0-2.936,0.564-3.953,1.697c-1.01,1.132-1.514,2.965-1.514,5.5
	c0,2.691,0.498,4.606,1.494,5.746c1,1.143,2.291,1.712,3.883,1.712c1.18,0,2.191-0.362,3.039-1.087
	C631.077,126.941,631.684,125.798,632.049,124.239L632.049,124.239z"/>
<path id="path13404_6_" fill="#FFFFFF" stroke="#000000" stroke-linecap="round" d="M242.398,121.426
	c0,17.697-14.346,32.041-32.042,32.041c-17.696,0-32.042-14.344-32.042-32.041c0-17.695,14.346-32.041,32.042-32.041
	C228.052,89.385,242.398,103.73,242.398,121.426L242.398,121.426z"/>
<g>
	<path id="text13434_4_" d="M213.625,132.363v-21.938h16.749v3.711h-12.189v4.861h11.342v3.699h-11.342v5.971h12.62v3.695H213.625z"
		/>
	<g>
		<path d="M189.908,132.426v-22h9.349c2.351,0,4.059,0.198,5.124,0.594c1.065,0.395,1.918,1.098,2.559,2.107
			c0.64,1.012,0.96,2.166,0.96,3.467c0,1.65-0.485,3.014-1.456,4.089c-0.971,1.075-2.421,1.753-4.352,2.033
			c0.96,0.561,1.753,1.176,2.379,1.846c0.625,0.671,1.467,1.86,2.528,3.571l2.686,4.293h-5.312l-3.211-4.789
			c-1.141-1.71-1.92-2.787-2.34-3.232c-0.42-0.445-0.866-0.75-1.335-0.916c-0.471-0.165-1.216-0.247-2.236-0.247h-0.9v9.185H189.908
			z M194.35,119.729h3.286c2.131,0,3.461-0.09,3.992-0.27c0.53-0.181,0.945-0.49,1.245-0.931c0.3-0.44,0.451-0.99,0.451-1.65
			c0-0.74-0.198-1.338-0.593-1.793c-0.396-0.455-0.953-0.743-1.673-0.863c-0.36-0.05-1.44-0.075-3.241-0.075h-3.466V119.729z"/>
	</g>
</g>
<text transform="matrix(-4.436700e-005 0.2958 -1 -1.400000e-004 315.0742 57.8477)" font-family="'LinLibertine'" font-size="245.3364">{</text>
<g>
	<path d="M310.394,44.304c-0.6,1.396-1.111,2.684-1.533,3.863c-0.423,1.179-0.745,2.206-0.965,3.081
		c-0.24-0.059-0.687-0.088-1.339-0.088c-0.451,0-0.792,0.029-1.022,0.088c3.33-7.461,6.22-14.072,8.67-19.834h0.833
		c0.682,1.621,1.645,3.982,2.892,7.083c1.246,3.101,2.332,5.781,3.257,8.042c0.925,2.261,1.606,3.831,2.044,4.709
		c-0.321-0.059-0.879-0.088-1.676-0.088c-0.623,0-1.095,0.029-1.415,0.088c-0.04-0.137-0.086-0.295-0.14-0.476
		c-0.054-0.181-0.127-0.425-0.22-0.732c-0.093-0.308-0.204-0.654-0.331-1.04s-0.27-0.811-0.426-1.274s-0.34-0.994-0.551-1.589
		c-0.21-0.596-0.434-1.206-0.668-1.831c-0.656-0.02-1.279-0.032-1.867-0.037s-1.142-0.007-1.661-0.007
		C313.127,44.26,311.834,44.275,310.394,44.304z M317.267,42.898c-0.43-1.123-0.896-2.3-1.399-3.53s-1.047-2.52-1.633-3.867h-0.059
		l-3.172,7.383c0.235,0,0.734,0.01,1.498,0.029s1.312,0.029,1.645,0.029C314.997,42.942,316.037,42.927,317.267,42.898z"/>
	<path d="M328.781,40.598l0.088,0.088c1.699-1.797,3.379-2.695,5.039-2.695c0.851,0,1.565,0.215,2.144,0.645
		s0.937,1.006,1.075,1.729c1.501-1.582,3.188-2.373,5.061-2.373c1.483,0,2.473,0.405,2.971,1.216s0.747,1.997,0.747,3.56v2.988
		c0,2.324,0.093,4.126,0.278,5.405l-0.073,0.088c-0.361-0.059-0.83-0.088-1.406-0.088s-1.045,0.029-1.406,0.088l-0.059-0.088
		c0.175-1.221,0.263-3.022,0.263-5.405v-3.296c0-0.977-0.19-1.665-0.57-2.065s-0.989-0.601-1.827-0.601
		c-1.461,0-2.728,0.601-3.8,1.802c0.02,0.244,0.029,0.625,0.029,1.143v3.018c0,2.324,0.092,4.126,0.278,5.405l-0.059,0.088
		c-0.365-0.059-0.843-0.088-1.435-0.088c-0.592,0-1.07,0.029-1.436,0.088l-0.059-0.088c0.176-1.221,0.269-3.022,0.278-5.405v-3.296
		c0-1.777-0.664-2.666-1.992-2.666c-0.537,0-1.187,0.215-1.948,0.645s-1.489,0.996-2.183,1.699v3.618
		c0,2.324,0.088,4.126,0.264,5.405l-0.059,0.088c-0.361-0.059-0.833-0.088-1.414-0.088s-1.047,0.029-1.399,0.088l-0.059-0.088
		c0.176-1.221,0.264-3.022,0.264-5.405v-1.641c0-2.764-0.088-4.707-0.264-5.83l0.059-0.088c0.879,0.078,1.685,0.049,2.417-0.088
		c0.117,0,0.181,0.103,0.19,0.308V40.598z"/>
	<path d="M359.456,48.04l0.541,0.747c-0.548,0.801-1.26,1.445-2.138,1.934c-0.877,0.488-1.822,0.732-2.834,0.732
		c-2.003,0-3.531-0.659-4.584-1.978c-0.865-1.084-1.298-2.612-1.298-4.585c0-2.08,0.611-3.75,1.834-5.01
		c1.223-1.26,2.582-1.89,4.077-1.89c1.708,0,2.958,0.564,3.752,1.691c0.794,1.128,1.19,2.437,1.19,3.927
		c0,0.375-0.176,0.563-0.526,0.563h-7.926c0,1.777,0.24,3.047,0.72,3.809c0.724,1.143,1.815,1.714,3.274,1.714
		C357.183,49.695,358.489,49.143,359.456,48.04z M351.632,42.854h5.536c0.284,0,0.426-0.133,0.426-0.398
		c0-0.971-0.267-1.738-0.8-2.301c-0.534-0.563-1.114-0.845-1.74-0.845c-0.225,0-0.48,0.051-0.764,0.151s-0.612,0.27-0.984,0.508
		c-0.372,0.238-0.714,0.609-1.028,1.113C351.965,41.585,351.75,42.176,351.632,42.854z"/>
	<path d="M375.495,45.754c0,2.275,0.093,4.077,0.278,5.405l-0.073,0.088c-0.361-0.059-0.83-0.088-1.406-0.088
		s-1.045,0.029-1.406,0.088l-0.059-0.088c0.176-1.338,0.264-3.14,0.264-5.405v-2.93c0-1.182-0.158-1.982-0.477-2.402
		c-0.316-0.42-0.876-0.63-1.677-0.63c-0.615,0-1.318,0.2-2.109,0.601s-1.538,1.021-2.241,1.86v3.501
		c0,2.324,0.088,4.126,0.264,5.405l-0.059,0.088c-0.361-0.059-0.83-0.088-1.406-0.088s-1.045,0.029-1.406,0.088l-0.059-0.088
		c0.176-1.221,0.264-3.022,0.264-5.405v-1.641c0-2.764-0.088-4.707-0.264-5.83l0.059-0.088c0.879,0.078,1.689,0.049,2.432-0.088
		c0.117,0,0.176,0.103,0.176,0.308v2.183l0.059,0.088c1.543-1.797,3.271-2.695,5.186-2.695c1.318,0,2.268,0.391,2.85,1.172
		c0.58,0.781,0.871,1.973,0.871,3.574c0,0.322-0.01,0.825-0.029,1.509S375.495,45.432,375.495,45.754z"/>
	<path d="M387.14,49.724h-0.117c-0.804,0.684-1.481,1.143-2.034,1.377c-0.554,0.234-1.242,0.352-2.064,0.352
		c-1.153,0-2.063-0.269-2.727-0.807c-0.665-0.538-0.997-1.35-0.997-2.436c0-1.013,0.444-1.904,1.333-2.674
		c0.89-0.77,2.105-1.325,3.648-1.666l2.797-0.634c0.127-0.039,0.19-0.157,0.19-0.354c0-0.65-0.071-1.211-0.213-1.684
		c-0.142-0.472-0.304-0.824-0.485-1.055c-0.181-0.231-0.42-0.414-0.719-0.546s-0.549-0.214-0.75-0.244
		c-0.2-0.03-0.442-0.044-0.727-0.044c-1.143,0-2.24,0.852-3.295,2.556l-0.391-0.029l-0.492-2.013l0.088-0.115
		c1.373-1.145,2.84-1.717,4.398-1.717c3.324,0,4.987,1.615,4.987,4.844c0,0.068-0.005,0.311-0.015,0.727s-0.02,0.862-0.029,1.336
		c-0.011,0.476-0.021,0.958-0.029,1.447c-0.011,0.49-0.016,0.832-0.016,1.028c0,1.264,0.166,2.047,0.499,2.351
		c0.166,0.147,0.459,0.22,0.879,0.22c0.244,0,0.513-0.054,0.806-0.161l0.234,0.747c-0.586,0.615-1.383,0.923-2.389,0.923
		c-0.573,0-1.07-0.146-1.49-0.439S387.308,50.291,387.14,49.724z M387.14,44.407l-2.535,0.685c-1.114,0.303-1.894,0.699-2.337,1.187
		c-0.443,0.489-0.665,1.095-0.665,1.818c0,0.479,0.206,0.904,0.616,1.275c0.412,0.372,0.95,0.557,1.616,0.557
		c0.804,0,1.724-0.391,2.761-1.172c0.284-0.195,0.427-0.454,0.427-0.776L387.14,44.407z"/>
	<path d="M396.321,49.666c1.084-0.01,2.251-0.042,3.502-0.095c1.249-0.054,2.23-0.11,2.943-0.168l1.07-0.073l0.059,0.088
		c-0.04,0.322-0.059,0.635-0.059,0.938c0,0.02,0.019,0.288,0.059,0.806l-0.059,0.088c-0.439-0.059-1.002-0.088-1.686-0.088h-6.771
		l-2.41,0.088l-0.088-0.132c0.117-0.127,0.336-0.435,0.658-0.924l7.048-10.399c-1.016,0.01-2.093,0.044-3.229,0.103
		c-1.139,0.059-2.024,0.112-2.659,0.161l-0.952,0.059l-0.059-0.088c0.039-0.322,0.059-0.63,0.059-0.923
		c0-0.02-0.02-0.293-0.059-0.82l0.059-0.088c0.459,0.059,1.021,0.088,1.685,0.088h6.112c0.193,0,0.431-0.01,0.711-0.029
		c0.279-0.02,0.531-0.039,0.754-0.059s0.428-0.039,0.613-0.059s0.293-0.029,0.322-0.029c0.059,0,0.1,0.015,0.124,0.043
		s0.036,0.072,0.036,0.13c-0.137,0.154-0.434,0.569-0.893,1.244L396.321,49.666z"/>
	<path d="M414.035,49.724h-0.117c-0.804,0.684-1.481,1.143-2.034,1.377c-0.554,0.234-1.242,0.352-2.064,0.352
		c-1.153,0-2.063-0.269-2.727-0.807c-0.665-0.538-0.997-1.35-0.997-2.436c0-1.013,0.444-1.904,1.333-2.674
		c0.89-0.77,2.105-1.325,3.648-1.666l2.797-0.634c0.127-0.039,0.19-0.157,0.19-0.354c0-0.65-0.071-1.211-0.213-1.684
		c-0.142-0.472-0.304-0.824-0.485-1.055c-0.181-0.231-0.42-0.414-0.719-0.546s-0.549-0.214-0.75-0.244
		c-0.2-0.03-0.442-0.044-0.727-0.044c-1.143,0-2.24,0.852-3.295,2.556l-0.391-0.029l-0.492-2.013l0.088-0.115
		c1.373-1.145,2.84-1.717,4.398-1.717c3.324,0,4.987,1.615,4.987,4.844c0,0.068-0.005,0.311-0.015,0.727s-0.02,0.862-0.029,1.336
		c-0.011,0.476-0.021,0.958-0.029,1.447c-0.011,0.49-0.016,0.832-0.016,1.028c0,1.264,0.166,2.047,0.499,2.351
		c0.166,0.147,0.459,0.22,0.879,0.22c0.244,0,0.513-0.054,0.806-0.161l0.234,0.747c-0.586,0.615-1.383,0.923-2.389,0.923
		c-0.573,0-1.07-0.146-1.49-0.439S414.203,50.291,414.035,49.724z M414.035,44.407l-2.535,0.685
		c-1.114,0.303-1.894,0.699-2.337,1.187c-0.443,0.489-0.665,1.095-0.665,1.818c0,0.479,0.206,0.904,0.616,1.275
		c0.412,0.372,0.95,0.557,1.616,0.557c0.804,0,1.724-0.391,2.761-1.172c0.284-0.195,0.427-0.454,0.427-0.776L414.035,44.407z"/>
	<path d="M429.796,49.422c-1.067,1.354-2.358,2.031-3.876,2.031c-1.539,0-2.793-0.639-3.764-1.917
		c-0.972-1.278-1.457-2.847-1.457-4.706c0-2.038,0.617-3.688,1.852-4.948c1.235-1.26,2.809-1.891,4.721-1.891
		c0.9,0,1.741,0.241,2.524,0.724V36.75c0-2.885-0.088-4.83-0.264-5.834l0.058-0.103c0.898-0.059,1.769-0.259,2.608-0.601
		c0.176,0,0.269,0.103,0.278,0.308c-0.176,2.217-0.269,4.097-0.278,5.64v9.243c0,2.021,0.171,3.94,0.513,5.757l-0.059,0.088
		c-0.4-0.059-0.845-0.088-1.333-0.088c-0.234,0-0.581,0.029-1.04,0.088c-0.176,0-0.264-0.029-0.264-0.088l-0.161-1.738H429.796z
		 M429.796,47.799v-6.766c-0.382-0.589-0.783-1.024-1.204-1.304c-0.421-0.28-0.969-0.42-1.645-0.42c-0.42,0-0.832,0.075-1.232,0.225
		c-0.401,0.149-0.813,0.396-1.233,0.739c-0.421,0.343-0.757,0.886-1.006,1.63c-0.249,0.744-0.374,1.637-0.374,2.68
		c0,1.758,0.279,3.084,0.837,3.977c0.558,0.894,1.276,1.34,2.158,1.34C427.438,49.9,428.67,49.2,429.796,47.799z"/>
	<path d="M436.212,45.063c0-2.136,0.567-3.849,1.703-5.138s2.65-1.934,4.544-1.934c1.93,0,3.414,0.611,4.453,1.832
		c1.041,1.222,1.561,2.881,1.561,4.979c0,1.984-0.549,3.589-1.646,4.813s-2.592,1.837-4.485,1.837c-1.873,0-3.363-0.605-4.471-1.815
		C436.766,48.427,436.212,46.902,436.212,45.063z M442.254,39.309c-0.881,0-1.607,0.266-2.18,0.797
		c-0.572,0.531-0.959,1.169-1.159,1.913c-0.2,0.744-0.301,1.589-0.301,2.536c0,0.889,0.101,1.729,0.301,2.522
		s0.622,1.522,1.263,2.188s1.45,1,2.429,1c0.998,0,1.825-0.466,2.48-1.398s0.983-2.109,0.983-3.529c0-2-0.264-3.505-0.793-4.515
		C444.75,39.814,443.742,39.309,442.254,39.309z"/>
</g>
<g>
	<path d="M535.637,15.593c0-2.578-0.098-4.58-0.293-6.006l0.059-0.088c0.348,0.059,0.826,0.088,1.436,0.088
		c0.297,0,0.993-0.034,2.09-0.103c1.096-0.068,1.773-0.103,2.033-0.103c1.353,0,2.523,0.164,3.51,0.492
		c0.988,0.328,1.728,0.769,2.219,1.322c0.49,0.554,0.85,1.117,1.074,1.69c0.227,0.573,0.339,1.168,0.339,1.785
		c0,0.686-0.138,1.363-0.413,2.034s-0.691,1.312-1.246,1.923c-0.557,0.612-1.342,1.108-2.357,1.49
		c-1.018,0.382-2.191,0.572-3.521,0.572c-1.067,0-1.909-0.105-2.525-0.315v2.572c0,2.572,0.103,4.568,0.309,5.99l-0.059,0.088
		c-0.35-0.059-0.832-0.088-1.451-0.088s-1.098,0.029-1.436,0.088l-0.059-0.088c0.195-1.357,0.293-3.359,0.293-6.006V15.593z
		 M538.04,12.014v7.051c0.381,0.195,1.174,0.297,2.378,0.307c1.546,0,2.698-0.345,3.457-1.037c0.759-0.691,1.138-1.864,1.138-3.519
		c0-0.856-0.12-1.567-0.359-2.131c-0.24-0.564-0.58-0.988-1.021-1.27s-0.886-0.472-1.336-0.569c-0.45-0.097-0.969-0.146-1.556-0.146
		c-1.037,0-1.747,0.105-2.129,0.314C538.23,11.224,538.04,11.557,538.04,12.014z"/>
	<path d="M554.285,18.918l0.088,0.059c0.703-1.201,1.318-2.036,1.846-2.505s1.182-0.703,1.963-0.703
		c0.244,0,0.605,0.068,1.084,0.205l0.117,0.117l-0.601,2.227l-0.234,0.059c-0.303-0.283-0.825-0.425-1.567-0.425
		c-0.664,0-1.221,0.352-1.67,1.055c-0.684,1.035-1.025,2.026-1.025,2.974v1.553c0,2.236,0.088,4.038,0.264,5.405l-0.059,0.088
		c-0.361-0.059-0.83-0.088-1.406-0.088s-1.045,0.029-1.406,0.088l-0.059-0.088c0.176-1.24,0.264-3.042,0.264-5.405v-1.641
		c0-2.764-0.088-4.707-0.264-5.83l0.059-0.088c0.879,0.078,1.689,0.049,2.432-0.088c0.117,0,0.176,0.103,0.176,0.308V18.918z"/>
	<path d="M571.117,25.817l0.541,0.747c-0.548,0.801-1.261,1.445-2.138,1.934s-1.822,0.732-2.834,0.732
		c-2.004,0-3.531-0.659-4.585-1.978c-0.865-1.084-1.298-2.612-1.298-4.585c0-2.08,0.611-3.75,1.834-5.01s2.582-1.89,4.078-1.89
		c1.707,0,2.958,0.564,3.752,1.691c0.793,1.128,1.19,2.437,1.19,3.927c0,0.375-0.176,0.563-0.526,0.563h-7.926
		c0,1.777,0.24,3.047,0.72,3.809c0.724,1.143,1.815,1.714,3.274,1.714C568.844,27.473,570.15,26.921,571.117,25.817z
		 M563.293,20.632h5.536c0.284,0,0.426-0.133,0.426-0.398c0-0.971-0.267-1.738-0.8-2.301c-0.534-0.563-1.114-0.845-1.74-0.845
		c-0.226,0-0.48,0.051-0.764,0.151c-0.284,0.101-0.612,0.27-0.984,0.508c-0.372,0.238-0.715,0.609-1.027,1.113
		C563.626,19.363,563.411,19.954,563.293,20.632z"/>
	<path d="M574.705,22.841c0-2.136,0.567-3.849,1.703-5.138s2.65-1.934,4.544-1.934c1.93,0,3.414,0.611,4.453,1.832
		c1.041,1.222,1.561,2.881,1.561,4.979c0,1.984-0.549,3.589-1.646,4.813s-2.592,1.837-4.485,1.837c-1.873,0-3.363-0.605-4.471-1.815
		C575.258,26.205,574.705,24.68,574.705,22.841z M580.747,17.087c-0.881,0-1.607,0.266-2.18,0.797
		c-0.572,0.531-0.959,1.169-1.159,1.913c-0.2,0.744-0.301,1.589-0.301,2.536c0,0.889,0.101,1.729,0.301,2.522
		s0.622,1.522,1.263,2.188s1.45,1,2.429,1c0.998,0,1.825-0.466,2.48-1.398s0.983-2.109,0.983-3.529c0-2-0.264-3.505-0.793-4.515
		C583.242,17.592,582.234,17.087,580.747,17.087z"/>
	<path d="M596.033,17.087c-1.035,0-1.914,0.473-2.637,1.42s-1.084,2.212-1.084,3.796c0,1.681,0.366,3.007,1.099,3.978
		s1.665,1.456,2.798,1.456c1.201,0,2.271-0.42,3.208-1.26h0.132l0.571,0.637c-1.123,1.412-2.598,2.117-4.424,2.117
		c-1.836,0-3.26-0.612-4.27-1.837c-1.012-1.225-1.517-2.868-1.517-4.931c0-1.96,0.61-3.566,1.831-4.817s2.661-1.876,4.321-1.876
		c1.582,0,2.91,0.306,3.984,0.917l0.073,0.096l-0.703,2.464l-0.381,0.029C598.176,17.816,597.175,17.087,596.033,17.087z"/>
	<path d="M612.585,26.184c-0.557,0.859-1.237,1.582-2.044,2.168c-0.805,0.586-1.638,0.879-2.497,0.879
		c-1.377,0-2.376-0.398-2.995-1.194c-0.621-0.796-0.931-1.785-0.931-2.966v-3.604c0-2.324-0.088-4.126-0.264-5.405l0.059-0.088
		c0.361,0.059,0.83,0.088,1.406,0.088s1.045-0.029,1.406-0.088l0.059,0.088c-0.176,1.201-0.264,3.003-0.264,5.405v2.974
		c0,1.26,0.176,2.095,0.527,2.505s0.845,0.615,1.479,0.615c0.703,0,1.438-0.315,2.205-0.945c0.766-0.63,1.403-1.365,1.911-2.205
		v-2.944c0-2.275-0.093-4.077-0.278-5.405l0.059-0.088c0.363,0.059,0.836,0.088,1.421,0.088s1.056-0.029,1.415-0.088l0.057,0.088
		c-0.171,1.201-0.262,3.003-0.271,5.405v1.714c0,2.021,0.166,3.94,0.498,5.757l-0.058,0.088c-0.397-0.059-0.84-0.088-1.324-0.088
		c-0.236,0-0.586,0.029-1.048,0.088c-0.177,0-0.266-0.029-0.266-0.088l-0.146-2.666L612.585,26.184z"/>
	<path d="M622.59,18.309l0.059,0.087c1.182-1.752,2.529-2.628,4.043-2.628c1.525,0,2.736,0.606,3.635,1.819
		c0.896,1.212,1.346,2.656,1.346,4.33c0,2.166-0.549,3.926-1.646,5.281s-2.586,2.032-4.462,2.032c-1.162,0-2.153-0.244-2.974-0.732
		v1.346c0,2.604,0.088,4.62,0.264,6.05l-0.059,0.089c-0.361-0.059-0.832-0.088-1.414-0.088c-0.58,0-1.047,0.029-1.398,0.088
		l-0.059-0.088c0.176-1.338,0.264-3.335,0.264-5.991v-8.013c0-2.764-0.088-4.707-0.264-5.83l0.059-0.088
		c0.879,0.069,1.685,0.04,2.417-0.088c0.117,0,0.181,0.1,0.19,0.299V18.309z M622.59,20.041v6.519
		c0.762,0.892,1.689,1.343,2.783,1.353c0.762,0,1.414-0.169,1.955-0.509c0.543-0.339,0.947-0.803,1.217-1.39
		c0.268-0.587,0.456-1.183,0.563-1.79c0.107-0.606,0.161-1.244,0.161-1.913c0-3.473-1.025-5.214-3.076-5.224
		c-0.596,0-1.265,0.298-2.007,0.895C623.445,18.578,622.913,19.265,622.59,20.041z"/>
	<path d="M642.849,27.501h-0.117c-0.804,0.684-1.481,1.143-2.034,1.377c-0.554,0.234-1.242,0.352-2.064,0.352
		c-1.153,0-2.063-0.269-2.727-0.807c-0.665-0.538-0.997-1.35-0.997-2.436c0-1.013,0.444-1.904,1.333-2.674
		c0.89-0.77,2.105-1.325,3.648-1.666l2.797-0.634c0.127-0.039,0.19-0.157,0.19-0.354c0-0.65-0.071-1.211-0.213-1.684
		c-0.142-0.472-0.304-0.824-0.485-1.055c-0.181-0.231-0.42-0.414-0.719-0.546s-0.549-0.214-0.75-0.244
		c-0.2-0.03-0.442-0.044-0.727-0.044c-1.143,0-2.24,0.852-3.295,2.556l-0.391-0.029l-0.492-2.013l0.088-0.115
		c1.373-1.145,2.84-1.717,4.398-1.717c3.324,0,4.987,1.615,4.987,4.844c0,0.068-0.005,0.311-0.015,0.727s-0.02,0.862-0.029,1.336
		c-0.011,0.476-0.021,0.958-0.029,1.447c-0.011,0.49-0.016,0.832-0.016,1.028c0,1.264,0.166,2.047,0.499,2.351
		c0.166,0.147,0.459,0.22,0.879,0.22c0.244,0,0.513-0.054,0.806-0.161l0.234,0.747c-0.586,0.615-1.383,0.923-2.389,0.923
		c-0.573,0-1.07-0.146-1.49-0.439S643.017,28.068,642.849,27.501z M642.849,22.185l-2.535,0.685
		c-1.114,0.303-1.894,0.699-2.337,1.187c-0.443,0.489-0.665,1.095-0.665,1.818c0,0.479,0.206,0.904,0.616,1.275
		c0.412,0.372,0.95,0.557,1.616,0.557c0.804,0,1.724-0.391,2.761-1.172c0.284-0.195,0.427-0.454,0.427-0.776L642.849,22.185z"/>
	<path d="M655.256,17.087c-1.035,0-1.914,0.473-2.637,1.42s-1.084,2.212-1.084,3.796c0,1.681,0.366,3.007,1.099,3.978
		s1.665,1.456,2.798,1.456c1.201,0,2.271-0.42,3.208-1.26h0.132l0.571,0.637c-1.123,1.412-2.598,2.117-4.424,2.117
		c-1.836,0-3.259-0.612-4.271-1.837c-1.01-1.225-1.516-2.868-1.516-4.931c0-1.96,0.61-3.566,1.831-4.817s2.661-1.876,4.321-1.876
		c1.582,0,2.91,0.306,3.984,0.917l0.073,0.096l-0.703,2.464l-0.381,0.029C657.4,17.816,656.399,17.087,655.256,17.087z"/>
	<path d="M663.715,12.092c-0.307-0.313-0.461-0.669-0.461-1.069s0.154-0.754,0.461-1.062c0.309-0.308,0.662-0.461,1.063-0.461
		s0.762,0.154,1.084,0.461s0.483,0.662,0.483,1.062s-0.161,0.757-0.483,1.069s-0.684,0.469-1.084,0.469
		S664.024,12.404,663.715,12.092z M663.547,21.892c0-2.656-0.088-4.6-0.264-5.83l0.059-0.088c0.859,0.059,1.729,0.049,2.607-0.029
		c0.117,0,0.193,0.015,0.227,0.044c0.035,0.029,0.052,0.117,0.052,0.264c-0.176,1.68-0.269,3.398-0.278,5.156v2.124
		c0,2.178,0.103,3.979,0.308,5.405l-0.086,0.088c-0.372-0.059-0.847-0.088-1.423-0.088s-1.045,0.029-1.406,0.088l-0.059-0.088
		c0.176-1.338,0.264-3.14,0.264-5.405V21.892z"/>
	<path d="M669.788,22.841c0-2.136,0.568-3.849,1.703-5.138c1.136-1.29,2.65-1.934,4.545-1.934c1.929,0,3.413,0.611,4.453,1.832
		c1.039,1.222,1.56,2.881,1.56,4.979c0,1.984-0.549,3.589-1.646,4.813c-1.098,1.225-2.592,1.837-4.484,1.837
		c-1.875,0-3.365-0.605-4.471-1.815C670.34,26.205,669.788,24.68,669.788,22.841z M675.831,17.087c-0.881,0-1.607,0.266-2.18,0.797
		c-0.573,0.531-0.959,1.169-1.16,1.913c-0.201,0.744-0.301,1.589-0.301,2.536c0,0.889,0.1,1.729,0.301,2.522
		s0.621,1.522,1.262,2.188c0.642,0.667,1.451,1,2.43,1c0.998,0,1.824-0.466,2.48-1.398c0.655-0.933,0.983-2.109,0.983-3.529
		c0-2-0.265-3.505-0.792-4.515C678.325,17.592,677.317,17.087,675.831,17.087z M676.813,8.811c0.117-0.039,0.26-0.059,0.426-0.059
		c0.617,0,1.17,0.229,1.658,0.688l0.088,0.322l-3.463,3.281c-0.383,0.381-0.681,0.566-0.896,0.557c-0.099,0-0.193-0.039-0.286-0.117
		c-0.094-0.078-0.14-0.166-0.14-0.264c0-0.195,0.117-0.474,0.353-0.835L676.813,8.811z"/>
	<path d="M697.444,23.532c0,2.275,0.093,4.077,0.278,5.405l-0.073,0.088c-0.361-0.059-0.83-0.088-1.406-0.088
		s-1.045,0.029-1.406,0.088l-0.059-0.088c0.176-1.338,0.264-3.14,0.264-5.405v-2.93c0-1.182-0.158-1.982-0.477-2.402
		c-0.316-0.42-0.876-0.63-1.677-0.63c-0.615,0-1.318,0.2-2.109,0.601s-1.538,1.021-2.241,1.86v3.501
		c0,2.324,0.088,4.126,0.264,5.405l-0.059,0.088c-0.361-0.059-0.83-0.088-1.406-0.088s-1.045,0.029-1.406,0.088l-0.059-0.088
		c0.176-1.221,0.264-3.022,0.264-5.405v-1.641c0-2.764-0.088-4.707-0.264-5.83l0.059-0.088c0.879,0.078,1.689,0.049,2.432-0.088
		c0.117,0,0.176,0.103,0.176,0.308v2.183l0.059,0.088c1.543-1.797,3.271-2.695,5.186-2.695c1.318,0,2.268,0.391,2.85,1.172
		c0.58,0.781,0.871,1.973,0.871,3.574c0,0.322-0.01,0.825-0.029,1.509S697.444,23.21,697.444,23.532z"/>
	<path d="M581.231,42.376l0.088,0.088c1.699-1.797,3.379-2.695,5.039-2.695c0.85,0,1.564,0.215,2.144,0.645s0.937,1.006,1.075,1.729
		c1.502-1.582,3.188-2.373,5.061-2.373c1.482,0,2.473,0.405,2.971,1.216s0.746,1.997,0.746,3.56v2.988
		c0,2.324,0.094,4.126,0.279,5.405l-0.074,0.088c-0.361-0.059-0.83-0.088-1.406-0.088s-1.045,0.029-1.405,0.088l-0.059-0.088
		c0.175-1.221,0.263-3.022,0.263-5.405v-3.296c0-0.977-0.189-1.665-0.569-2.065s-0.989-0.601-1.827-0.601
		c-1.461,0-2.728,0.601-3.799,1.802c0.02,0.244,0.029,0.625,0.029,1.143v3.018c0,2.324,0.092,4.126,0.277,5.405l-0.059,0.088
		c-0.365-0.059-0.843-0.088-1.436-0.088c-0.592,0-1.07,0.029-1.436,0.088l-0.059-0.088c0.176-1.221,0.27-3.022,0.279-5.405v-3.296
		c0-1.777-0.664-2.666-1.992-2.666c-0.537,0-1.188,0.215-1.949,0.645s-1.488,0.996-2.182,1.699v3.618
		c0,2.324,0.088,4.126,0.264,5.405l-0.059,0.088c-0.361-0.059-0.833-0.088-1.414-0.088s-1.047,0.029-1.398,0.088l-0.059-0.088
		c0.176-1.221,0.264-3.022,0.264-5.405v-1.641c0-2.764-0.088-4.707-0.264-5.83l0.059-0.088c0.879,0.078,1.684,0.049,2.416-0.088
		c0.117,0,0.182,0.103,0.191,0.308V42.376z"/>
	<path d="M611.905,49.817l0.541,0.747c-0.547,0.801-1.26,1.445-2.137,1.934c-0.878,0.488-1.822,0.732-2.835,0.732
		c-2.003,0-3.531-0.659-4.585-1.978c-0.865-1.084-1.297-2.612-1.297-4.585c0-2.08,0.611-3.75,1.834-5.01s2.582-1.89,4.077-1.89
		c1.708,0,2.958,0.564,3.753,1.691c0.793,1.128,1.189,2.437,1.189,3.927c0,0.375-0.176,0.563-0.525,0.563h-7.926
		c0,1.777,0.239,3.047,0.719,3.809c0.725,1.143,1.816,1.714,3.275,1.714C609.633,51.473,610.938,50.921,611.905,49.817z
		 M604.083,44.632h5.535c0.284,0,0.426-0.133,0.426-0.398c0-0.971-0.267-1.738-0.8-2.301c-0.534-0.563-1.114-0.845-1.74-0.845
		c-0.226,0-0.479,0.051-0.764,0.151s-0.612,0.27-0.983,0.508c-0.373,0.238-0.715,0.609-1.028,1.113S604.2,43.954,604.083,44.632z"/>
	<path d="M627.944,47.532c0,2.275,0.094,4.077,0.279,5.405l-0.074,0.088c-0.361-0.059-0.83-0.088-1.406-0.088
		s-1.045,0.029-1.406,0.088l-0.059-0.088c0.176-1.338,0.264-3.14,0.264-5.405v-2.93c0-1.182-0.158-1.982-0.476-2.402
		s-0.876-0.63-1.677-0.63c-0.615,0-1.318,0.2-2.109,0.601s-1.539,1.021-2.242,1.86v3.501c0,2.324,0.088,4.126,0.264,5.405
		l-0.059,0.088c-0.361-0.059-0.83-0.088-1.406-0.088s-1.045,0.029-1.406,0.088l-0.059-0.088c0.176-1.221,0.264-3.022,0.264-5.405
		v-1.641c0-2.764-0.088-4.707-0.264-5.83l0.059-0.088c0.879,0.078,1.689,0.049,2.432-0.088c0.117,0,0.176,0.103,0.176,0.308v2.183
		l0.059,0.088c1.543-1.797,3.271-2.695,5.186-2.695c1.318,0,2.269,0.391,2.85,1.172s0.871,1.973,0.871,3.574
		c0,0.322-0.01,0.825-0.029,1.509S627.944,47.21,627.944,47.532z"/>
	<path d="M631.446,46.841c0-2.136,0.566-3.849,1.703-5.138c1.135-1.29,2.65-1.934,4.544-1.934c1.929,0,3.413,0.611,4.453,1.832
		c1.04,1.222,1.56,2.881,1.56,4.979c0,1.984-0.549,3.589-1.645,4.813c-1.098,1.225-2.592,1.837-4.485,1.837
		c-1.874,0-3.364-0.605-4.471-1.815C631.999,50.205,631.446,48.68,631.446,46.841z M637.488,41.087c-0.881,0-1.607,0.266-2.18,0.797
		c-0.573,0.531-0.959,1.169-1.159,1.913c-0.201,0.744-0.301,1.589-0.301,2.536c0,0.889,0.1,1.729,0.301,2.522
		c0.2,0.792,0.621,1.522,1.262,2.188s1.451,1,2.43,1c0.998,0,1.824-0.466,2.48-1.398c0.654-0.933,0.982-2.109,0.982-3.529
		c0-2-0.264-3.505-0.792-4.515S638.975,41.087,637.488,41.087z"/>
	<path d="M650.313,42.918l0.088,0.059c0.703-1.201,1.318-2.036,1.846-2.505s1.182-0.703,1.963-0.703
		c0.244,0,0.605,0.068,1.084,0.205l0.117,0.117l-0.602,2.227l-0.234,0.059c-0.303-0.283-0.824-0.425-1.566-0.425
		c-0.664,0-1.221,0.352-1.67,1.055c-0.684,1.035-1.025,2.026-1.025,2.974v1.553c0,2.236,0.088,4.038,0.264,5.405l-0.059,0.088
		c-0.361-0.059-0.83-0.088-1.406-0.088s-1.045,0.029-1.406,0.088l-0.059-0.088c0.176-1.24,0.264-3.042,0.264-5.405v-1.641
		c0-2.764-0.088-4.707-0.264-5.83l0.059-0.088c0.879,0.078,1.689,0.049,2.432-0.088c0.117,0,0.176,0.103,0.176,0.308V42.918z"/>
</g>
<g>
	<path d="M8.313,47.623c0,2.344,0.083,3.784,0.249,4.321c1.201,0,2.505-0.029,3.911-0.088s2.515-0.117,3.325-0.176l1.216-0.088
		l0.059,0.117c-0.039,0.322-0.059,0.654-0.059,0.996c0,0.059,0.02,0.366,0.059,0.923l-0.059,0.088
		c-0.479-0.059-1.079-0.088-1.802-0.088H7.112l-1.465,0.088l-0.029-0.088c0.195-1.357,0.293-3.359,0.293-6.006v-7.339
		c0-2.578-0.098-4.58-0.293-6.006l0.059-0.088c0.329,0.059,0.808,0.088,1.436,0.088h7.808c0.723,0,1.323-0.029,1.802-0.088
		l0.059,0.088c-0.039,0.557-0.059,0.935-0.059,1.135s0.02,0.461,0.059,0.784l-0.059,0.117c-2.764-0.244-5.483-0.361-8.159-0.352
		C8.406,36.5,8.323,37.94,8.313,40.284v2.329c2.1,0,4.331-0.098,6.694-0.293l0.088,0.088c-0.059,0.283-0.088,0.603-0.088,0.959
		s0.029,0.676,0.088,0.959l-0.088,0.088c-1.982-0.195-4.214-0.293-6.694-0.293V47.623z"/>
	<path d="M24.456,47.417l-4.819-6.753c0.439,0.059,1.021,0.088,1.743,0.088c0.596,0,1.138-0.029,1.626-0.088
		c0.166,0.273,0.359,0.601,0.579,0.981S24,42.364,24.17,42.657s0.356,0.608,0.557,0.945s0.41,0.671,0.63,1.003
		s0.447,0.654,0.681,0.967c0.293-0.381,0.593-0.793,0.901-1.238s0.576-0.842,0.806-1.194s0.503-0.767,0.82-1.245
		s0.593-0.889,0.828-1.23c0.283,0.059,0.654,0.088,1.113,0.088c0.557,0,1.006-0.029,1.348-0.088l-4.922,6.05
		c0.293,0.43,0.781,1.155,1.465,2.175s1.289,1.904,1.816,2.651s1.064,1.472,1.611,2.175c-0.537-0.059-1.108-0.088-1.714-0.088
		c-0.615,0-1.128,0.029-1.538,0.088c-0.107-0.166-0.544-0.881-1.311-2.146s-1.389-2.229-1.868-2.893
		c-0.449,0.625-1.028,1.511-1.736,2.659s-1.208,1.941-1.501,2.38c-0.342-0.059-0.781-0.088-1.318-0.088
		c-0.4,0-0.762,0.029-1.084,0.088L24.456,47.417z"/>
	<path d="M35.413,40.752c0-0.615,0.02-1.323,0.059-2.124s0.059-1.372,0.059-1.714l0.062-0.088c0.32-0.039,0.591-0.093,0.813-0.161
		s0.476-0.168,0.76-0.3c0.284-0.132,0.499-0.227,0.643-0.286c0.18,0,0.275,0.098,0.285,0.293c-0.098,1.279-0.151,2.739-0.161,4.38
		h1.421c0.381,0,1.079-0.02,2.095-0.059l0.146,0.2c-0.156,0.364-0.273,0.737-0.352,1.119c-0.4-0.039-1.123-0.059-2.168-0.059h-1.143
		v3.829c0,0.693-0.014,1.482-0.042,2.368s-0.042,1.442-0.042,1.67c0,1.561,0.331,2.391,0.993,2.49
		c0.771,0.127,1.558,0.049,2.358-0.234l0.366,0.747c-1.162,0.742-2.319,1.108-3.472,1.099c-0.72,0-1.327-0.25-1.822-0.75
		c-0.495-0.5-0.742-1.212-0.742-2.134c0-0.228-0.02-0.932-0.059-2.115c-0.039-1.182-0.059-2.12-0.059-2.813v-4.156
		c-0.938,0-1.65,0.02-2.139,0.059l-0.146-0.2c0.283-0.397,0.503-0.771,0.659-1.119C34.07,40.733,34.612,40.752,35.413,40.752z"/>
	<path d="M45.616,36.783c-0.308-0.313-0.461-0.669-0.461-1.069s0.154-0.754,0.461-1.062s0.662-0.461,1.062-0.461
		s0.762,0.154,1.084,0.461s0.483,0.662,0.483,1.062s-0.161,0.757-0.483,1.069s-0.684,0.469-1.084,0.469S45.923,37.095,45.616,36.783
		z M45.447,46.583c0-2.656-0.088-4.6-0.264-5.83l0.059-0.088c0.859,0.059,1.729,0.049,2.607-0.029c0.117,0,0.193,0.015,0.227,0.044
		s0.051,0.117,0.051,0.264c-0.176,1.68-0.269,3.398-0.278,5.156v2.124c0,2.178,0.103,3.979,0.308,5.405l-0.086,0.088
		c-0.373-0.059-0.847-0.088-1.423-0.088s-1.045,0.029-1.406,0.088l-0.059-0.088c0.176-1.338,0.264-3.14,0.264-5.405V46.583z"/>
	<path d="M64.344,48.223c0,2.275,0.093,4.077,0.278,5.405l-0.073,0.088c-0.361-0.059-0.83-0.088-1.406-0.088
		s-1.045,0.029-1.406,0.088l-0.059-0.088c0.176-1.338,0.264-3.14,0.264-5.405v-2.93c0-1.182-0.159-1.982-0.476-2.402
		s-0.876-0.63-1.677-0.63c-0.615,0-1.318,0.2-2.109,0.601s-1.538,1.021-2.241,1.86v3.501c0,2.324,0.088,4.126,0.264,5.405
		l-0.059,0.088c-0.361-0.059-0.83-0.088-1.406-0.088s-1.045,0.029-1.406,0.088l-0.059-0.088c0.176-1.221,0.264-3.022,0.264-5.405
		v-1.641c0-2.764-0.088-4.707-0.264-5.83l0.059-0.088c0.879,0.078,1.689,0.049,2.432-0.088c0.117,0,0.176,0.103,0.176,0.308v2.183
		l0.059,0.088c1.543-1.797,3.271-2.695,5.186-2.695c1.318,0,2.268,0.391,2.849,1.172s0.872,1.973,0.872,3.574
		c0,0.322-0.01,0.825-0.029,1.509S64.344,47.901,64.344,48.223z"/>
	<path d="M69.559,40.752c0-0.615,0.02-1.323,0.059-2.124s0.059-1.372,0.059-1.714l0.062-0.088c0.32-0.039,0.591-0.093,0.813-0.161
		s0.476-0.168,0.76-0.3c0.284-0.132,0.499-0.227,0.643-0.286c0.18,0,0.275,0.098,0.285,0.293c-0.098,1.279-0.151,2.739-0.161,4.38
		h1.421c0.381,0,1.079-0.02,2.095-0.059l0.146,0.2c-0.156,0.364-0.273,0.737-0.352,1.119c-0.4-0.039-1.123-0.059-2.168-0.059h-1.143
		v3.829c0,0.693-0.014,1.482-0.042,2.368s-0.042,1.442-0.042,1.67c0,1.561,0.331,2.391,0.993,2.49
		c0.771,0.127,1.558,0.049,2.358-0.234l0.366,0.747c-1.162,0.742-2.319,1.108-3.472,1.099c-0.72,0-1.327-0.25-1.822-0.75
		c-0.495-0.5-0.742-1.212-0.742-2.134c0-0.228-0.02-0.932-0.059-2.115c-0.039-1.182-0.059-2.12-0.059-2.813v-4.156
		c-0.938,0-1.65,0.02-2.139,0.059l-0.146-0.2c0.283-0.397,0.503-0.771,0.659-1.119C68.216,40.733,68.758,40.752,69.559,40.752z"/>
	<path d="M78.04,47.532c0-2.136,0.568-3.849,1.703-5.138c1.136-1.29,2.65-1.934,4.544-1.934c1.929,0,3.414,0.611,4.453,1.832
		c1.04,1.222,1.56,2.881,1.56,4.979c0,1.984-0.549,3.589-1.646,4.813c-1.097,1.225-2.592,1.837-4.485,1.837
		c-1.874,0-3.364-0.605-4.471-1.815C78.593,50.896,78.04,49.371,78.04,47.532z M84.083,41.778c-0.881,0-1.607,0.266-2.18,0.797
		c-0.573,0.531-0.959,1.169-1.16,1.913c-0.201,0.744-0.301,1.589-0.301,2.536c0,0.889,0.1,1.729,0.301,2.522
		s0.622,1.522,1.262,2.188c0.641,0.667,1.451,1,2.429,1c0.998,0,1.825-0.466,2.48-1.398c0.655-0.933,0.983-2.109,0.983-3.529
		c0-2-0.264-3.505-0.792-4.515C86.577,42.283,85.569,41.778,84.083,41.778z"/>
</g>
<line fill="none" stroke="#000000" stroke-width="2" stroke-linecap="round" stroke-linejoin="round" stroke-miterlimit="10" x1="46.655" y1="61.432" x2="46.655" y2="81.432"/>
<line fill="none" stroke="#000000" stroke-width="2" stroke-linecap="round" stroke-linejoin="round" stroke-miterlimit="10" x1="615.655" y1="62.432" x2="615.655" y2="82.432"/>
</svg>
