<?xml version="1.0" encoding="utf-8"?>
<!-- Generator: Adobe Illustrator 16.0.0, SVG Export Plug-In . SVG Version: 6.00 Build 0)  -->
<!DOCTYPE svg PUBLIC "-//W3C//DTD SVG 1.1//EN" "http://www.w3.org/Graphics/SVG/1.1/DTD/svg11.dtd">
<svg version="1.1" id="Layer_1" xmlns="http://www.w3.org/2000/svg" xmlns:xlink="http://www.w3.org/1999/xlink" x="0px" y="0px"
	 width="200px" height="50px" viewBox="0 0 200 50" enable-background="new 0 0 200 50" xml:space="preserve">
<g>
	<path id="path13404_2_" fill="#808080" stroke="#808080" stroke-width="0.5341" stroke-linecap="round" d="M117.113,25
		c0,9.452-7.662,17.112-17.113,17.112S82.887,34.452,82.887,25c0-9.451,7.662-17.112,17.113-17.112S117.113,15.549,117.113,25
		L117.113,25z"/>
	<g>
		<path stroke="#000000" stroke-width="0.5341" d="M89.149,19.125h4.335c0.979,0,1.724,0.075,2.237,0.225
			c0.688,0.203,1.279,0.564,1.771,1.082c0.492,0.519,0.866,1.153,1.123,1.903c0.256,0.751,0.385,1.677,0.385,2.777
			c0,0.967-0.121,1.801-0.361,2.5c-0.294,0.855-0.713,1.547-1.259,2.075c-0.411,0.402-0.967,0.715-1.667,0.938
			c-0.524,0.167-1.224,0.249-2.1,0.249h-4.463V19.125z M91.521,21.113v7.781h1.771c0.663,0,1.141-0.037,1.435-0.112
			c0.384-0.096,0.704-0.259,0.958-0.488c0.253-0.23,0.461-0.607,0.621-1.135c0.16-0.525,0.241-1.243,0.241-2.151
			s-0.081-1.605-0.241-2.092s-0.384-0.865-0.673-1.138c-0.289-0.272-0.655-0.457-1.098-0.553c-0.332-0.075-0.98-0.112-1.948-0.112
			H91.521z"/>
		<path stroke="#000000" stroke-width="0.5341" d="M101.002,19.125h4.335c0.978,0,1.724,0.075,2.237,0.225
			c0.688,0.203,1.278,0.564,1.77,1.082c0.492,0.519,0.865,1.153,1.123,1.903c0.256,0.751,0.385,1.677,0.385,2.777
			c0,0.967-0.121,1.801-0.361,2.5c-0.293,0.855-0.713,1.547-1.258,2.075c-0.412,0.402-0.967,0.715-1.668,0.938
			c-0.523,0.167-1.223,0.249-2.1,0.249h-4.463V19.125z M103.374,21.113v7.781h1.771c0.662,0,1.141-0.037,1.436-0.112
			c0.384-0.096,0.703-0.259,0.957-0.488c0.254-0.23,0.461-0.607,0.621-1.135c0.16-0.525,0.24-1.243,0.24-2.151
			s-0.08-1.605-0.24-2.092s-0.385-0.865-0.674-1.138s-0.654-0.457-1.098-0.553c-0.331-0.075-0.98-0.112-1.947-0.112H103.374z"/>
	</g>
</g>
</svg>
