<?xml version="1.0" encoding="utf-8"?>
<!-- Generator: Adobe Illustrator 16.0.0, SVG Export Plug-In . SVG Version: 6.00 Build 0)  -->
<!DOCTYPE svg PUBLIC "-//W3C//DTD SVG 1.1//EN" "http://www.w3.org/Graphics/SVG/1.1/DTD/svg11.dtd">
<svg version="1.1" id="Layer_1" xmlns="http://www.w3.org/2000/svg" xmlns:xlink="http://www.w3.org/1999/xlink" x="0px" y="0px"
	 width="200px" height="50px" viewBox="0 0 200 50" enable-background="new 0 0 200 50" xml:space="preserve">
<g>
	<path id="path13406_2_" fill="#7F1416" stroke="#010101" stroke-width="0.2827" stroke-linecap="round" d="M46.189,37.058
		c0,5.002-4.054,9.058-9.057,9.058s-9.057-4.056-9.057-9.058s4.055-9.057,9.057-9.057S46.189,32.056,46.189,37.058L46.189,37.058z"
		/>
	<path id="text13438_2_" fill="#FFFFFF" d="M30.38,40.109v-6.103h4.66v1.031h-3.391v1.354h3.155v1.028h-3.155v1.66h3.511v1.029
		H30.38z M37.137,40.109l-1.501-6.103h1.299l0.947,4.191l1.149-4.191h1.509l1.102,4.263l0.964-4.263h1.277l-1.526,6.103h-1.346
		l-1.251-4.563l-1.248,4.563H37.137z"/>
	<path id="path13412_2_" fill="#FFFFFF" stroke="#010101" stroke-width="0.2827" stroke-linecap="round" d="M138.348,37.058
		c0,5.002-4.059,9.058-9.061,9.058s-9.055-4.056-9.055-9.058s4.053-9.057,9.055-9.057S138.348,32.056,138.348,37.058L138.348,37.058
		z"/>
	<path id="text13426_2_" fill="#010101" stroke="#010101" stroke-width="0.2827" d="M125.773,40.063l-2.25-6.115h1.381l1.592,4.525
		l1.541-4.525h1.35l-2.256,6.115H125.773z M130.035,33.948h1.271v3.312c0,0.525,0.016,0.865,0.045,1.021
		c0.055,0.251,0.186,0.451,0.391,0.602c0.203,0.152,0.482,0.229,0.838,0.229c0.361,0,0.635-0.071,0.816-0.215
		c0.184-0.143,0.293-0.319,0.332-0.527c0.035-0.208,0.055-0.556,0.055-1.038v-3.383h1.27v3.211c0,0.734-0.031,1.253-0.102,1.556
		c-0.068,0.303-0.195,0.559-0.379,0.768c-0.186,0.209-0.432,0.375-0.742,0.499c-0.309,0.124-0.711,0.186-1.211,0.186
		c-0.6,0-1.057-0.067-1.367-0.202s-0.557-0.312-0.736-0.526c-0.18-0.216-0.299-0.441-0.357-0.678
		c-0.082-0.35-0.123-0.867-0.123-1.551V33.948z"/>
	<path id="path13410_2_" fill="#FFFFFF" stroke="#010101" stroke-width="0.2827" stroke-linecap="round" d="M115.307,37.058
		c0,5.002-4.055,9.058-9.057,9.058s-9.057-4.056-9.057-9.058s4.055-9.057,9.057-9.057S115.307,32.056,115.307,37.058L115.307,37.058
		z"/>
	<path id="text13430_2_" fill="#010101" stroke="#010101" stroke-width="0.2827" d="M100.716,40.167v-6.219h4.747V35h-3.453v1.379
		h3.215v1.047h-3.215v1.692h3.576v1.049H100.716z M106.703,40.167v-6.219h1.258l2.621,4.153v-4.153h1.201v6.219h-1.297l-2.582-4.056
		v4.056H106.703z"/>
	<path id="path13408_2_" fill="#FFFFFF" stroke="#000000" stroke-width="0.25" stroke-miterlimit="10" d="M92.268,37.058
		c0,5.002-4.055,9.058-9.057,9.058c-5.002,0-9.057-4.056-9.057-9.058s4.055-9.057,9.057-9.057
		C88.213,28.001,92.268,32.056,92.268,37.058L92.268,37.058z"/>
	<path id="text13442_2_" fill="#010101" stroke="#010101" stroke-width="0.2827" d="M81.372,37.854l1.212,0.374
		c-0.186,0.655-0.495,1.144-0.927,1.462c-0.432,0.318-0.98,0.478-1.645,0.478c-0.822,0-1.498-0.272-2.027-0.818
		c-0.53-0.545-0.794-1.292-0.794-2.237c0-1.001,0.266-1.778,0.798-2.332c0.533-0.555,1.232-0.831,2.099-0.831
		c0.758,0,1.373,0.218,1.846,0.652c0.282,0.257,0.493,0.627,0.634,1.107l-1.238,0.288c-0.072-0.312-0.226-0.559-0.458-0.738
		c-0.232-0.182-0.515-0.271-0.847-0.271c-0.459,0-0.832,0.16-1.118,0.48c-0.285,0.319-0.429,0.838-0.429,1.555
		c0,0.761,0.141,1.302,0.423,1.623c0.281,0.323,0.647,0.484,1.098,0.484c0.332,0,0.618-0.103,0.857-0.308
		C81.096,38.617,81.267,38.294,81.372,37.854L81.372,37.854z M83.665,40.065v-6.014h2.631c0.662,0,1.143,0.053,1.442,0.161
		s0.54,0.301,0.72,0.576c0.18,0.277,0.271,0.593,0.271,0.948c0,0.451-0.137,0.824-0.41,1.117c-0.273,0.294-0.681,0.479-1.225,0.556
		c0.271,0.153,0.494,0.321,0.669,0.506c0.176,0.183,0.413,0.508,0.712,0.975l0.756,1.175h-1.495l-0.903-1.31
		c-0.321-0.467-0.541-0.763-0.66-0.885c-0.118-0.121-0.243-0.205-0.376-0.249c-0.132-0.046-0.342-0.068-0.629-0.068h-0.254v2.512
		H83.665z M84.915,36.595h0.925c0.6,0,0.974-0.024,1.124-0.074c0.149-0.049,0.266-0.135,0.351-0.255
		c0.084-0.12,0.126-0.27,0.126-0.451c0-0.201-0.056-0.365-0.167-0.49c-0.111-0.123-0.269-0.202-0.471-0.234
		c-0.102-0.015-0.406-0.021-0.913-0.021h-0.976V36.595z"/>
	<path id="path13404_7_" fill="#FFFFFF" stroke="#010101" stroke-width="0.2827" stroke-linecap="round" d="M23.15,37.058
		c0,5.002-4.055,9.058-9.058,9.058c-5.002,0-9.057-4.056-9.057-9.058s4.055-9.057,9.057-9.057
		C19.095,28.001,23.15,32.056,23.15,37.058L23.15,37.058z"/>
	<path id="text13434_5_" fill="#010101" d="M8.559,40.109v-6.103h4.66v1.031H9.828v1.354h3.155v1.028H9.828v1.66h3.511v1.029H8.559z
		 M13.785,40.109l2.147-3.186l-1.946-2.917h1.483l1.26,1.96l1.235-1.96h1.47L17.48,36.97l2.147,3.14h-1.531l-1.393-2.111
		l-1.398,2.111H13.785z"/>
	<path id="path13414_6_" fill="#FFFFFF" stroke="#010101" stroke-width="0.2827" stroke-linecap="round" d="M161.387,37.058
		c0,5.002-4.057,9.058-9.059,9.058s-9.057-4.056-9.057-9.058s4.055-9.057,9.057-9.057S161.387,32.056,161.387,37.058L161.387,37.058
		z"/>
	<path id="text1899_2_" fill="#010101" stroke="#010101" stroke-width="0.2827" d="M146.789,40.167v-6.219h1.258l2.619,4.153v-4.153
		h1.203v6.219h-1.299l-2.58-4.056v4.056H146.789z M154.68,40.167V35h-1.898v-1.052h5.088V35h-1.896v5.167H154.68z"/>
	<path id="path2072_2_" fill="#FFFFFF" stroke="#010101" stroke-width="0.2827" stroke-linecap="round" d="M184.426,37.058
		c0,5.002-4.053,9.058-9.057,9.058c-5.002,0-9.057-4.056-9.057-9.058s4.055-9.057,9.057-9.057
		C180.373,28.001,184.426,32.056,184.426,37.058L184.426,37.058z"/>
	<path id="text3021_2_" fill="#010101" stroke="#010101" stroke-width="0.2827" d="M170.154,40.065v-5.965h1.25v4.951h3.109v1.014
		H170.154z M179.369,37.854l1.213,0.374c-0.186,0.655-0.494,1.144-0.926,1.462s-0.982,0.478-1.645,0.478
		c-0.824,0-1.5-0.272-2.029-0.818c-0.527-0.545-0.793-1.292-0.793-2.237c0-1.001,0.266-1.778,0.797-2.332
		c0.533-0.555,1.232-0.831,2.1-0.831c0.758,0,1.373,0.218,1.846,0.652c0.281,0.257,0.492,0.627,0.635,1.107l-1.238,0.288
		c-0.072-0.312-0.227-0.559-0.457-0.738c-0.232-0.182-0.516-0.271-0.85-0.271c-0.457,0-0.828,0.16-1.115,0.48
		c-0.287,0.319-0.43,0.838-0.43,1.555c0,0.761,0.141,1.302,0.424,1.623c0.281,0.323,0.646,0.484,1.098,0.484
		c0.332,0,0.619-0.103,0.857-0.308C179.096,38.617,179.268,38.294,179.369,37.854L179.369,37.854z"/>
	<path id="path13404_6_" fill="#FFFFFF" stroke="#010101" stroke-width="0.2827" stroke-linecap="round" d="M69.229,37.058
		c0,5.003-4.055,9.058-9.057,9.058c-5.002,0-9.057-4.055-9.057-9.058c0-5.002,4.055-9.057,9.057-9.057
		C65.173,28.001,69.229,32.056,69.229,37.058L69.229,37.058z"/>
	<g>
		<path id="text13434_4_" fill="#010101" d="M61.095,40.149v-6.201h4.735v1.049h-3.446v1.375h3.206v1.045h-3.206v1.688h3.567v1.044
			H61.095z"/>
		<g>
			<path fill="#010101" d="M54.391,40.167v-6.219h2.643c0.665,0,1.147,0.057,1.449,0.168c0.301,0.111,0.542,0.311,0.723,0.597
				c0.181,0.285,0.272,0.611,0.272,0.979c0,0.467-0.137,0.853-0.412,1.156c-0.274,0.305-0.684,0.496-1.23,0.574
				c0.271,0.159,0.496,0.333,0.672,0.522s0.415,0.525,0.715,1.009l0.759,1.214H58.48l-0.908-1.354
				c-0.322-0.483-0.543-0.788-0.662-0.913c-0.119-0.126-0.245-0.213-0.377-0.26c-0.133-0.046-0.344-0.069-0.633-0.069h-0.254v2.596
				H54.391z M55.646,36.578h0.929c0.603,0,0.979-0.025,1.128-0.075c0.15-0.052,0.268-0.139,0.352-0.264
				c0.085-0.124,0.127-0.28,0.127-0.467c0-0.209-0.056-0.378-0.167-0.507c-0.112-0.128-0.27-0.21-0.473-0.243
				c-0.102-0.015-0.407-0.021-0.916-0.021h-0.98V36.578z"/>
		</g>
	</g>
	<g>
		<path fill="#010101" d="M116.541,22.905c-6.172,0.087-8.17-0.777-9.5-2.155h-0.277c-1.957,1.39-4.697,2.243-10.404,2.152
			l-10.333-0.166c-5.825-0.093-9.293,0.737-9.293,1.639c-0.416,0.123-1.248,0.123-1.665,0c0-2.071,2.289-3.22,11.305-3.116
			l11.79,0.125c4.231,0.042,7.282-0.501,7.907-2.008c0.555-0.164,1.039-0.185,1.664,0c0.484,1.518,4.23,2.01,7.697,2.011
			l12.762-0.121c7.836-0.081,10.609,1.273,10.609,3.119c-0.416,0.123-1.248,0.123-1.664,0c-0.764-0.78-1.949-1.744-9.086-1.642
			L116.541,22.905z"/>
	</g>
	<g>
		<path fill="#010101" d="M87.753,17.221c-0.102-0.025-0.289-0.025-0.382-0.025s-0.195,0-0.297,0.025
			c0.857-1.875,1.688-3.724,2.503-5.608h0.237c0.781,1.858,1.9,4.751,2.325,5.608c-0.145-0.025-0.365-0.025-0.509-0.025
			c-0.144,0-0.28,0-0.424,0.025c-0.052-0.188-0.244-0.85-0.659-1.962c-0.207-0.014-0.673-0.023-0.996-0.023
			c-0.292,0-0.882,0.009-1.094,0.023C88.154,16.001,87.892,16.701,87.753,17.221z M89.535,12.769h-0.017l-0.894,2.086
			c0.187,0.01,0.641,0.025,0.886,0.025c0.252,0,0.604-0.009,0.885-0.021C90.166,14.267,89.883,13.57,89.535,12.769z"/>
		<path fill="#010101" d="M93.672,14.235c0.398-0.424,0.899-0.764,1.425-0.764c0.475,0,0.823,0.263,0.899,0.67
			c0.483-0.509,0.976-0.67,1.434-0.67c0.917,0,1.052,0.594,1.052,1.349v0.849c0,0.645,0.008,1.043,0.076,1.527l-0.017,0.025
			c-0.102-0.017-0.297-0.025-0.399-0.025c-0.102,0-0.297,0.008-0.398,0.025l-0.017-0.025c0.068-0.458,0.077-0.891,0.077-1.527
			v-0.934c0-0.568-0.221-0.755-0.679-0.755c-0.331,0-0.67,0.06-1.078,0.509c0.008,0.102,0.008,0.204,0.008,0.323v0.857
			c0,0.645,0.009,1.043,0.077,1.527l-0.017,0.025c-0.102-0.017-0.297-0.025-0.399-0.025c-0.102,0-0.297,0.008-0.398,0.025
			l-0.017-0.025c0.068-0.458,0.076-0.891,0.076-1.527v-0.934c0-0.568-0.237-0.755-0.56-0.755c-0.297,0-0.772,0.254-1.171,0.662
			v1.027c0,0.645,0.008,1.043,0.076,1.527l-0.017,0.025c-0.102-0.017-0.297-0.025-0.398-0.025c-0.102,0-0.297,0.008-0.399,0.025
			l-0.017-0.025c0.068-0.458,0.077-0.891,0.077-1.527v-0.467c0-0.636-0.017-1.279-0.077-1.646l0.017-0.025
			c0.193,0.02,0.497,0.013,0.688-0.025c0.04,0,0.051,0.02,0.051,0.085v0.619L93.672,14.235z"/>
		<path fill="#010101" d="M102.611,16.525c-0.322,0.441-0.865,0.755-1.476,0.755c-0.573,0-1.058-0.209-1.35-0.56
			c-0.284-0.341-0.382-0.817-0.382-1.298c0-1.247,0.865-1.952,1.739-1.952c1.12,0,1.468,0.891,1.468,1.604
			c0,0.093-0.06,0.145-0.152,0.145h-2.308c0,0.493,0.054,0.839,0.204,1.077c0.233,0.374,0.634,0.484,0.925,0.484
			c0.467,0,0.865-0.145,1.162-0.467L102.611,16.525z M101.737,14.88c0.085,0,0.119-0.042,0.119-0.119c0-0.636-0.378-0.95-0.713-0.95
			c-0.268,0-0.823,0.187-0.967,1.069H101.737z"/>
		<path fill="#010101" d="M106.936,17.196l-0.017,0.025c-0.102-0.017-0.297-0.025-0.398-0.025c-0.103,0-0.297,0.008-0.399,0.025
			l-0.017-0.025c0.062-0.457,0.076-0.891,0.076-1.527v-0.832c0-0.688-0.178-0.857-0.61-0.857c-0.306,0-0.798,0.187-1.23,0.696v0.993
			c0,0.645,0.009,1.043,0.076,1.527l-0.017,0.025c-0.102-0.017-0.297-0.025-0.398-0.025c-0.103,0-0.298,0.008-0.399,0.025
			l-0.017-0.025c0.067-0.458,0.076-0.891,0.076-1.527v-0.467c0-0.636-0.017-1.279-0.076-1.646l0.017-0.025
			c0.192,0.02,0.496,0.013,0.688-0.025c0.04,0,0.049,0.02,0.051,0.085v0.619l0.017,0.025c0.543-0.636,1.146-0.764,1.468-0.764
			c0.764,0,1.053,0.458,1.053,1.341c0,0.271-0.018,0.585-0.018,0.857C106.859,16.313,106.87,16.712,106.936,17.196z"/>
		<path fill="#010101" d="M110.124,16.789c-0.449,0.382-0.687,0.492-1.153,0.492c-0.628,0-1.061-0.289-1.061-0.917
			c0-0.577,0.543-1.035,1.408-1.23l0.789-0.178c0.025-0.008,0.06-0.042,0.06-0.102c0-0.959-0.509-1.001-0.814-1.001
			c-0.407,0-0.696,0.339-0.934,0.721l-0.11-0.008l-0.144-0.568l0.025-0.034c0.212-0.178,0.602-0.492,1.247-0.492
			c0.645,0,1.399,0.229,1.399,1.375c0,0.093-0.023,1.035-0.023,1.281c0,0.377,0.055,0.583,0.142,0.662
			c0.052,0.047,0.164,0.063,0.248,0.063c0.064,0,0.137-0.012,0.229-0.044l0.062,0.209c-0.2,0.212-0.461,0.263-0.675,0.263
			c-0.311,0-0.564-0.161-0.661-0.492H110.124z M109.438,15.482c-0.662,0.178-0.84,0.467-0.84,0.849c0,0.263,0.246,0.518,0.627,0.518
			c0.255,0,0.543-0.153,0.781-0.331c0.067-0.051,0.118-0.11,0.118-0.221l0.034-1.009L109.438,15.482z"/>
		<path fill="#010101" d="M114.881,16.721l0.018,0.025c-0.009,0.068-0.018,0.145-0.018,0.221s0.009,0.119,0.018,0.229l-0.018,0.025
			c-0.127-0.017-0.305-0.025-0.475-0.025h-1.918c-0.241,0-0.687,0.025-0.687,0.025l-0.025-0.038
			c0.067-0.078,0.118-0.157,0.187-0.259l1.993-2.984c-0.972,0.014-1.934,0.091-1.934,0.091l-0.018-0.025
			c0.009-0.068,0.018-0.144,0.018-0.221c0-0.076-0.009-0.119-0.018-0.229l0.018-0.025c0.127,0.017,0.305,0.025,0.475,0.025h1.73
			c0.246,0,0.643-0.053,0.686-0.053c0.033,0,0.045,0.02,0.045,0.053c-0.052,0.06-0.11,0.141-0.255,0.356l-1.943,2.901
			C113.791,16.808,114.881,16.721,114.881,16.721z"/>
		<path fill="#010101" d="M117.73,16.789c-0.449,0.382-0.687,0.492-1.153,0.492c-0.628,0-1.061-0.289-1.061-0.917
			c0-0.577,0.543-1.035,1.408-1.23l0.789-0.178c0.025-0.008,0.06-0.042,0.06-0.102c0-0.959-0.509-1.001-0.814-1.001
			c-0.407,0-0.696,0.339-0.934,0.721l-0.11-0.008l-0.144-0.568l0.025-0.034c0.212-0.178,0.602-0.492,1.247-0.492
			c0.645,0,1.399,0.229,1.399,1.375c0,0.093-0.023,1.035-0.023,1.281c0,0.377,0.055,0.583,0.142,0.662
			c0.052,0.047,0.164,0.063,0.248,0.063c0.064,0,0.137-0.012,0.229-0.044l0.062,0.209c-0.2,0.212-0.461,0.263-0.675,0.263
			c-0.311,0-0.564-0.161-0.661-0.492H117.73z M117.044,15.482c-0.662,0.178-0.84,0.467-0.84,0.849c0,0.263,0.246,0.518,0.628,0.518
			c0.254,0,0.543-0.153,0.78-0.331c0.067-0.051,0.118-0.11,0.118-0.221l0.034-1.009L117.044,15.482z"/>
		<path fill="#010101" d="M121.182,17.281c-0.917,0-1.536-0.849-1.536-1.892c0-1.154,0.812-1.917,1.917-1.917
			c0.17,0,0.518,0.077,0.713,0.187v-0.552c0-0.645-0.011-1.275-0.076-1.637l0.017-0.025c0.344-0.025,0.525-0.085,0.738-0.17
			c0.054,0,0.076,0.025,0.076,0.085c-0.042,0.523-0.076,0.967-0.076,1.595v2.613c0,0.636,0.076,1.264,0.145,1.629l-0.017,0.025
			c-0.11-0.017-0.271-0.025-0.378-0.025c-0.123,0-0.18,0.011-0.293,0.025c-0.051,0-0.076-0.008-0.076-0.025l-0.042-0.492h-0.018
			C121.97,17.098,121.588,17.281,121.182,17.281z M122.275,14.303c-0.203-0.322-0.407-0.492-0.806-0.492
			c-0.411,0-1.086,0.238-1.086,1.51c0,1.061,0.39,1.519,0.849,1.519c0.343,0,0.733-0.208,1.043-0.602V14.303z"/>
		<path fill="#010101" d="M125.863,13.471c1.145,0,1.765,0.755,1.765,1.909c0,1.111-0.679,1.9-1.799,1.9
			c-1.129,0-1.799-0.806-1.799-1.824C124.03,14.252,124.752,13.471,125.863,13.471z M124.777,15.312
			c0,0.653,0.229,1.629,1.128,1.629c0.568,0,0.976-0.602,0.976-1.408c0-1.027-0.178-1.723-1.077-1.723
			C125.006,13.811,124.777,14.574,124.777,15.312z"/>
	</g>
	<g>
		<path fill="#010101" d="M152.057,5.442l0.018-0.025c0.102,0.017,0.33,0.025,0.432,0.025c0.256,0,0.967-0.059,1.188-0.059
			c1.57,0,1.969,0.865,1.969,1.493c0,0.721-0.533,1.696-2.078,1.696c-0.297,0-0.525-0.025-0.713-0.084v0.729
			c0,0.636,0.018,1.213,0.086,1.697l-0.018,0.025c-0.102-0.017-0.332-0.025-0.434-0.025s-0.33,0.008-0.432,0.025l-0.018-0.025
			c0.068-0.458,0.086-1.061,0.086-1.697V7.139C152.143,6.502,152.125,5.926,152.057,5.442z M152.871,8.123
			c0.111,0.059,0.459,0.084,0.67,0.084c0.824,0,1.299-0.314,1.299-1.29c0-1.009-0.619-1.17-1.205-1.17
			c-0.611,0-0.764,0.127-0.764,0.373V8.123z"/>
		<path fill="#010101" d="M157.441,8.098c0.373-0.645,0.619-0.908,1.078-0.908c0.152,0,0.16,0.017,0.305,0.06l0.035,0.034
			l-0.17,0.627l-0.068,0.017c-0.109-0.102-0.271-0.119-0.441-0.119c-0.16,0-0.352,0.107-0.475,0.297
			c-0.184,0.28-0.289,0.483-0.289,0.84v0.441c0,0.645,0.014,1.044,0.076,1.527l-0.016,0.025c-0.104-0.017-0.297-0.025-0.4-0.025
			c-0.102,0-0.297,0.008-0.398,0.025l-0.016-0.025c0.064-0.457,0.076-0.891,0.076-1.527V8.92c0-0.636-0.018-1.279-0.076-1.646
			l0.016-0.025c0.193,0.02,0.496,0.013,0.688-0.025c0.041,0,0.051,0.02,0.051,0.085v0.772L157.441,8.098z"/>
		<path fill="#010101" d="M162.438,10.244c-0.322,0.441-0.865,0.755-1.477,0.755c-0.572,0-1.057-0.209-1.35-0.56
			c-0.283-0.341-0.381-0.817-0.381-1.298c0-1.248,0.865-1.952,1.738-1.952c1.121,0,1.469,0.891,1.469,1.604
			c0,0.093-0.061,0.145-0.152,0.145h-2.309c0,0.493,0.055,0.839,0.203,1.077c0.234,0.374,0.635,0.484,0.926,0.484
			c0.467,0,0.865-0.145,1.162-0.467L162.438,10.244z M161.562,8.598c0.086,0,0.119-0.042,0.119-0.119c0-0.636-0.377-0.95-0.713-0.95
			c-0.266,0-0.822,0.187-0.967,1.069H161.562z"/>
		<path fill="#010101" d="M164.998,7.189c1.145,0,1.764,0.755,1.764,1.909c0,1.111-0.678,1.9-1.799,1.9
			c-1.129,0-1.799-0.806-1.799-1.824C163.164,7.97,163.887,7.189,164.998,7.189z M163.912,9.031c0,0.653,0.229,1.629,1.127,1.629
			c0.568,0,0.977-0.602,0.977-1.409c0-1.026-0.178-1.722-1.078-1.722C164.141,7.529,163.912,8.292,163.912,9.031z"/>
		<path fill="#010101" d="M168.211,9.022c0,0.993,0.484,1.553,1.104,1.553c0.314,0,0.584-0.068,0.908-0.356h0.033l0.16,0.178
			c-0.338,0.433-0.736,0.603-1.246,0.603c-1.035,0-1.705-0.754-1.705-1.935c0-1.154,0.924-1.875,1.807-1.875
			c0.424,0,0.865,0.102,1.129,0.238l0.016,0.025l-0.193,0.696l-0.111,0.008c-0.225-0.386-0.521-0.628-0.848-0.628
			C168.703,7.529,168.211,8.089,168.211,9.022z"/>
		<path fill="#010101" d="M172.596,10.999c-0.84,0-1.111-0.594-1.111-1.179V8.802c0-0.645-0.01-1.044-0.076-1.527l0.016-0.025
			c0.104,0.017,0.297,0.025,0.4,0.025c0.102,0,0.297-0.008,0.398-0.025l0.016,0.025c-0.066,0.45-0.076,0.891-0.076,1.527v0.84
			c0,0.789,0.275,0.882,0.568,0.882c0.416,0,0.904-0.454,1.162-0.891V8.802c0-0.645-0.01-1.042-0.076-1.527l0.018-0.025
			c0.102,0.017,0.297,0.025,0.398,0.025s0.297-0.008,0.398-0.025l0.018,0.025c-0.068,0.45-0.076,0.891-0.076,1.527v0.483
			c0,0.636,0.076,1.264,0.145,1.629l-0.018,0.025c-0.109-0.017-0.27-0.025-0.377-0.025c-0.123,0-0.223,0.011-0.336,0.025
			c-0.023,0-0.033-0.008-0.033-0.025l-0.043-0.755l-0.033-0.025C173.596,10.566,173.121,10.999,172.596,10.999z"/>
		<path fill="#010101" d="M176.725,7.953c0.391-0.594,0.814-0.764,1.146-0.764c0.949,0,1.475,0.866,1.475,1.765
			c0,1.195-0.678,2.045-1.799,2.045c-0.305,0-0.619-0.068-0.84-0.187v0.373c0,0.638,0.016,1.213,0.078,1.697l-0.018,0.025
			c-0.102-0.017-0.297-0.025-0.398-0.025s-0.297,0.008-0.398,0.025l-0.018-0.025c0.061-0.457,0.076-1.065,0.076-1.697V8.92
			c0-0.636-0.018-1.279-0.076-1.646l0.018-0.025c0.191,0.02,0.496,0.013,0.686-0.025c0.041,0,0.051,0.02,0.051,0.085v0.619
			L176.725,7.953z M176.707,10.278c0.297,0.348,0.654,0.382,0.789,0.382c0.908,0,1.104-0.899,1.104-1.595
			c0-0.958-0.297-1.484-0.873-1.484c-0.332,0-0.832,0.39-1.02,0.84V10.278z"/>
		<path fill="#010101" d="M182.363,10.507c-0.449,0.382-0.686,0.492-1.152,0.492c-0.629,0-1.061-0.289-1.061-0.917
			c0-0.577,0.543-1.035,1.408-1.23l0.789-0.178c0.025-0.008,0.059-0.042,0.059-0.102c0-0.958-0.508-1.001-0.814-1.001
			c-0.406,0-0.695,0.339-0.934,0.721l-0.109-0.008l-0.145-0.568l0.025-0.034c0.213-0.178,0.602-0.492,1.248-0.492
			c0.645,0,1.398,0.229,1.398,1.375c0,0.093-0.023,1.035-0.023,1.281c0,0.377,0.055,0.583,0.143,0.662
			c0.051,0.047,0.164,0.063,0.248,0.063c0.064,0,0.137-0.012,0.229-0.044l0.062,0.209c-0.199,0.212-0.461,0.263-0.674,0.263
			c-0.311,0-0.564-0.161-0.662-0.492H182.363z M181.678,9.2c-0.662,0.178-0.84,0.467-0.84,0.849c0,0.263,0.246,0.518,0.627,0.518
			c0.254,0,0.543-0.153,0.781-0.331c0.066-0.051,0.117-0.11,0.117-0.221l0.035-1.009L181.678,9.2z"/>
		<path fill="#010101" d="M184.916,9.022c0,0.993,0.484,1.553,1.104,1.553c0.314,0,0.584-0.068,0.908-0.356h0.033l0.16,0.178
			c-0.338,0.433-0.736,0.603-1.246,0.603c-1.035,0-1.705-0.754-1.705-1.935c0-1.154,0.924-1.875,1.807-1.875
			c0.424,0,0.865,0.102,1.129,0.238l0.016,0.025l-0.193,0.696l-0.111,0.008c-0.225-0.386-0.521-0.628-0.848-0.628
			C185.408,7.529,184.916,8.089,184.916,9.022z"/>
		<path fill="#010101" d="M188.596,5.417c0.23,0,0.434,0.204,0.434,0.433s-0.203,0.433-0.434,0.433
			c-0.229,0-0.432-0.204-0.432-0.433S188.367,5.417,188.596,5.417z M188.172,7.274l0.018-0.025c0.18,0.015,0.545,0.011,0.738-0.008
			c0.066,0,0.076,0.008,0.076,0.084c-0.055,0.518-0.076,0.823-0.076,1.459v0.602c0,0.645,0.016,1.045,0.076,1.527l-0.018,0.025
			c-0.102-0.017-0.297-0.025-0.398-0.025s-0.297,0.008-0.398,0.025l-0.018-0.025c0.061-0.458,0.076-0.891,0.076-1.527V8.92
			C188.248,8.284,188.225,7.638,188.172,7.274z"/>
		<path fill="#010101" d="M191.846,7.189c1.145,0,1.764,0.755,1.764,1.909c0,1.111-0.678,1.9-1.799,1.9
			c-1.129,0-1.799-0.806-1.799-1.824C190.012,7.97,190.734,7.189,191.846,7.189z M190.76,9.031c0,0.653,0.229,1.629,1.127,1.629
			c0.568,0,0.977-0.602,0.977-1.409c0-1.026-0.178-1.722-1.078-1.722C190.988,7.529,190.76,8.292,190.76,9.031z M192.184,5.205
			c0.055,0,0.271,0.008,0.467,0.195l0.025,0.093l-0.975,0.925c-0.127,0.127-0.195,0.161-0.256,0.161
			c-0.059,0-0.117-0.051-0.117-0.11c0-0.095,0.027-0.129,0.096-0.238l0.643-1.01C192.092,5.213,192.143,5.205,192.184,5.205z"/>
		<path fill="#010101" d="M197.908,10.914l-0.016,0.025c-0.102-0.017-0.297-0.025-0.398-0.025s-0.297,0.008-0.4,0.025l-0.016-0.025
			c0.061-0.457,0.076-0.891,0.076-1.527V8.556c0-0.688-0.178-0.857-0.611-0.857c-0.305,0-0.797,0.187-1.23,0.696v0.992
			c0,0.645,0.01,1.044,0.076,1.527l-0.016,0.025c-0.102-0.017-0.297-0.025-0.398-0.025c-0.104,0-0.297,0.008-0.4,0.025l-0.016-0.025
			c0.066-0.458,0.076-0.891,0.076-1.527V8.92c0-0.636-0.018-1.279-0.076-1.646l0.016-0.025c0.193,0.02,0.496,0.013,0.688-0.025
			c0.041,0,0.049,0.02,0.051,0.085v0.619l0.018,0.025c0.543-0.636,1.145-0.764,1.467-0.764c0.764,0,1.053,0.458,1.053,1.341
			c0,0.271-0.018,0.585-0.018,0.856C197.832,10.032,197.844,10.431,197.908,10.914z"/>
		<path fill="#010101" d="M165.025,14.737c0.4-0.424,0.9-0.764,1.426-0.764c0.475,0,0.824,0.263,0.9,0.67
			c0.482-0.509,0.975-0.67,1.434-0.67c0.916,0,1.051,0.594,1.051,1.349v0.848c0,0.645,0.01,1.044,0.076,1.527l-0.016,0.025
			c-0.102-0.017-0.297-0.025-0.398-0.025s-0.297,0.008-0.4,0.025l-0.016-0.025c0.068-0.458,0.076-0.891,0.076-1.527v-0.933
			c0-0.568-0.221-0.755-0.68-0.755c-0.33,0-0.67,0.059-1.076,0.509c0.008,0.102,0.008,0.204,0.008,0.323v0.856
			c0,0.645,0.008,1.044,0.076,1.527l-0.018,0.025c-0.102-0.017-0.297-0.025-0.398-0.025s-0.297,0.008-0.398,0.025l-0.018-0.025
			c0.068-0.458,0.078-0.891,0.078-1.527v-0.933c0-0.568-0.238-0.755-0.561-0.755c-0.297,0-0.771,0.254-1.172,0.662v1.026
			c0,0.645,0.01,1.044,0.078,1.527l-0.018,0.025c-0.102-0.017-0.297-0.025-0.398-0.025s-0.297,0.008-0.398,0.025l-0.018-0.025
			c0.068-0.458,0.076-0.891,0.076-1.527v-0.466c0-0.636-0.018-1.279-0.076-1.646l0.018-0.025c0.191,0.02,0.496,0.013,0.686-0.025
			c0.041,0,0.051,0.02,0.051,0.085v0.619L165.025,14.737z"/>
		<path fill="#010101" d="M173.965,17.028c-0.322,0.441-0.865,0.755-1.475,0.755c-0.572,0-1.059-0.209-1.35-0.56
			c-0.285-0.341-0.383-0.817-0.383-1.298c0-1.248,0.867-1.952,1.74-1.952c1.119,0,1.467,0.891,1.467,1.604
			c0,0.093-0.059,0.145-0.152,0.145h-2.307c0,0.493,0.053,0.839,0.203,1.077c0.232,0.374,0.635,0.484,0.924,0.484
			c0.467,0,0.865-0.145,1.164-0.467L173.965,17.028z M173.092,15.382c0.084,0,0.119-0.042,0.119-0.119
			c0-0.636-0.379-0.95-0.713-0.95c-0.268,0-0.822,0.187-0.967,1.069H173.092z"/>
		<path fill="#010101" d="M178.289,17.698l-0.016,0.025c-0.102-0.017-0.297-0.025-0.398-0.025s-0.297,0.008-0.4,0.025l-0.016-0.025
			c0.061-0.457,0.076-0.891,0.076-1.527V15.34c0-0.688-0.178-0.857-0.611-0.857c-0.305,0-0.797,0.187-1.23,0.696v0.992
			c0,0.645,0.01,1.044,0.076,1.527l-0.016,0.025c-0.102-0.017-0.297-0.025-0.398-0.025c-0.104,0-0.297,0.008-0.4,0.025l-0.016-0.025
			c0.066-0.458,0.076-0.891,0.076-1.527v-0.466c0-0.636-0.018-1.279-0.076-1.646l0.016-0.025c0.193,0.02,0.496,0.013,0.688-0.025
			c0.041,0,0.049,0.02,0.051,0.085v0.619l0.018,0.025c0.543-0.636,1.145-0.764,1.467-0.764c0.764,0,1.053,0.458,1.053,1.341
			c0,0.271-0.018,0.585-0.018,0.856C178.213,16.816,178.225,17.215,178.289,17.698z"/>
		<path fill="#010101" d="M181.037,13.974c1.145,0,1.764,0.755,1.764,1.909c0,1.111-0.678,1.9-1.799,1.9
			c-1.129,0-1.799-0.806-1.799-1.824C179.203,14.754,179.926,13.974,181.037,13.974z M179.951,15.815
			c0,0.653,0.229,1.629,1.127,1.629c0.568,0,0.977-0.602,0.977-1.409c0-1.026-0.178-1.722-1.078-1.722
			C180.18,14.313,179.951,15.077,179.951,15.815z"/>
		<path fill="#010101" d="M184.564,14.882c0.373-0.645,0.619-0.908,1.076-0.908c0.154,0,0.162,0.017,0.307,0.06l0.033,0.034
			l-0.17,0.627l-0.068,0.017c-0.109-0.102-0.271-0.119-0.439-0.119c-0.162,0-0.354,0.107-0.477,0.297
			c-0.182,0.28-0.287,0.483-0.287,0.84v0.441c0,0.645,0.012,1.044,0.076,1.527l-0.018,0.025c-0.102-0.017-0.297-0.025-0.398-0.025
			s-0.297,0.008-0.398,0.025l-0.018-0.025c0.066-0.457,0.076-0.891,0.076-1.527v-0.466c0-0.636-0.018-1.279-0.076-1.646l0.018-0.025
			c0.191,0.02,0.496,0.013,0.688-0.025c0.039,0,0.051,0.02,0.051,0.085v0.772L184.564,14.882z"/>
	</g>
	<g>
		<path fill="#010101" d="M3.179,17.418c1.137,0,2.393-0.102,2.393-0.102l0.017,0.034c-0.009,0.068-0.017,0.195-0.017,0.28
			c0,0.085,0.008,0.145,0.017,0.263l-0.017,0.025c-0.136-0.017-0.331-0.025-0.509-0.025H2.747c-0.297,0-0.441,0.025-0.441,0.025
			l-0.009-0.025c0.068-0.458,0.085-1.061,0.085-1.697v-2.079c0-0.636-0.017-1.213-0.085-1.697l0.017-0.025
			c0,0,0.144,0.025,0.433,0.025h2.231c0.178,0,0.373-0.008,0.509-0.025l0.017,0.025c-0.008,0.119-0.017,0.254-0.017,0.322
			c0,0.077,0.009,0.153,0.017,0.221l-0.017,0.034c0,0-1.171-0.102-2.308-0.102C3.12,13.1,3.111,13.974,3.111,14.118v0.662
			c1.001,0,1.392-0.042,1.892-0.084l0.025,0.025c-0.017,0.076-0.025,0.195-0.025,0.271c0,0.076,0.008,0.195,0.025,0.271
			l-0.025,0.025c-0.585-0.06-1.485-0.085-1.892-0.085v0.993C3.111,16.341,3.12,17.215,3.179,17.418z"/>
		<path fill="#010101" d="M6.265,14.229c0.136,0.019,0.356,0.025,0.492,0.025c0.144,0,0.311-0.007,0.458-0.025
			c0.285,0.473,0.518,0.923,0.858,1.386c0.358-0.463,0.624-0.914,0.949-1.386c0.089,0.019,0.221,0.025,0.314,0.025
			c0.085,0,0.274-0.007,0.382-0.025L8.326,15.94c0.458,0.663,0.871,1.316,1.384,1.979c-0.131-0.014-0.356-0.025-0.483-0.025
			c-0.136,0-0.31,0.007-0.433,0.025c-0.309-0.486-0.56-0.95-0.899-1.426c-0.339,0.476-0.592,0.94-0.916,1.426
			c-0.087-0.015-0.289-0.025-0.374-0.025s-0.222,0.01-0.305,0.025l1.328-1.78L6.265,14.229z"/>
		<path fill="#010101" d="M10.76,13.168l0.017-0.025c0.276-0.038,0.381-0.127,0.594-0.212c0.054,0,0.076,0.023,0.076,0.084
			c-0.038,0.492-0.042,0.604-0.042,1.239h0.398c0.195,0,0.441-0.011,0.594-0.017l0.042,0.06c-0.051,0.125-0.076,0.212-0.102,0.348
			c-0.113-0.011-0.407-0.017-0.611-0.017h-0.322v1.069c0,0.509-0.025,0.874-0.025,1.128c0,0.459,0.079,0.663,0.28,0.696
			c0.212,0.034,0.407,0.025,0.667-0.065l0.104,0.209c-0.356,0.229-0.628,0.314-0.984,0.314c-0.39,0-0.746-0.263-0.746-0.814
			c0-0.255,0.025-0.865,0.025-1.375v-1.162c-0.194,0-0.457,0.006-0.603,0.017l-0.042-0.059c0.083-0.127,0.13-0.209,0.187-0.348
			c0.105,0.014,0.284,0.016,0.458,0.017C10.726,13.762,10.743,13.462,10.76,13.168z"/>
		<path fill="#010101" d="M13.915,12.396c0.229,0,0.433,0.204,0.433,0.433s-0.204,0.433-0.433,0.433s-0.433-0.204-0.433-0.433
			S13.686,12.396,13.915,12.396z M13.49,14.254l0.017-0.025c0.18,0.015,0.545,0.011,0.738-0.008c0.066,0,0.076,0.008,0.076,0.084
			c-0.055,0.518-0.076,0.823-0.076,1.459v0.602c0,0.645,0.015,1.045,0.076,1.527l-0.017,0.025c-0.102-0.017-0.297-0.025-0.398-0.025
			c-0.102,0-0.297,0.008-0.399,0.025l-0.017-0.025c0.061-0.458,0.077-0.891,0.077-1.527V15.9
			C13.567,15.264,13.544,14.617,13.49,14.254z"/>
		<path fill="#010101" d="M18.987,17.894l-0.017,0.025c-0.102-0.017-0.297-0.025-0.399-0.025c-0.102,0-0.297,0.008-0.398,0.025
			l-0.017-0.025c0.061-0.457,0.077-0.891,0.077-1.527v-0.831c0-0.688-0.178-0.857-0.611-0.857c-0.305,0-0.797,0.187-1.23,0.696
			v0.992c0,0.645,0.008,1.044,0.077,1.527l-0.017,0.025c-0.102-0.017-0.297-0.025-0.399-0.025c-0.102,0-0.297,0.008-0.398,0.025
			l-0.017-0.025c0.068-0.458,0.076-0.891,0.076-1.527V15.9c0-0.636-0.017-1.279-0.076-1.646l0.017-0.025
			c0.192,0.02,0.496,0.013,0.687-0.025c0.04,0,0.049,0.02,0.051,0.085v0.619l0.017,0.025c0.543-0.636,1.146-0.764,1.468-0.764
			c0.764,0,1.052,0.458,1.052,1.341c0,0.271-0.017,0.585-0.017,0.856C18.911,17.011,18.92,17.41,18.987,17.894z"/>
		<path fill="#010101" d="M20.418,13.168l0.017-0.025c0.276-0.038,0.381-0.127,0.594-0.212c0.054,0,0.077,0.023,0.077,0.084
			c-0.039,0.492-0.042,0.604-0.042,1.239h0.398c0.195,0,0.441-0.011,0.594-0.017l0.042,0.06c-0.051,0.125-0.076,0.212-0.102,0.348
			c-0.113-0.011-0.407-0.017-0.611-0.017h-0.322v1.069c0,0.509-0.026,0.874-0.026,1.128c0,0.459,0.079,0.663,0.28,0.696
			c0.212,0.034,0.407,0.025,0.667-0.065l0.104,0.209c-0.356,0.229-0.628,0.314-0.984,0.314c-0.391,0-0.747-0.263-0.747-0.814
			c0-0.255,0.026-0.865,0.026-1.375v-1.162c-0.194,0-0.457,0.006-0.603,0.017l-0.042-0.059c0.083-0.127,0.13-0.209,0.187-0.348
			c0.105,0.014,0.284,0.016,0.458,0.017C20.385,13.762,20.401,13.462,20.418,13.168z"/>
		<path fill="#010101" d="M24.617,14.169c1.146,0,1.765,0.755,1.765,1.909c0,1.111-0.679,1.9-1.798,1.9
			c-1.128,0-1.799-0.806-1.799-1.824C22.784,14.95,23.505,14.169,24.617,14.169z M23.531,16.01c0,0.653,0.229,1.629,1.128,1.629
			c0.568,0,0.976-0.602,0.976-1.409c0-1.026-0.178-1.722-1.077-1.722C23.76,14.508,23.531,15.272,23.531,16.01z"/>
	</g>
	
		<line fill="none" stroke="#010101" stroke-linecap="round" stroke-linejoin="round" stroke-miterlimit="10" x1="13.5" y1="20" x2="13.5" y2="26"/>
	
		<line fill="none" stroke="#010101" stroke-linecap="round" stroke-linejoin="round" stroke-miterlimit="10" x1="174.5" y1="21" x2="174.5" y2="26"/>
</g>
</svg>
