<?xml version="1.0" encoding="utf-8"?>
<!-- Generator: Adobe Illustrator 15.0.0, SVG Export Plug-In . SVG Version: 6.00 Build 0)  -->
<!DOCTYPE svg PUBLIC "-//W3C//DTD SVG 1.1//EN" "http://www.w3.org/Graphics/SVG/1.1/DTD/svg11.dtd">
<svg version="1.1" id="Layer_1" xmlns="http://www.w3.org/2000/svg" xmlns:xlink="http://www.w3.org/1999/xlink" x="0px" y="0px"
	 width="705.036px" height="162.59px" viewBox="0 0 705.036 162.59" enable-background="new 0 0 705.036 162.59"
	 xml:space="preserve">
<path id="path13406_2_" fill="#FFFFFF" stroke="#000000" stroke-linecap="round" d="M160.892,121.426
	c0,17.695-14.344,32.041-32.042,32.041c-17.696,0-32.041-14.346-32.041-32.041c0-17.696,14.345-32.041,32.041-32.041
	C146.548,89.385,160.892,103.729,160.892,121.426L160.892,121.426z"/>
<path id="text13438_2_" d="M104.964,132.223v-21.594h16.485v3.651h-11.996v4.788h11.161v3.638h-11.161v5.876h12.421v3.641H104.964z
	 M128.866,132.223l-5.309-21.594h4.596l3.351,14.83l4.064-14.83h5.339l3.898,15.082l3.413-15.082h4.519l-5.4,21.594h-4.76
	l-4.428-16.146l-4.413,16.146H128.866z"/>
<path id="path13412_2_" fill="#FFFFFF" stroke="#000000" stroke-linecap="round" d="M486.92,121.426
	c0,17.695-14.352,32.041-32.047,32.041s-32.041-14.346-32.041-32.041c0-17.696,14.346-32.041,32.041-32.041
	S486.92,103.729,486.92,121.426L486.92,121.426z"/>
<path id="text13426_2_" stroke="#000000" d="M442.442,132.058l-7.961-21.632h4.879l5.633,16.007l5.456-16.007h4.771l-7.979,21.632
	H442.442z M457.512,110.426h4.498v11.714c0,1.858,0.059,3.063,0.166,3.615c0.193,0.886,0.65,1.595,1.377,2.13
	c0.721,0.538,1.711,0.805,2.969,0.805c1.275,0,2.24-0.253,2.885-0.759c0.65-0.505,1.039-1.13,1.174-1.866
	c0.129-0.738,0.197-1.965,0.197-3.675v-11.964h4.493v11.358c0,2.599-0.118,4.433-0.361,5.504c-0.247,1.073-0.693,1.977-1.345,2.714
	c-0.656,0.74-1.527,1.327-2.619,1.768c-1.099,0.438-2.523,0.656-4.287,0.656c-2.126,0-3.74-0.24-4.838-0.717
	c-1.097-0.477-1.969-1.099-2.604-1.861c-0.64-0.764-1.061-1.562-1.265-2.396c-0.29-1.239-0.44-3.068-0.44-5.489V110.426z"/>
<path id="path13410_2_" fill="#FFFFFF" stroke="#000000" stroke-linecap="round" d="M405.411,121.426
	c0,17.695-14.344,32.041-32.041,32.041c-17.696,0-32.042-14.346-32.042-32.041c0-17.696,14.346-32.041,32.042-32.041
	C391.067,89.385,405.411,103.729,405.411,121.426L405.411,121.426z"/>
<path id="text13430_2_" stroke="#000000" d="M353.794,132.426v-22h16.794v3.72h-12.221v4.878h11.373v3.706h-11.373v5.985h12.654
	v3.711H353.794z M374.977,132.426v-22h4.448l9.271,14.689v-14.689h4.249v22h-4.587l-9.134-14.35v14.35H374.977z"/>
<path id="path13408_2_" fill="#FF0000" stroke="#FF0000" stroke-linecap="round" d="M323.905,121.426
	c0,17.695-14.347,32.041-32.042,32.041s-32.041-14.346-32.041-32.041c0-17.696,14.345-32.041,32.041-32.041
	S323.905,103.729,323.905,121.426L323.905,121.426z"/>
<path id="text13442_2_" stroke="#000000" d="M285.357,124.239l4.288,1.323c-0.658,2.32-1.752,4.045-3.281,5.172
	c-1.529,1.129-3.469,1.691-5.819,1.691c-2.91,0-5.299-0.965-7.172-2.895c-1.873-1.932-2.81-4.57-2.81-7.916
	c0-3.543,0.94-6.292,2.824-8.25c1.884-1.961,4.359-2.939,7.425-2.939c2.68,0,4.857,0.771,6.53,2.307
	c0.996,0.91,1.744,2.215,2.24,3.919l-4.377,1.016c-0.258-1.103-0.799-1.974-1.621-2.61c-0.822-0.641-1.821-0.959-2.994-0.959
	c-1.625,0-2.943,0.564-3.954,1.697c-1.01,1.132-1.516,2.965-1.516,5.5c0,2.691,0.499,4.606,1.495,5.746
	c0.995,1.143,2.29,1.712,3.884,1.712c1.175,0,2.188-0.362,3.033-1.087C284.381,126.941,284.987,125.798,285.357,124.239
	L285.357,124.239z M293.47,132.064v-21.275h9.309c2.34,0,4.042,0.189,5.104,0.574c1.06,0.381,1.909,1.061,2.546,2.037
	c0.638,0.979,0.956,2.096,0.956,3.352c0,1.598-0.482,2.916-1.448,3.955c-0.967,1.039-2.411,1.695-4.333,1.967
	c0.956,0.541,1.746,1.137,2.367,1.785c0.624,0.648,1.462,1.799,2.519,3.452l2.674,4.153h-5.289l-3.197-4.633
	c-1.136-1.652-1.913-2.695-2.332-3.127c-0.419-0.431-0.861-0.725-1.331-0.883c-0.469-0.162-1.211-0.241-2.226-0.241h-0.896v8.884
	H293.47z M297.893,119.787h3.271c2.122,0,3.447-0.088,3.975-0.262c0.527-0.175,0.94-0.475,1.24-0.9
	c0.298-0.426,0.447-0.958,0.447-1.598c0-0.714-0.196-1.294-0.59-1.733c-0.392-0.438-0.949-0.716-1.666-0.833
	c-0.358-0.05-1.435-0.074-3.228-0.074h-3.451V119.787z"/>
<path id="path13404_7_" fill="#FFFFFF" stroke="#000000" stroke-linecap="round" d="M79.386,121.426
	c0,17.695-14.346,32.041-32.042,32.041c-17.696,0-32.042-14.346-32.042-32.041c0-17.696,14.346-32.041,32.042-32.041
	C65.041,89.385,79.386,103.729,79.386,121.426L79.386,121.426z"/>
<path id="text13434_5_" d="M27.766,132.223v-21.594h16.485v3.651H32.255v4.788h11.163v3.638H32.255v5.876h12.421v3.641H27.766z
	 M46.253,132.223l7.598-11.27l-6.885-10.324h5.248l4.458,6.936l4.368-6.936h5.201l-6.916,10.485l7.598,11.108h-5.414l-4.929-7.471
	l-4.943,7.471H46.253z"/>
<path id="path13414_6_" fill="#FFFFFF" stroke="#000000" stroke-linecap="round" d="M568.429,121.426
	c0,17.695-14.35,32.041-32.045,32.041s-32.041-14.346-32.041-32.041c0-17.696,14.346-32.041,32.041-32.041
	S568.429,103.729,568.429,121.426L568.429,121.426z"/>
<path id="text1899_2_" stroke="#000000" d="M516.789,132.426v-22h4.447l9.269,14.689v-14.689h4.252v22h-4.591l-9.133-14.35v14.35
	H516.789z M544.704,132.426v-18.28h-6.72v-3.72h18.001v3.72h-6.709v18.28H544.704z"/>
<path id="path2072_2_" fill="#FFFFFF" stroke="#000000" stroke-linecap="round" d="M649.938,121.426
	c0,17.695-14.344,32.041-32.041,32.041c-17.695,0-32.045-14.346-32.045-32.041c0-17.696,14.35-32.041,32.045-32.041
	C635.594,89.385,649.938,103.729,649.938,121.426L649.938,121.426z"/>
<path id="text3021_2_" stroke="#000000" d="M599.45,132.064v-21.102h4.418v17.515h11v3.587H599.45z M632.049,124.239l4.291,1.323
	c-0.66,2.32-1.75,4.045-3.279,5.172c-1.529,1.129-3.473,1.691-5.822,1.691c-2.908,0-5.301-0.965-7.174-2.895
	c-1.867-1.932-2.805-4.57-2.805-7.916c0-3.543,0.941-6.292,2.82-8.25c1.883-1.961,4.359-2.939,7.43-2.939
	c2.678,0,4.852,0.771,6.527,2.307c0.996,0.91,1.742,2.215,2.24,3.919l-4.377,1.016c-0.258-1.103-0.799-1.974-1.619-2.61
	c-0.824-0.641-1.818-0.959-3-0.959c-1.617,0-2.936,0.564-3.953,1.697c-1.01,1.132-1.514,2.965-1.514,5.5
	c0,2.691,0.498,4.606,1.494,5.746c1,1.143,2.291,1.712,3.883,1.712c1.18,0,2.191-0.362,3.039-1.087
	C631.077,126.941,631.684,125.798,632.049,124.239L632.049,124.239z"/>
<path id="path13404_6_" fill="#FFFFFF" stroke="#000000" stroke-linecap="round" d="M242.398,121.426
	c0,17.697-14.346,32.041-32.042,32.041c-17.696,0-32.042-14.344-32.042-32.041c0-17.695,14.346-32.041,32.042-32.041
	C228.052,89.385,242.398,103.73,242.398,121.426L242.398,121.426z"/>
<g>
	<path id="text13434_4_" d="M213.625,132.363v-21.938h16.749v3.711h-12.189v4.861h11.342v3.699h-11.342v5.971h12.62v3.695H213.625z"
		/>
	<g>
		<path d="M189.908,132.426v-22h9.349c2.351,0,4.059,0.198,5.124,0.594c1.065,0.395,1.918,1.098,2.559,2.107
			c0.64,1.012,0.96,2.166,0.96,3.467c0,1.65-0.485,3.014-1.456,4.089c-0.971,1.075-2.421,1.753-4.352,2.033
			c0.96,0.561,1.753,1.176,2.379,1.846c0.625,0.671,1.467,1.86,2.528,3.571l2.686,4.293h-5.312l-3.211-4.789
			c-1.141-1.71-1.92-2.787-2.34-3.232c-0.42-0.445-0.866-0.75-1.335-0.916c-0.471-0.165-1.216-0.247-2.236-0.247h-0.9v9.185H189.908
			z M194.35,119.729h3.286c2.131,0,3.461-0.09,3.992-0.27c0.53-0.181,0.945-0.49,1.245-0.931c0.3-0.44,0.451-0.99,0.451-1.65
			c0-0.74-0.198-1.338-0.593-1.793c-0.396-0.455-0.953-0.743-1.673-0.863c-0.36-0.05-1.44-0.075-3.241-0.075h-3.466V119.729z"/>
	</g>
</g>
<text transform="matrix(-4.436700e-005 0.2958 -1 -1.400000e-004 315.0742 57.8477)" font-family="'LinLibertine'" font-size="245.3364">{</text>
<text transform="matrix(1 0 0 1 305.0503 51.1597)" font-family="'LinBiolinum'" font-size="30">Amenazado</text>
<text transform="matrix(1 0 0 1 532.7222 28.9375)"><tspan x="0" y="0" font-family="'LinBiolinum'" font-size="30">Preocupación</tspan><tspan x="43.646" y="24" font-family="'LinBiolinum'" font-size="30">menor</tspan></text>
<text transform="matrix(1 0 0 1 2.791 53.6284)" font-family="'LinBiolinum'" font-size="30">Extinto</text>
<line fill="none" stroke="#000000" stroke-width="2" stroke-linecap="round" stroke-linejoin="round" stroke-miterlimit="10" x1="46.655" y1="61.432" x2="46.655" y2="81.432"/>
<line fill="none" stroke="#000000" stroke-width="2" stroke-linecap="round" stroke-linejoin="round" stroke-miterlimit="10" x1="615.655" y1="62.432" x2="615.655" y2="82.432"/>
</svg>
