<?xml version="1.0" encoding="utf-8"?>
<!-- Generator: Adobe Illustrator 16.0.0, SVG Export Plug-In . SVG Version: 6.00 Build 0)  -->
<!DOCTYPE svg PUBLIC "-//W3C//DTD SVG 1.1//EN" "http://www.w3.org/Graphics/SVG/1.1/DTD/svg11.dtd">
<svg version="1.1" id="Layer_1" xmlns="http://www.w3.org/2000/svg" xmlns:xlink="http://www.w3.org/1999/xlink" x="0px" y="0px"
	 width="696.932px" height="149.899px" viewBox="0 0 696.932 149.899" enable-background="new 0 0 696.932 149.899"
	 xml:space="preserve">
<path id="path13406_1_" fill="#FFFFFF" stroke="#000000" stroke-linecap="round" d="M158.101,117.358
	c0,17.695-14.344,32.041-32.042,32.041c-17.696,0-32.041-14.346-32.041-32.041c0-17.696,14.345-32.041,32.041-32.041
	C143.757,85.317,158.101,99.662,158.101,117.358L158.101,117.358z"/>
<path id="text13438_1_" stroke="#000000" stroke-miterlimit="10" d="M102.173,128.155v-21.594h16.485v3.651h-11.996V115h11.161
	v3.638h-11.161v5.876h12.421v3.641H102.173z M126.075,128.155l-5.309-21.594h4.596l3.351,14.83l4.064-14.83h5.339l3.898,15.082
	l3.413-15.082h4.519l-5.4,21.594h-4.76l-4.428-16.146l-4.413,16.146H126.075z"/>
<path id="path13412_1_" fill="#FFFFFF" stroke="#000000" stroke-linecap="round" d="M484.129,117.358
	c0,17.695-14.352,32.041-32.047,32.041s-32.041-14.346-32.041-32.041c0-17.696,14.346-32.041,32.041-32.041
	S484.129,99.662,484.129,117.358L484.129,117.358z"/>
<path id="text13426_1_" stroke="#000000" d="M439.651,127.99l-7.961-21.632h4.879l5.633,16.007l5.456-16.007h4.771l-7.979,21.632
	H439.651z M454.721,106.358h4.498v11.714c0,1.858,0.059,3.063,0.166,3.615c0.193,0.886,0.65,1.595,1.377,2.13
	c0.721,0.538,1.711,0.805,2.969,0.805c1.275,0,2.24-0.253,2.885-0.759c0.65-0.505,1.039-1.13,1.174-1.866
	c0.129-0.738,0.197-1.965,0.197-3.675v-11.964h4.493v11.358c0,2.599-0.118,4.433-0.361,5.504c-0.247,1.073-0.693,1.977-1.345,2.714
	c-0.656,0.74-1.527,1.327-2.619,1.768c-1.099,0.438-2.523,0.656-4.287,0.656c-2.126,0-3.74-0.24-4.838-0.717
	c-1.097-0.477-1.969-1.099-2.604-1.861c-0.64-0.764-1.061-1.562-1.265-2.396c-0.29-1.239-0.44-3.068-0.44-5.489V106.358z"/>
<path id="path13410_1_" fill="#FFFFFF" stroke="#000000" stroke-linecap="round" d="M402.62,117.358
	c0,17.695-14.344,32.041-32.041,32.041c-17.696,0-32.042-14.346-32.042-32.041c0-17.696,14.346-32.041,32.042-32.041
	C388.276,85.317,402.62,99.662,402.62,117.358L402.62,117.358z"/>
<path id="text13430_1_" stroke="#000000" d="M351.003,128.358v-22h16.794v3.72h-12.221v4.878h11.373v3.706h-11.373v5.985h12.654
	v3.711H351.003z M372.186,128.358v-22h4.448l9.271,14.689v-14.689h4.249v22h-4.587l-9.134-14.35v14.35H372.186z"/>
<path id="path13408_1_" fill="#FFFFFF" stroke="#000000" stroke-linecap="round" d="M321.114,117.358
	c0,17.695-14.347,32.041-32.042,32.041s-32.041-14.346-32.041-32.041c0-17.696,14.345-32.041,32.041-32.041
	S321.114,99.662,321.114,117.358L321.114,117.358z"/>
<path id="text13442_1_" stroke="#000000" d="M282.566,120.171l4.288,1.323c-0.658,2.32-1.752,4.045-3.281,5.172
	c-1.529,1.129-3.469,1.691-5.819,1.691c-2.91,0-5.299-0.965-7.172-2.895c-1.873-1.932-2.81-4.57-2.81-7.916
	c0-3.543,0.94-6.292,2.824-8.25c1.884-1.961,4.359-2.939,7.425-2.939c2.68,0,4.857,0.771,6.53,2.307
	c0.996,0.91,1.744,2.215,2.24,3.919l-4.377,1.016c-0.258-1.103-0.799-1.974-1.621-2.61c-0.822-0.641-1.821-0.959-2.994-0.959
	c-1.625,0-2.943,0.564-3.954,1.697c-1.01,1.132-1.516,2.965-1.516,5.5c0,2.691,0.499,4.606,1.495,5.746
	c0.995,1.143,2.29,1.712,3.884,1.712c1.175,0,2.188-0.362,3.033-1.087C281.59,122.874,282.196,121.73,282.566,120.171
	L282.566,120.171z M290.679,127.997v-21.275h9.309c2.34,0,4.042,0.189,5.104,0.574c1.06,0.381,1.909,1.061,2.546,2.037
	c0.638,0.979,0.956,2.096,0.956,3.352c0,1.598-0.482,2.916-1.448,3.955c-0.967,1.039-2.411,1.695-4.333,1.967
	c0.956,0.541,1.746,1.137,2.367,1.785c0.624,0.648,1.462,1.799,2.519,3.452l2.674,4.153h-5.289l-3.197-4.633
	c-1.136-1.652-1.913-2.695-2.332-3.127c-0.419-0.431-0.861-0.725-1.331-0.883c-0.469-0.162-1.211-0.241-2.226-0.241h-0.896v8.884
	H290.679z M295.102,115.719h3.271c2.122,0,3.447-0.088,3.975-0.262c0.527-0.175,0.94-0.475,1.24-0.9
	c0.298-0.426,0.447-0.958,0.447-1.598c0-0.714-0.196-1.294-0.59-1.733c-0.392-0.438-0.949-0.716-1.666-0.833
	c-0.358-0.05-1.435-0.074-3.228-0.074h-3.451V115.719z"/>
<g>
	<path id="path13404_5_" fill="#1A171B" stroke="#1A171B" stroke-linecap="round" d="M76.595,117.358
		c0,17.695-14.346,32.041-32.042,32.041c-17.696,0-32.042-14.346-32.042-32.041c0-17.696,14.346-32.041,32.042-32.041
		C62.25,85.317,76.595,99.662,76.595,117.358L76.595,117.358z"/>
	<path id="text13434_3_" fill="#FFFFFF" d="M24.975,128.155v-21.594H41.46v3.651H29.464V115h11.163v3.638H29.464v5.876h12.421v3.641
		H24.975z M43.462,128.155l7.598-11.27l-6.885-10.324h5.248l4.458,6.936l4.368-6.936h5.201l-6.916,10.485l7.598,11.108h-5.414
		l-4.929-7.471l-4.943,7.471H43.462z"/>
</g>
<path id="path13414_5_" fill="#FFFFFF" stroke="#000000" stroke-linecap="round" d="M565.638,117.358
	c0,17.695-14.35,32.041-32.045,32.041s-32.041-14.346-32.041-32.041c0-17.696,14.346-32.041,32.041-32.041
	S565.638,99.662,565.638,117.358L565.638,117.358z"/>
<path id="text1899_1_" stroke="#000000" d="M513.998,128.358v-22h4.447l9.269,14.689v-14.689h4.252v22h-4.591l-9.133-14.35v14.35
	H513.998z M541.913,128.358v-18.28h-6.72v-3.72h18.001v3.72h-6.709v18.28H541.913z"/>
<path id="path2072_1_" fill="#FFFFFF" stroke="#000000" stroke-linecap="round" d="M647.147,117.358
	c0,17.695-14.344,32.041-32.041,32.041c-17.695,0-32.045-14.346-32.045-32.041c0-17.696,14.35-32.041,32.045-32.041
	C632.803,85.317,647.147,99.662,647.147,117.358L647.147,117.358z"/>
<path id="text3021_1_" stroke="#000000" d="M596.659,127.997v-21.102h4.418v17.515h11v3.587H596.659z M629.258,120.171l4.291,1.323
	c-0.66,2.32-1.75,4.045-3.279,5.172c-1.529,1.129-3.473,1.691-5.822,1.691c-2.908,0-5.301-0.965-7.174-2.895
	c-1.867-1.932-2.805-4.57-2.805-7.916c0-3.543,0.941-6.292,2.82-8.25c1.883-1.961,4.359-2.939,7.43-2.939
	c2.678,0,4.852,0.771,6.527,2.307c0.996,0.91,1.742,2.215,2.24,3.919l-4.377,1.016c-0.258-1.103-0.799-1.974-1.619-2.61
	c-0.824-0.641-1.818-0.959-3-0.959c-1.617,0-2.936,0.564-3.953,1.697c-1.01,1.132-1.514,2.965-1.514,5.5
	c0,2.691,0.498,4.606,1.494,5.746c1,1.143,2.291,1.712,3.883,1.712c1.18,0,2.191-0.362,3.039-1.087
	C628.286,122.874,628.893,121.73,629.258,120.171L629.258,120.171z"/>
<path id="path13404_4_" fill="#FFFFFF" stroke="#000000" stroke-linecap="round" d="M239.607,117.358
	c0,17.697-14.346,32.041-32.042,32.041c-17.696,0-32.042-14.344-32.042-32.041c0-17.695,14.346-32.041,32.042-32.041
	C225.261,85.317,239.607,99.663,239.607,117.358L239.607,117.358z"/>
<g>
	<path id="text13434_2_" stroke="#000000" stroke-miterlimit="10" d="M210.833,128.295v-21.938h16.749v3.711h-12.189v4.861h11.342
		v3.699h-11.342v5.971h12.62v3.695H210.833z"/>
	<g>
		<path stroke="#000000" stroke-miterlimit="10" d="M187.117,128.358v-22h9.349c2.351,0,4.059,0.198,5.124,0.594
			c1.065,0.395,1.918,1.098,2.559,2.107c0.64,1.012,0.96,2.166,0.96,3.467c0,1.65-0.485,3.014-1.456,4.089
			c-0.971,1.075-2.421,1.753-4.352,2.033c0.96,0.561,1.753,1.176,2.379,1.846c0.625,0.671,1.467,1.86,2.528,3.571l2.686,4.293
			h-5.312l-3.211-4.789c-1.141-1.71-1.92-2.787-2.34-3.232c-0.42-0.445-0.866-0.75-1.335-0.916
			c-0.471-0.165-1.216-0.247-2.236-0.247h-0.9v9.185H187.117z M191.559,115.662h3.286c2.131,0,3.461-0.09,3.992-0.27
			c0.53-0.181,0.945-0.49,1.245-0.931c0.3-0.44,0.451-0.99,0.451-1.65c0-0.74-0.198-1.338-0.593-1.793
			c-0.396-0.455-0.953-0.743-1.673-0.863c-0.36-0.05-1.44-0.075-3.241-0.075h-3.466V115.662z"/>
	</g>
</g>
<g>
	<path d="M406.979,67.291c-21.834,0.309-28.899-2.747-33.609-7.624l-0.981,0c-6.919,4.919-16.61,7.937-36.801,7.615l-36.555-0.586
		c-20.607-0.329-32.874,2.608-32.875,5.801c-1.473,0.436-4.417,0.435-5.888-0.001c0.001-7.33,8.098-11.392,39.991-11.025
		l41.706,0.441c14.965,0.147,25.76-1.774,27.969-7.108c1.962-0.581,3.68-0.653,5.888,0c1.716,5.371,14.964,7.114,27.231,7.116
		l45.141-0.429c27.723-0.286,37.535,4.505,37.533,11.036c-1.472,0.436-4.416,0.435-5.887-0.001
		c-2.699-2.758-6.895-6.169-32.139-5.81L406.979,67.291z"/>
</g>
<g>
	<path d="M305.139,47.182c-0.36-0.09-1.02-0.09-1.35-0.09s-0.69,0-1.05,0.09c3.03-6.629,5.97-13.169,8.85-19.829h0.84
		c2.76,6.57,6.72,16.799,8.22,19.829c-0.51-0.09-1.29-0.09-1.8-0.09s-0.99,0-1.5,0.09c-0.183-0.666-0.861-3.006-2.331-6.938
		c-0.729-0.051-2.379-0.081-3.519-0.081c-1.035,0-3.12,0.03-3.87,0.081C306.558,42.868,305.631,45.343,305.139,47.182z
		 M311.439,31.438h-0.06l-3.162,7.376c0.66,0.036,2.265,0.087,3.132,0.087c0.891,0,2.139-0.03,3.128-0.075
		C313.671,36.736,312.672,34.271,311.439,31.438z"/>
	<path d="M326.079,36.622c1.41-1.5,3.18-2.7,5.04-2.7c1.68,0,2.91,0.93,3.18,2.37c1.71-1.8,3.45-2.37,5.07-2.37
		c3.24,0,3.72,2.1,3.72,4.77v3c0,2.28,0.03,3.69,0.27,5.4l-0.06,0.09c-0.36-0.06-1.05-0.09-1.41-0.09c-0.36,0-1.05,0.03-1.41,0.09
		l-0.06-0.09c0.24-1.62,0.27-3.15,0.27-5.4v-3.3c0-2.01-0.78-2.67-2.4-2.67c-1.17,0-2.37,0.21-3.81,1.8
		c0.03,0.36,0.03,0.72,0.03,1.14v3.03c0,2.28,0.03,3.69,0.27,5.4l-0.06,0.09c-0.36-0.06-1.05-0.09-1.41-0.09
		c-0.36,0-1.05,0.03-1.41,0.09l-0.06-0.09c0.24-1.62,0.27-3.15,0.27-5.4v-3.3c0-2.01-0.84-2.67-1.98-2.67
		c-1.05,0-2.73,0.9-4.14,2.34v3.63c0,2.28,0.03,3.69,0.27,5.4l-0.06,0.09c-0.36-0.06-1.05-0.09-1.41-0.09
		c-0.36,0-1.05,0.03-1.41,0.09l-0.06-0.09c0.24-1.62,0.27-3.15,0.27-5.4v-1.65c0-2.25-0.06-4.521-0.27-5.82l0.06-0.09
		c0.681,0.069,1.755,0.045,2.43-0.09c0.141,0,0.18,0.069,0.18,0.3v2.19L326.079,36.622z"/>
	<path d="M357.698,44.722c-1.14,1.56-3.06,2.67-5.22,2.67c-2.022,0-3.738-0.741-4.77-1.98c-1.005-1.206-1.35-2.889-1.35-4.589
		c0-4.41,3.06-6.9,6.15-6.9c3.959,0,5.189,3.15,5.189,5.67c0,0.33-0.21,0.51-0.54,0.51h-8.16c0,1.743,0.192,2.967,0.72,3.81
		c0.825,1.32,2.244,1.71,3.27,1.71c1.65,0,3.06-0.51,4.11-1.65L357.698,44.722z M354.608,38.902c0.3,0,0.42-0.15,0.42-0.42
		c0-2.25-1.335-3.36-2.52-3.36c-0.945,0-2.91,0.66-3.42,3.78H354.608z"/>
	<path d="M372.998,47.092l-0.06,0.09c-0.36-0.06-1.05-0.09-1.41-0.09c-0.36,0-1.05,0.03-1.41,0.09l-0.06-0.09
		c0.216-1.614,0.27-3.15,0.27-5.4v-2.94c0-2.43-0.63-3.03-2.16-3.03c-1.08,0-2.82,0.66-4.35,2.46v3.51c0,2.28,0.03,3.69,0.27,5.4
		l-0.06,0.09c-0.36-0.06-1.05-0.09-1.41-0.09s-1.05,0.03-1.41,0.09l-0.06-0.09c0.24-1.62,0.27-3.15,0.27-5.4v-1.65
		c0-2.25-0.06-4.521-0.27-5.82l0.06-0.09c0.681,0.069,1.755,0.045,2.43-0.09c0.141,0,0.174,0.069,0.18,0.3v2.19l0.06,0.09
		c1.92-2.25,4.05-2.7,5.19-2.7c2.7,0,3.72,1.62,3.72,4.74c0,0.96-0.06,2.07-0.06,3.03C372.728,43.972,372.764,45.382,372.998,47.092
		z"/>
	<path d="M384.278,45.652c-1.59,1.35-2.43,1.74-4.08,1.74c-2.22,0-3.75-1.02-3.75-3.24c0-2.04,1.92-3.66,4.979-4.35l2.79-0.63
		c0.09-0.03,0.21-0.15,0.21-0.36c0-3.39-1.8-3.54-2.88-3.54c-1.44,0-2.46,1.2-3.3,2.55l-0.39-0.03l-0.51-2.01l0.09-0.12
		c0.75-0.63,2.13-1.74,4.41-1.74c2.28,0,4.95,0.81,4.95,4.86c0,0.33-0.084,3.66-0.084,4.53c0,1.335,0.195,2.061,0.501,2.34
		c0.183,0.168,0.582,0.225,0.879,0.225c0.228,0,0.483-0.042,0.81-0.156l0.222,0.741c-0.708,0.75-1.632,0.93-2.388,0.93
		c-1.098,0-1.995-0.567-2.337-1.74H384.278z M381.848,41.032c-2.34,0.63-2.97,1.65-2.97,3c0,0.93,0.87,1.83,2.22,1.83
		c0.9,0,1.92-0.54,2.76-1.17c0.24-0.18,0.42-0.39,0.42-0.78l0.12-3.57L381.848,41.032z"/>
	<path d="M401.108,45.412l0.06,0.09c-0.03,0.24-0.06,0.51-0.06,0.78s0.029,0.42,0.06,0.81l-0.06,0.09
		c-0.451-0.06-1.08-0.09-1.681-0.09h-6.78c-0.854,0-2.43,0.09-2.43,0.09l-0.09-0.135c0.24-0.276,0.42-0.555,0.66-0.915l7.05-10.551
		c-3.438,0.048-6.84,0.321-6.84,0.321l-0.06-0.09c0.03-0.24,0.06-0.51,0.06-0.78s-0.03-0.42-0.06-0.81l0.06-0.09
		c0.45,0.06,1.08,0.09,1.68,0.09h6.12c0.87,0,2.271-0.189,2.421-0.189c0.12,0,0.159,0.069,0.159,0.189
		c-0.18,0.21-0.391,0.498-0.9,1.26l-6.873,10.259C397.252,45.721,401.108,45.412,401.108,45.412z"/>
	<path d="M411.187,45.652c-1.59,1.35-2.431,1.74-4.08,1.74c-2.22,0-3.749-1.02-3.749-3.24c0-2.04,1.92-3.66,4.979-4.35l2.791-0.63
		c0.09-0.03,0.209-0.15,0.209-0.36c0-3.39-1.799-3.54-2.879-3.54c-1.44,0-2.461,1.2-3.301,2.55l-0.39-0.03l-0.51-2.01l0.09-0.12
		c0.75-0.63,2.13-1.74,4.409-1.74c2.281,0,4.951,0.81,4.951,4.86c0,0.33-0.084,3.66-0.084,4.53c0,1.335,0.194,2.061,0.5,2.34
		c0.184,0.168,0.582,0.225,0.879,0.225c0.229,0,0.483-0.042,0.811-0.156l0.222,0.741c-0.708,0.75-1.632,0.93-2.388,0.93
		c-1.098,0-1.995-0.567-2.337-1.74H411.187z M408.756,41.032c-2.34,0.63-2.969,1.65-2.969,3c0,0.93,0.869,1.83,2.219,1.83
		c0.9,0,1.92-0.54,2.761-1.17c0.239-0.18,0.42-0.39,0.42-0.78l0.12-3.57L408.756,41.032z"/>
	<path d="M423.397,47.392c-3.24,0-5.43-3-5.43-6.689c0-4.08,2.873-6.78,6.779-6.78c0.6,0,1.83,0.27,2.52,0.66v-1.95
		c0-2.28-0.039-4.509-0.27-5.79l0.061-0.09c1.215-0.09,1.856-0.3,2.609-0.6c0.189,0,0.27,0.09,0.27,0.3
		c-0.149,1.851-0.27,3.42-0.27,5.64v9.24c0,2.25,0.27,4.47,0.51,5.76l-0.061,0.09c-0.389-0.06-0.956-0.09-1.334-0.09
		c-0.436,0-0.637,0.039-1.035,0.09c-0.18,0-0.27-0.03-0.27-0.09l-0.15-1.74h-0.061C426.186,46.747,424.836,47.392,423.397,47.392z
		 M427.266,36.862c-0.72-1.14-1.439-1.74-2.85-1.74c-1.451,0-3.84,0.84-3.84,5.34c0,3.75,1.381,5.37,3,5.37
		c1.215,0,2.595-0.735,3.689-2.13V36.862z"/>
	<path d="M439.957,33.922c4.05,0,6.239,2.67,6.239,6.75c0,3.93-2.399,6.72-6.359,6.72c-3.99,0-6.359-2.85-6.359-6.45
		C433.477,36.682,436.027,33.922,439.957,33.922z M436.117,40.432c0,2.31,0.81,5.76,3.989,5.76c2.011,0,3.451-2.127,3.451-4.98
		c0-3.63-0.631-6.09-3.811-6.09C436.926,35.122,436.117,37.822,436.117,40.432z"/>
</g>
<g>
	<path d="M532.625,5.521l0.061-0.09c0.359,0.06,1.17,0.09,1.529,0.09c0.9,0,3.42-0.21,4.2-0.21c5.55,0,6.96,3.06,6.96,5.28
		c0,2.55-1.891,6-7.35,6c-1.051,0-1.86-0.09-2.521-0.3v2.58c0,2.25,0.06,4.29,0.3,6l-0.06,0.09c-0.36-0.06-1.17-0.09-1.53-0.09
		c-0.359,0-1.17,0.03-1.529,0.09l-0.061-0.09c0.24-1.62,0.301-3.75,0.301-6v-7.35C532.926,9.271,532.866,7.23,532.625,5.521z
		 M535.505,15c0.39,0.21,1.62,0.3,2.37,0.3c2.91,0,4.59-1.11,4.59-4.56c0-3.57-2.189-4.14-4.26-4.14c-2.16,0-2.7,0.45-2.7,1.32V15z"
		/>
	<path d="M551.674,14.91c1.32-2.28,2.19-3.21,3.811-3.21c0.54,0,0.57,0.06,1.08,0.21l0.119,0.12l-0.6,2.22l-0.24,0.06
		c-0.389-0.36-0.959-0.42-1.56-0.42c-0.569,0-1.245,0.381-1.68,1.05c-0.646,0.99-1.021,1.71-1.021,2.97v1.56
		c0,2.28,0.045,3.69,0.271,5.4l-0.06,0.09c-0.36-0.06-1.051-0.09-1.41-0.09c-0.36,0-1.051,0.03-1.41,0.09l-0.061-0.09
		c0.234-1.614,0.271-3.15,0.271-5.4v-1.65c0-2.25-0.06-4.521-0.271-5.82l0.061-0.09c0.682,0.069,1.755,0.045,2.43-0.09
		c0.141,0,0.18,0.069,0.18,0.3v2.73L551.674,14.91z"/>
	<path d="M569.344,22.5c-1.139,1.56-3.059,2.67-5.219,2.67c-2.022,0-3.738-0.741-4.77-1.98c-1.006-1.206-1.351-2.889-1.351-4.589
		c0-4.41,3.06-6.9,6.149-6.9c3.96,0,5.189,3.15,5.189,5.67c0,0.33-0.209,0.51-0.539,0.51h-8.16c0,1.743,0.192,2.967,0.721,3.81
		c0.824,1.32,2.243,1.71,3.27,1.71c1.65,0,3.06-0.51,4.109-1.65L569.344,22.5z M566.254,16.68c0.301,0,0.42-0.15,0.42-0.42
		c0-2.25-1.334-3.36-2.52-3.36c-0.945,0-2.91,0.66-3.42,3.78H566.254z"/>
	<path d="M578.405,11.7c4.049,0,6.239,2.67,6.239,6.75c0,3.93-2.399,6.72-6.36,6.72c-3.989,0-6.359-2.85-6.359-6.45
		C571.924,14.46,574.475,11.7,578.405,11.7z M574.565,18.21c0,2.31,0.81,5.76,3.989,5.76c2.011,0,3.45-2.127,3.45-4.98
		c0-3.63-0.631-6.09-3.811-6.09C575.375,12.9,574.565,15.6,574.565,18.21z"/>
	<path d="M589.774,18.18c0,3.51,1.71,5.49,3.9,5.49c1.115,0,2.069-0.24,3.209-1.26h0.121l0.569,0.63c-1.2,1.53-2.61,2.13-4.409,2.13
		c-3.66,0-6.03-2.667-6.03-6.839c0-4.08,3.27-6.63,6.39-6.63c1.5,0,3.06,0.36,3.99,0.84l0.06,0.09l-0.69,2.46l-0.39,0.03
		c-0.795-1.365-1.845-2.22-3-2.22C591.514,12.9,589.774,14.88,589.774,18.18z"/>
	<path d="M605.284,25.169c-2.971,0-3.93-2.1-3.93-4.169v-3.6c0-2.28-0.03-3.69-0.271-5.4l0.06-0.09c0.361,0.06,1.051,0.09,1.41,0.09
		c0.36,0,1.051-0.03,1.41-0.09l0.061,0.09c-0.24,1.59-0.271,3.15-0.271,5.4v2.97c0,2.79,0.976,3.12,2.011,3.12
		c1.469,0,3.194-1.605,4.109-3.15V17.4c0-2.28-0.036-3.684-0.27-5.4l0.059-0.09c0.361,0.06,1.051,0.09,1.41,0.09
		c0.36,0,1.051-0.03,1.41-0.09l0.061,0.09c-0.24,1.59-0.27,3.15-0.27,5.4v1.71c0,2.25,0.27,4.47,0.51,5.76l-0.061,0.09
		c-0.391-0.06-0.957-0.09-1.335-0.09c-0.435,0-0.786,0.039-1.185,0.09c-0.084,0-0.12-0.03-0.12-0.09l-0.15-2.67l-0.12-0.09
		C608.823,23.64,607.143,25.169,605.284,25.169z"/>
	<path d="M619.893,14.4c1.381-2.1,2.881-2.7,4.051-2.7c3.359,0,5.219,3.06,5.219,6.24c0,4.227-2.399,7.229-6.359,7.229
		c-1.08,0-2.189-0.24-2.97-0.66v1.32c0,2.256,0.054,4.29,0.271,6l-0.061,0.09c-0.359-0.06-1.05-0.09-1.41-0.09
		c-0.359,0-1.05,0.03-1.41,0.09l-0.06-0.09c0.216-1.614,0.271-3.765,0.271-6v-8.01c0-2.25-0.061-4.521-0.271-5.82l0.06-0.09
		c0.682,0.069,1.756,0.045,2.43-0.09c0.142,0,0.181,0.069,0.181,0.3v2.19L619.893,14.4z M619.833,22.62
		c1.05,1.23,2.31,1.35,2.79,1.35c3.209,0,3.899-3.18,3.899-5.64c0-3.39-1.05-5.25-3.09-5.25c-1.17,0-2.94,1.38-3.6,2.97V22.62z"/>
	<path d="M639.843,23.43c-1.59,1.35-2.431,1.74-4.08,1.74c-2.22,0-3.749-1.02-3.749-3.24c0-2.04,1.92-3.66,4.979-4.35l2.791-0.63
		c0.09-0.03,0.209-0.15,0.209-0.36c0-3.39-1.799-3.54-2.879-3.54c-1.44,0-2.461,1.2-3.301,2.55l-0.39-0.03l-0.51-2.01l0.09-0.12
		c0.75-0.63,2.13-1.74,4.409-1.74c2.281,0,4.951,0.81,4.951,4.86c0,0.33-0.084,3.66-0.084,4.53c0,1.335,0.194,2.061,0.5,2.34
		c0.184,0.168,0.582,0.225,0.879,0.225c0.229,0,0.483-0.042,0.811-0.156l0.222,0.741c-0.708,0.75-1.632,0.93-2.388,0.93
		c-1.098,0-1.995-0.567-2.337-1.74H639.843z M637.413,18.81c-2.34,0.63-2.969,1.65-2.969,3c0,0.93,0.869,1.83,2.219,1.83
		c0.9,0,1.92-0.54,2.761-1.17c0.239-0.18,0.42-0.39,0.42-0.78l0.12-3.57L637.413,18.81z"/>
	<path d="M648.873,18.18c0,3.51,1.71,5.49,3.899,5.49c1.116,0,2.07-0.24,3.211-1.26h0.119l0.57,0.63c-1.2,1.53-2.609,2.13-4.41,2.13
		c-3.66,0-6.029-2.667-6.029-6.839c0-4.08,3.27-6.63,6.39-6.63c1.5,0,3.06,0.36,3.989,0.84l0.061,0.09l-0.689,2.46l-0.391,0.03
		c-0.795-1.365-1.845-2.22-3-2.22C650.612,12.9,648.873,14.88,648.873,18.18z"/>
	<path d="M661.892,5.431c0.81,0,1.53,0.72,1.53,1.53s-0.721,1.53-1.53,1.53s-1.53-0.72-1.53-1.53S661.083,5.431,661.892,5.431z
		 M660.392,12l0.06-0.09c0.637,0.051,1.93,0.039,2.61-0.03c0.234,0,0.271,0.03,0.271,0.3c-0.195,1.83-0.271,2.91-0.271,5.16v2.13
		c0,2.28,0.054,3.696,0.271,5.4l-0.061,0.09c-0.359-0.06-1.05-0.09-1.41-0.09c-0.359,0-1.049,0.03-1.41,0.09l-0.06-0.09
		c0.216-1.62,0.271-3.15,0.271-5.4v-1.65C660.663,15.57,660.581,13.284,660.392,12z"/>
	<path d="M673.381,11.7c4.051,0,6.24,2.67,6.24,6.75c0,3.93-2.4,6.72-6.359,6.72c-3.99,0-6.359-2.85-6.359-6.45
		C666.903,14.46,669.452,11.7,673.381,11.7z M669.542,18.21c0,2.31,0.811,5.76,3.99,5.76c2.01,0,3.45-2.127,3.45-4.98
		c0-3.63-0.63-6.09-3.81-6.09C670.352,12.9,669.542,15.6,669.542,18.21z M674.583,4.681c0.191,0,0.959,0.03,1.649,0.69l0.09,0.33
		l-3.45,3.27c-0.449,0.45-0.689,0.57-0.899,0.57s-0.421-0.18-0.421-0.39c0-0.336,0.1-0.456,0.343-0.84l2.269-3.57
		C674.252,4.71,674.432,4.681,674.583,4.681z"/>
	<path d="M694.832,24.87l-0.06,0.09c-0.36-0.06-1.051-0.09-1.41-0.09s-1.051,0.03-1.41,0.09l-0.061-0.09
		c0.217-1.614,0.271-3.15,0.271-5.4v-2.94c0-2.43-0.63-3.03-2.159-3.03c-1.08,0-2.82,0.66-4.351,2.46v3.51
		c0,2.28,0.03,3.69,0.271,5.4l-0.061,0.09c-0.359-0.06-1.05-0.09-1.41-0.09c-0.359,0-1.049,0.03-1.41,0.09l-0.06-0.09
		c0.24-1.62,0.271-3.15,0.271-5.4v-1.65c0-2.25-0.061-4.521-0.271-5.82l0.06-0.09c0.682,0.069,1.756,0.045,2.431-0.09
		c0.141,0,0.174,0.069,0.18,0.3v2.19l0.06,0.09c1.92-2.25,4.051-2.7,5.19-2.7c2.7,0,3.72,1.62,3.72,4.74
		c0,0.96-0.061,2.07-0.061,3.03C694.561,21.75,694.598,23.16,694.832,24.87z"/>
	<path d="M578.508,38.4c1.41-1.5,3.181-2.7,5.041-2.7c1.68,0,2.909,0.93,3.18,2.37c1.709-1.8,3.449-2.37,5.069-2.37
		c3.239,0,3.72,2.1,3.72,4.77v3c0,2.28,0.03,3.69,0.27,5.4l-0.06,0.09c-0.36-0.06-1.05-0.09-1.409-0.09
		c-0.361,0-1.051,0.03-1.41,0.09l-0.061-0.09c0.24-1.62,0.27-3.15,0.27-5.4v-3.3c0-2.01-0.779-2.67-2.399-2.67
		c-1.17,0-2.37,0.21-3.81,1.8c0.029,0.36,0.029,0.72,0.029,1.14v3.03c0,2.28,0.031,3.69,0.271,5.4l-0.06,0.09
		c-0.36-0.06-1.051-0.09-1.41-0.09c-0.36,0-1.051,0.03-1.41,0.09l-0.061-0.09c0.24-1.62,0.271-3.15,0.271-5.4v-3.3
		c0-2.01-0.84-2.67-1.979-2.67c-1.051,0-2.73,0.9-4.141,2.34v3.63c0,2.28,0.03,3.69,0.271,5.4l-0.06,0.09
		c-0.36-0.06-1.051-0.09-1.41-0.09c-0.36,0-1.051,0.03-1.41,0.09l-0.061-0.09c0.24-1.62,0.271-3.15,0.271-5.4v-1.65
		c0-2.25-0.06-4.521-0.271-5.82l0.061-0.09c0.681,0.069,1.755,0.045,2.43-0.09c0.141,0,0.18,0.069,0.18,0.3v2.19L578.508,38.4z"/>
	<path d="M610.128,46.5c-1.14,1.56-3.06,2.67-5.22,2.67c-2.021,0-3.738-0.741-4.77-1.98c-1.006-1.206-1.35-2.889-1.35-4.589
		c0-4.41,3.059-6.9,6.149-6.9c3.96,0,5.189,3.15,5.189,5.67c0,0.33-0.21,0.51-0.54,0.51h-8.16c0,1.743,0.193,2.967,0.721,3.81
		c0.824,1.32,2.244,1.71,3.27,1.71c1.65,0,3.061-0.51,4.109-1.65L610.128,46.5z M607.039,40.68c0.3,0,0.42-0.15,0.42-0.42
		c0-2.25-1.335-3.36-2.52-3.36c-0.945,0-2.91,0.66-3.42,3.78H607.039z"/>
	<path d="M625.428,48.87l-0.061,0.09c-0.359-0.06-1.05-0.09-1.41-0.09c-0.359,0-1.05,0.03-1.41,0.09l-0.06-0.09
		c0.216-1.614,0.271-3.15,0.271-5.4v-2.94c0-2.43-0.631-3.03-2.16-3.03c-1.08,0-2.82,0.66-4.35,2.46v3.51
		c0,2.28,0.029,3.69,0.27,5.4l-0.061,0.09c-0.359-0.06-1.049-0.09-1.409-0.09s-1.05,0.03-1.41,0.09l-0.06-0.09
		c0.24-1.62,0.27-3.15,0.27-5.4v-1.65c0-2.25-0.061-4.521-0.27-5.82l0.06-0.09c0.681,0.069,1.755,0.045,2.431-0.09
		c0.141,0,0.174,0.069,0.18,0.3v2.19l0.06,0.09c1.92-2.25,4.05-2.7,5.19-2.7c2.699,0,3.719,1.62,3.719,4.74
		c0,0.96-0.06,2.07-0.06,3.03C625.158,45.75,625.194,47.16,625.428,48.87z"/>
	<path d="M635.147,35.7c4.051,0,6.24,2.67,6.24,6.75c0,3.93-2.4,6.72-6.359,6.72c-3.99,0-6.359-2.85-6.359-6.45
		C628.668,38.46,631.217,35.7,635.147,35.7z M631.307,42.21c0,2.31,0.811,5.76,3.99,5.76c2.01,0,3.45-2.127,3.45-4.98
		c0-3.63-0.63-6.09-3.81-6.09C632.118,36.9,631.307,39.6,631.307,42.21z"/>
	<path d="M647.627,38.91c1.32-2.28,2.189-3.21,3.811-3.21c0.539,0,0.569,0.06,1.08,0.21l0.119,0.12l-0.6,2.22l-0.24,0.06
		c-0.391-0.36-0.96-0.42-1.561-0.42c-0.569,0-1.244,0.381-1.68,1.05c-0.645,0.99-1.02,1.71-1.02,2.97v1.56
		c0,2.28,0.045,3.69,0.27,5.4l-0.06,0.09c-0.36-0.06-1.05-0.09-1.409-0.09c-0.361,0-1.051,0.03-1.41,0.09l-0.061-0.09
		c0.234-1.614,0.27-3.15,0.27-5.4v-1.65c0-2.25-0.06-4.521-0.27-5.82l0.061-0.09c0.681,0.069,1.754,0.045,2.43-0.09
		c0.141,0,0.18,0.069,0.18,0.3v2.73L647.627,38.91z"/>
</g>
<g>
	<path d="M5.94,47.88c4.02,0,8.459-0.36,8.459-0.36l0.06,0.12c-0.03,0.24-0.06,0.69-0.06,0.99c0,0.3,0.03,0.51,0.06,0.93l-0.06,0.09
		c-0.48-0.06-1.17-0.09-1.8-0.09H4.41c-1.05,0-1.56,0.09-1.56,0.09l-0.03-0.09c0.24-1.62,0.3-3.75,0.3-6v-7.35
		c0-2.25-0.06-4.29-0.3-6l0.06-0.09c0,0,0.51,0.09,1.53,0.09h7.89c0.63,0,1.32-0.03,1.8-0.09l0.06,0.09
		c-0.03,0.42-0.06,0.9-0.06,1.14c0,0.27,0.03,0.54,0.06,0.78l-0.06,0.12c0,0-4.14-0.36-8.16-0.36c-0.21,0.72-0.24,3.81-0.24,4.32
		v2.34c3.54,0,4.92-0.15,6.69-0.3l0.09,0.09c-0.06,0.27-0.09,0.69-0.09,0.96s0.03,0.69,0.09,0.96l-0.09,0.09
		c-2.07-0.21-5.25-0.3-6.69-0.3v3.51C5.7,44.071,5.73,47.161,5.94,47.88z"/>
	<path d="M16.86,36.601c0.479,0.066,1.26,0.09,1.74,0.09c0.51,0,1.101-0.024,1.62-0.09c1.008,1.671,1.83,3.264,3.033,4.902
		c1.266-1.638,2.205-3.231,3.357-4.902c0.315,0.066,0.78,0.09,1.11,0.09c0.3,0,0.969-0.024,1.35-0.09l-4.923,6.051
		c1.617,2.343,3.078,4.656,4.893,6.999c-0.465-0.051-1.26-0.09-1.71-0.09c-0.48,0-1.095,0.024-1.53,0.09
		c-1.092-1.719-1.98-3.36-3.18-5.042c-1.2,1.683-2.094,3.324-3.24,5.042c-0.309-0.054-1.02-0.09-1.32-0.09s-0.786,0.036-1.08,0.09
		l4.695-6.293L16.86,36.601z"/>
	<path d="M32.759,32.851l0.06-0.09c0.975-0.135,1.347-0.45,2.1-0.75c0.189,0,0.27,0.081,0.27,0.3c-0.135,1.74-0.15,2.136-0.15,4.38
		h1.41c0.69,0,1.56-0.039,2.1-0.06l0.15,0.21c-0.18,0.441-0.27,0.75-0.36,1.229c-0.399-0.039-1.44-0.06-2.16-0.06h-1.14v3.78
		c0,1.8-0.09,3.09-0.09,3.99c0,1.623,0.279,2.346,0.99,2.46c0.75,0.12,1.44,0.09,2.361-0.231l0.369,0.741
		c-1.26,0.81-2.22,1.11-3.48,1.11c-1.38,0-2.64-0.93-2.64-2.88c0-0.9,0.09-3.06,0.09-4.86v-4.109
		c-0.684,0.003-1.614,0.021-2.13,0.06l-0.15-0.21c0.291-0.45,0.459-0.741,0.66-1.23c0.372,0.048,1.005,0.057,1.62,0.06
		C32.64,34.951,32.699,33.892,32.759,32.851z"/>
	<path d="M43.919,30.122c0.81,0,1.53,0.72,1.53,1.53s-0.72,1.53-1.53,1.53s-1.53-0.72-1.53-1.53S43.109,30.122,43.919,30.122z
		 M42.419,36.691l0.06-0.09c0.636,0.051,1.929,0.039,2.61-0.03c0.234,0,0.27,0.03,0.27,0.3c-0.195,1.83-0.27,2.91-0.27,5.16v2.13
		c0,2.28,0.054,3.696,0.27,5.4l-0.06,0.09c-0.36-0.06-1.05-0.09-1.41-0.09s-1.05,0.03-1.41,0.09l-0.06-0.09
		c0.216-1.62,0.27-3.15,0.27-5.4v-1.65C42.689,40.261,42.608,37.975,42.419,36.691z"/>
	<path d="M61.858,49.561l-0.06,0.09c-0.36-0.06-1.05-0.09-1.41-0.09s-1.05,0.03-1.41,0.09l-0.06-0.09
		c0.216-1.614,0.27-3.15,0.27-5.4v-2.94c0-2.43-0.63-3.03-2.16-3.03c-1.08,0-2.82,0.66-4.35,2.46v3.51c0,2.28,0.03,3.69,0.27,5.4
		l-0.06,0.09c-0.36-0.06-1.05-0.09-1.41-0.09s-1.05,0.03-1.41,0.09l-0.06-0.09c0.24-1.62,0.27-3.15,0.27-5.4v-1.65
		c0-2.25-0.06-4.521-0.27-5.82l0.06-0.09c0.681,0.069,1.755,0.045,2.43-0.09c0.141,0,0.174,0.069,0.18,0.3v2.19l0.06,0.09
		c1.92-2.25,4.05-2.7,5.19-2.7c2.7,0,3.72,1.62,3.72,4.74c0,0.96-0.06,2.07-0.06,3.03C61.588,46.441,61.625,47.851,61.858,49.561z"
		/>
	<path d="M66.928,32.851l0.06-0.09c0.975-0.135,1.347-0.45,2.1-0.75c0.189,0,0.27,0.081,0.27,0.3c-0.135,1.74-0.15,2.136-0.15,4.38
		h1.41c0.69,0,1.56-0.039,2.1-0.06l0.15,0.21c-0.18,0.441-0.27,0.75-0.36,1.229c-0.399-0.039-1.44-0.06-2.16-0.06h-1.14v3.78
		c0,1.8-0.09,3.09-0.09,3.99c0,1.623,0.279,2.346,0.99,2.46c0.75,0.12,1.44,0.09,2.361-0.231l0.369,0.741
		c-1.26,0.81-2.22,1.11-3.48,1.11c-1.38,0-2.64-0.93-2.64-2.88c0-0.9,0.09-3.06,0.09-4.86v-4.109
		c-0.684,0.003-1.614,0.021-2.13,0.06l-0.15-0.21c0.291-0.45,0.459-0.741,0.66-1.23c0.372,0.048,1.005,0.057,1.62,0.06
		C66.809,34.951,66.868,33.892,66.928,32.851z"/>
	<path d="M81.778,36.391c4.05,0,6.24,2.67,6.24,6.75c0,3.93-2.4,6.72-6.36,6.72c-3.99,0-6.359-2.85-6.359-6.45
		C75.299,39.151,77.849,36.391,81.778,36.391z M77.938,42.901c0,2.31,0.81,5.76,3.99,5.76c2.01,0,3.45-2.127,3.45-4.98
		c0-3.63-0.63-6.09-3.81-6.09C78.749,37.591,77.938,40.291,77.938,42.901z"/>
</g>
<line fill="none" stroke="#000000" stroke-width="2" stroke-linecap="round" stroke-linejoin="round" stroke-miterlimit="10" x1="43.864" y1="57.364" x2="43.864" y2="77.364"/>
<line fill="none" stroke="#000000" stroke-width="2" stroke-linecap="round" stroke-linejoin="round" stroke-miterlimit="10" x1="612.864" y1="58.364" x2="612.864" y2="78.364"/>
</svg>
