<?xml version="1.0" encoding="utf-8"?>
<!-- Generator: Adobe Illustrator 15.0.0, SVG Export Plug-In . SVG Version: 6.00 Build 0)  -->
<!DOCTYPE svg PUBLIC "-//W3C//DTD SVG 1.1//EN" "http://www.w3.org/Graphics/SVG/1.1/DTD/svg11.dtd">
<svg version="1.1" id="Layer_1" xmlns="http://www.w3.org/2000/svg" xmlns:xlink="http://www.w3.org/1999/xlink" x="0px" y="0px"
	 width="200px" height="200px" viewBox="0 0 200 200" enable-background="new 0 0 200 200" xml:space="preserve">
<path fill="#FFFFFF" stroke="#000000" stroke-miterlimit="10" d="M197.5,180.629c0,9.317-6.438,16.871-14.38,16.871H16.88
	c-7.942,0-14.38-7.554-14.38-16.871V19.371C2.5,10.053,8.938,2.5,16.88,2.5h166.24c7.941,0,14.38,7.553,14.38,16.871V180.629z"/>
<g>
	<path d="M18.691,88.294c0.83,0,1.5-0.031,2.009-0.094l0.062,0.094c-0.042,0.591-0.062,0.955-0.062,1.09
		c0,0.301,0.021,0.618,0.062,0.95L20.7,90.458c-2.938-0.259-5.83-0.384-8.674-0.374c-0.166,0.571-0.254,2.102-0.265,4.594v2.476
		c2.232,0,4.604-0.104,7.116-0.312l0.094,0.093c-0.063,0.301-0.094,0.641-0.094,1.02s0.031,0.719,0.094,1.02l-0.094,0.093
		c-2.107-0.208-4.479-0.311-7.116-0.311v3.722c0,2.74,0.109,4.869,0.327,6.385l-0.063,0.094c-0.351-0.063-0.864-0.094-1.542-0.094
		l-1.557,0.094l-0.031-0.094c0.208-1.443,0.312-3.572,0.312-6.385v-7.802c0-2.741-0.104-4.869-0.312-6.384l0.063-0.094
		c0.35,0.063,0.858,0.094,1.526,0.094H18.691z"/>
	<path d="M43.934,98.361c0,3.189-0.94,5.789-2.819,7.799c-1.879,2.012-4.339,3.016-7.381,3.016c-2.824,0-5.217-0.934-7.179-2.805
		c-1.962-1.869-2.943-4.338-2.943-7.402c0-3.123,0.968-5.752,2.904-7.89s4.332-3.206,7.187-3.206c2.917,0,5.352,0.973,7.303,2.918
		C42.958,92.736,43.934,95.26,43.934,98.361z M33.282,89.275c-1.744,0-3.244,0.748-4.5,2.244c-1.256,1.497-1.884,3.798-1.884,6.904
		c0,2.92,0.734,5.209,2.203,6.865c1.469,1.656,3.226,2.486,5.271,2.486c1.869,0,3.382-0.771,4.54-2.314
		c1.157-1.543,1.736-3.707,1.736-6.492c0-3.231-0.649-5.655-1.947-7.271C37.403,90.083,35.597,89.275,33.282,89.275z"/>
	<path d="M52.669,94.679c0-2.492-0.083-4.022-0.249-4.594c-1.277,0-2.453,0.037-3.527,0.109c-1.075,0.073-1.83,0.146-2.266,0.218
		l-0.654,0.109l-0.062-0.125c0.062-0.488,0.062-1.188,0-2.102l0.062-0.094c0.509,0.063,1.147,0.094,1.916,0.094h12.115
		c0.768,0,1.407-0.031,1.916-0.094l0.063,0.094c-0.063,0.914-0.063,1.614,0,2.102l-0.063,0.125
		c-1.443-0.301-3.592-0.446-6.447-0.436c-0.166,0.571-0.249,2.102-0.249,4.594v7.802c0,2.74,0.109,4.869,0.327,6.385l-0.078,0.094
		c-0.369-0.063-0.88-0.094-1.533-0.094c-0.653,0-1.159,0.031-1.519,0.094l-0.078-0.094c0.208-1.443,0.316-3.572,0.327-6.385V94.679z
		"/>
	<path d="M84.452,98.361c0,3.189-0.94,5.789-2.819,7.799c-1.879,2.012-4.339,3.016-7.381,3.016c-2.824,0-5.217-0.934-7.179-2.805
		c-1.962-1.869-2.943-4.338-2.943-7.402c0-3.123,0.968-5.752,2.904-7.89s4.332-3.206,7.187-3.206c2.917,0,5.352,0.973,7.303,2.918
		C83.476,92.736,84.452,95.26,84.452,98.361z M73.8,89.275c-1.744,0-3.244,0.748-4.5,2.244c-1.256,1.497-1.884,3.798-1.884,6.904
		c0,2.92,0.734,5.209,2.203,6.865c1.469,1.656,3.226,2.486,5.271,2.486c1.869,0,3.382-0.771,4.54-2.314
		c1.157-1.543,1.736-3.707,1.736-6.492c0-3.231-0.649-5.655-1.947-7.271C77.921,90.083,76.115,89.275,73.8,89.275z"/>
	<path d="M103.667,105.166c-0.063-2.967-0.166-5.004-0.312-6.115l0.063-0.094c0.383,0.063,0.952,0.094,1.708,0.094l1.758-0.094
		l0.069,0.094c-0.465,1.415-0.709,3.238-0.732,5.47v0.203c0,0.775,0.244,1.289,0.732,1.541v0.094
		c-2.332,1.879-5.234,2.816-8.705,2.816c-3.104,0-5.604-1.021-7.498-3.066c-1.895-2.043-2.842-4.501-2.842-7.372
		c0-1.699,0.319-3.248,0.958-4.647c0.638-1.398,1.489-2.538,2.554-3.419c1.064-0.881,2.255-1.567,3.574-2.06
		c1.318-0.492,2.668-0.738,4.049-0.738c1.124,0,2.275,0.109,3.455,0.325c1.179,0.217,2.083,0.441,2.711,0.672l0.926,0.347
		l0.056,0.089c-0.318,1.457-0.516,2.756-0.593,3.898l-0.29,0.032c-0.714-1.226-1.659-2.193-2.838-2.9
		c-1.178-0.708-2.465-1.061-3.862-1.061c-2.19,0-3.974,0.825-5.349,2.475c-1.375,1.65-2.063,3.869-2.063,6.657
		c0,1.111,0.145,2.201,0.436,3.269c0.29,1.07,0.726,2.07,1.308,3.002c0.582,0.934,1.394,1.682,2.437,2.248
		c1.043,0.566,2.245,0.85,3.605,0.85c2.274,0,3.835-0.41,4.687-1.227V105.166z"/>
	<path d="M114.988,99.864v2.704c0,2.703,0.108,4.803,0.327,6.297l-0.063,0.094c-0.37-0.063-0.885-0.094-1.542-0.094
		c-0.658,0-1.166,0.031-1.526,0.094l-0.062-0.094c0.207-1.443,0.311-3.572,0.311-6.385v-7.802c0-2.741-0.104-4.869-0.311-6.384
		l0.062-0.094c0.369,0.063,0.878,0.094,1.526,0.094c0.336,0,1.061-0.037,2.174-0.109c1.114-0.072,1.798-0.109,2.052-0.109
		c2.983,0,5.03,0.513,6.142,1.538c1.165,1.067,1.742,2.406,1.732,4.017c0,2.375-1.11,4.1-3.331,5.178
		c-0.487,0.24-1.159,0.444-2.015,0.612c0.52,0.659,1.669,2.231,3.449,4.719c1.78,2.486,2.972,4.061,3.573,4.727l-0.062,0.094
		c-0.426-0.063-1.064-0.094-1.916-0.094c-0.934,0-1.617,0.031-2.051,0.094c-0.393-1.139-1.428-3.012-3.104-5.623
		c-0.104-0.164-0.294-0.471-0.569-0.922s-0.481-0.781-0.616-0.99c-0.136-0.211-0.32-0.477-0.554-0.799
		c-0.234-0.323-0.456-0.607-0.664-0.854C117.058,99.833,116.069,99.864,114.988,99.864z M117.968,89.478
		c-1.404,0-2.252,0.073-2.543,0.217c-0.291,0.145-0.437,0.538-0.437,1.18v7.588h1.856c1.747,0,3.131-0.354,4.15-1.063
		c1.02-0.708,1.529-1.963,1.529-3.763c0-0.807-0.143-1.5-0.429-2.08c-0.286-0.579-0.669-1.014-1.147-1.304
		c-0.479-0.29-0.957-0.491-1.436-0.605S118.52,89.478,117.968,89.478z"/>
	<path d="M133.921,101.577c-0.638,1.483-1.181,2.853-1.63,4.106s-0.791,2.346-1.026,3.275c-0.255-0.063-0.729-0.094-1.424-0.094
		c-0.479,0-0.842,0.031-1.087,0.094c3.54-7.932,6.612-14.96,9.217-21.085h0.885c0.725,1.724,1.749,4.233,3.074,7.529
		c1.324,3.296,2.479,6.146,3.462,8.548c0.983,2.404,1.708,4.072,2.174,5.008c-0.341-0.063-0.936-0.094-1.782-0.094
		c-0.662,0-1.163,0.031-1.504,0.094c-0.042-0.146-0.091-0.314-0.148-0.508c-0.058-0.191-0.136-0.451-0.234-0.777
		c-0.099-0.328-0.216-0.695-0.352-1.105s-0.286-0.861-0.453-1.355c-0.167-0.492-0.362-1.057-0.586-1.689s-0.461-1.281-0.711-1.946
		c-0.697-0.021-1.359-0.034-1.984-0.039s-1.213-0.008-1.765-0.008C136.827,101.53,135.452,101.546,133.921,101.577z
		 M141.228,100.082c-0.457-1.193-0.953-2.445-1.487-3.753c-0.535-1.308-1.113-2.678-1.736-4.111h-0.063l-3.372,7.848
		c0.25,0,0.78,0.011,1.593,0.031c0.812,0.021,1.395,0.031,1.748,0.031C138.813,100.129,139.919,100.113,141.228,100.082z"/>
	<path d="M161.097,88.294c0.831,0,1.5-0.031,2.009-0.094l0.063,0.094c-0.041,0.591-0.063,0.955-0.063,1.09
		c0,0.301,0.021,0.618,0.063,0.95l-0.063,0.125c-2.938-0.259-5.829-0.384-8.673-0.374c-0.167,0.571-0.255,2.102-0.265,4.594v2.476
		c2.231,0,4.604-0.104,7.116-0.312l0.093,0.093c-0.062,0.301-0.093,0.641-0.093,1.02s0.031,0.719,0.093,1.02l-0.093,0.093
		c-2.107-0.208-4.479-0.311-7.116-0.311v3.722c0,2.74,0.108,4.869,0.326,6.385l-0.062,0.094c-0.351-0.063-0.865-0.094-1.542-0.094
		l-1.558,0.094l-0.03-0.094c0.207-1.443,0.311-3.572,0.311-6.385v-7.802c0-2.741-0.104-4.869-0.311-6.384l0.062-0.094
		c0.351,0.063,0.858,0.094,1.526,0.094H161.097z"/>
	<path d="M167.995,94.679c0-2.741-0.104-4.869-0.311-6.384l0.062-0.094c0.369,0.063,0.88,0.094,1.533,0.094s1.165-0.031,1.535-0.094
		l0.062,0.094c-0.207,1.401-0.316,3.529-0.326,6.384v7.802c0,2.74,0.108,4.869,0.326,6.385l-0.062,0.094
		c-0.37-0.063-0.885-0.094-1.542-0.094c-0.658,0-1.166,0.031-1.526,0.094l-0.062-0.094c0.207-1.443,0.311-3.572,0.311-6.385V94.679z
		"/>
	<path d="M179.733,101.577c-0.638,1.483-1.181,2.853-1.63,4.106s-0.791,2.346-1.026,3.275c-0.255-0.063-0.729-0.094-1.424-0.094
		c-0.479,0-0.842,0.031-1.087,0.094c3.54-7.932,6.612-14.96,9.217-21.085h0.885c0.725,1.724,1.749,4.233,3.074,7.529
		c1.324,3.296,2.479,6.146,3.462,8.548c0.983,2.404,1.708,4.072,2.174,5.008c-0.341-0.063-0.936-0.094-1.782-0.094
		c-0.662,0-1.163,0.031-1.504,0.094c-0.042-0.146-0.091-0.314-0.148-0.508c-0.058-0.191-0.136-0.451-0.234-0.777
		c-0.099-0.328-0.216-0.695-0.352-1.105s-0.286-0.861-0.453-1.355c-0.167-0.492-0.362-1.057-0.586-1.689s-0.461-1.281-0.711-1.946
		c-0.697-0.021-1.359-0.034-1.984-0.039s-1.213-0.008-1.765-0.008C182.64,101.53,181.265,101.546,179.733,101.577z M187.04,100.082
		c-0.457-1.193-0.953-2.445-1.487-3.753c-0.535-1.308-1.113-2.678-1.736-4.111h-0.063l-3.372,7.848c0.25,0,0.78,0.011,1.593,0.031
		c0.812,0.021,1.395,0.031,1.748,0.031C184.626,100.129,185.731,100.113,187.04,100.082z"/>
</g>
</svg>
