<?xml version="1.0" encoding="utf-8"?>
<!-- Generator: Adobe Illustrator 15.0.0, SVG Export Plug-In . SVG Version: 6.00 Build 0)  -->
<!DOCTYPE svg PUBLIC "-//W3C//DTD SVG 1.1//EN" "http://www.w3.org/Graphics/SVG/1.1/DTD/svg11.dtd">
<svg version="1.1" id="Layer_1" xmlns="http://www.w3.org/2000/svg" xmlns:xlink="http://www.w3.org/1999/xlink" x="0px" y="0px"
	 width="200px" height="200px" viewBox="0 0 200 200" enable-background="new 0 0 200 200" xml:space="preserve">
<path fill="#FFFFFF" stroke="#000000" stroke-miterlimit="10" d="M197.5,180.629c0,9.317-6.438,16.871-14.38,16.871H16.88
	c-7.942,0-14.38-7.554-14.38-16.871V19.371C2.5,10.053,8.938,2.5,16.88,2.5h166.24c7.941,0,14.38,7.553,14.38,16.871V180.629z"/>
<g>
	<path d="M64,87.756h0.863c0.553,1.211,1.184,2.591,1.892,4.138c0.708,1.547,1.333,2.913,1.873,4.095
		c0.541,1.183,1.157,2.531,1.849,4.045c0.692,1.513,1.337,2.925,1.935,4.232l8.34-16.402h0.481
		c0.985,8.415,1.887,15.447,2.704,21.095c-0.325-0.063-0.891-0.094-1.698-0.094c-0.734,0-1.263,0.031-1.588,0.094
		c-0.562-6.76-1.045-11.815-1.451-15.169l-0.109-0.016c-2.781,5.149-5.246,10.181-7.394,15.091h-0.607
		c-0.332-0.75-0.694-1.572-1.087-2.465c-0.394-0.893-0.762-1.725-1.104-2.498c-0.341-0.773-0.711-1.611-1.109-2.514
		c-0.398-0.902-0.772-1.75-1.122-2.542c-0.35-0.793-0.727-1.647-1.132-2.563c-0.405-0.916-0.787-1.782-1.147-2.599h-0.14
		c-0.218,1.37-0.485,3.091-0.802,5.161c-0.316,2.071-0.618,4.049-0.903,5.932c-0.286,1.885-0.501,3.277-0.646,4.182
		c-0.239-0.063-0.555-0.094-0.95-0.094c-0.467,0-0.82,0.031-1.059,0.094C61.612,100.666,62.982,93.599,64,87.756z"/>
	<path d="M91.783,101.577c-0.638,1.483-1.181,2.853-1.63,4.106s-0.792,2.346-1.026,3.275c-0.255-0.063-0.73-0.094-1.424-0.094
		c-0.48,0-0.842,0.031-1.087,0.094c3.541-7.932,6.612-14.96,9.217-21.085h0.885c0.725,1.724,1.749,4.233,3.074,7.529
		c1.325,3.296,2.479,6.146,3.463,8.548c0.982,2.404,1.707,4.072,2.173,5.008c-0.341-0.063-0.935-0.094-1.781-0.094
		c-0.662,0-1.163,0.031-1.505,0.094c-0.041-0.146-0.091-0.314-0.148-0.508c-0.057-0.191-0.135-0.451-0.234-0.777
		c-0.099-0.328-0.216-0.695-0.352-1.105c-0.135-0.41-0.286-0.861-0.453-1.355c-0.167-0.492-0.362-1.057-0.586-1.689
		s-0.461-1.281-0.711-1.946c-0.698-0.021-1.359-0.034-1.984-0.039c-0.625-0.005-1.214-0.008-1.766-0.008
		C94.688,101.53,93.313,101.546,91.783,101.577z M99.089,100.082c-0.457-1.193-0.952-2.445-1.487-3.753
		c-0.535-1.308-1.113-2.678-1.736-4.111h-0.063l-3.372,7.848c0.25,0,0.781,0.011,1.592,0.031c0.812,0.021,1.395,0.031,1.749,0.031
		C96.675,100.129,97.781,100.113,99.089,100.082z"/>
	<path d="M109.476,94.679c0-2.741-0.104-4.869-0.312-6.384l0.063-0.094c0.369,0.063,0.877,0.094,1.525,0.094
		c0.316,0,1.057-0.037,2.223-0.109c1.165-0.072,1.885-0.109,2.16-0.109c1.438,0,2.683,0.174,3.732,0.523
		c1.05,0.349,1.836,0.817,2.357,1.406c0.522,0.588,0.903,1.187,1.143,1.796c0.24,0.609,0.359,1.242,0.359,1.897
		c0,0.729-0.146,1.449-0.438,2.162c-0.292,0.713-0.734,1.395-1.325,2.044c-0.591,0.65-1.426,1.179-2.506,1.584
		s-2.328,0.608-3.744,0.608c-1.134,0-2.028-0.111-2.684-0.334v2.733c0,2.734,0.109,4.857,0.328,6.369l-0.063,0.094
		c-0.371-0.063-0.885-0.094-1.543-0.094c-0.657,0-1.166,0.031-1.525,0.094l-0.063-0.094c0.207-1.443,0.312-3.572,0.312-6.385V94.679
		z M112.029,90.875v7.496c0.406,0.207,1.248,0.315,2.527,0.326c1.645,0,2.869-0.367,3.676-1.102
		c0.807-0.735,1.209-1.981,1.209-3.741c0-0.91-0.127-1.666-0.383-2.266c-0.254-0.6-0.615-1.05-1.084-1.35s-0.941-0.502-1.42-0.605
		s-1.029-0.155-1.654-0.155c-1.103,0-1.857,0.111-2.263,0.334C112.232,90.034,112.029,90.388,112.029,90.875z"/>
	<path d="M127.77,101.577c-0.638,1.483-1.181,2.853-1.63,4.106s-0.792,2.346-1.026,3.275c-0.255-0.063-0.729-0.094-1.424-0.094
		c-0.479,0-0.842,0.031-1.087,0.094c3.54-7.932,6.612-14.96,9.217-21.085h0.885c0.725,1.724,1.749,4.233,3.073,7.529
		c1.326,3.296,2.479,6.146,3.463,8.548c0.982,2.404,1.707,4.072,2.174,5.008c-0.342-0.063-0.936-0.094-1.781-0.094
		c-0.662,0-1.164,0.031-1.505,0.094c-0.042-0.146-0.091-0.314-0.148-0.508c-0.058-0.191-0.136-0.451-0.234-0.777
		c-0.099-0.328-0.216-0.695-0.352-1.105s-0.286-0.861-0.453-1.355c-0.167-0.492-0.362-1.057-0.586-1.689s-0.461-1.281-0.711-1.946
		c-0.698-0.021-1.359-0.034-1.983-0.039c-0.625-0.005-1.215-0.008-1.766-0.008C130.676,101.53,129.301,101.546,127.77,101.577z
		 M135.076,100.082c-0.457-1.193-0.953-2.445-1.487-3.753c-0.534-1.308-1.113-2.678-1.736-4.111h-0.063l-3.372,7.848
		c0.25,0,0.781,0.011,1.592,0.031c0.813,0.021,1.396,0.031,1.75,0.031C132.662,100.129,133.768,100.113,135.076,100.082z"/>
</g>
</svg>
