<?xml version="1.0" encoding="utf-8"?>
<!-- Generator: Adobe Illustrator 16.0.0, SVG Export Plug-In . SVG Version: 6.00 Build 0)  -->
<!DOCTYPE svg PUBLIC "-//W3C//DTD SVG 1.1//EN" "http://www.w3.org/Graphics/SVG/1.1/DTD/svg11.dtd">
<svg version="1.1" id="Layer_1" xmlns="http://www.w3.org/2000/svg" xmlns:xlink="http://www.w3.org/1999/xlink" x="0px" y="0px"
	 width="200px" height="50px" viewBox="0 0 200 50" enable-background="new 0 0 200 50" xml:space="preserve">
<g>
	<path id="path13404_2_" fill="#818181" stroke="#818181" stroke-width="0.7646" stroke-linecap="round" d="M124.5,25
		c0,13.532-10.969,24.499-24.5,24.499c-13.531,0-24.5-10.967-24.5-24.499c0-13.53,10.969-24.499,24.5-24.499
		C113.531,0.501,124.5,11.47,124.5,25L124.5,25z"/>
	<g>
		<path fill="#010101" stroke="#010101" stroke-width="0.7646" d="M84.465,16.589h6.207c1.401,0,2.467,0.108,3.202,0.322
			c0.985,0.291,1.831,0.807,2.535,1.548c0.704,0.743,1.24,1.651,1.607,2.725c0.368,1.075,0.551,2.4,0.551,3.976
			c0,1.384-0.173,2.578-0.517,3.58c-0.421,1.225-1.021,2.214-1.802,2.971c-0.589,0.575-1.385,1.023-2.387,1.344
			c-0.75,0.238-1.752,0.356-3.006,0.356h-6.39V16.589z M87.862,19.435v11.141h2.535c0.949,0,1.633-0.054,2.054-0.161
			c0.55-0.138,1.008-0.37,1.371-0.7c0.363-0.328,0.66-0.869,0.889-1.623c0.229-0.753,0.344-1.78,0.344-3.081
			c0-1.299-0.115-2.298-0.344-2.994c-0.229-0.696-0.55-1.239-0.963-1.629c-0.414-0.39-0.938-0.654-1.572-0.792
			c-0.475-0.107-1.404-0.161-2.789-0.161H87.862z"/>
		<path fill="#010101" stroke="#010101" stroke-width="0.7646" d="M101.434,16.589h6.207c1.4,0,2.468,0.108,3.202,0.322
			c0.985,0.291,1.831,0.807,2.535,1.548c0.703,0.743,1.238,1.651,1.606,2.725c0.367,1.075,0.551,2.4,0.551,3.976
			c0,1.384-0.173,2.578-0.517,3.58c-0.421,1.225-1.021,2.214-1.801,2.971c-0.59,0.575-1.385,1.023-2.388,1.344
			c-0.749,0.238-1.751,0.356-3.006,0.356h-6.391V16.589z M104.83,19.435v11.141h2.535c0.948,0,1.634-0.054,2.055-0.161
			c0.55-0.138,1.007-0.37,1.371-0.7c0.362-0.328,0.659-0.869,0.889-1.623c0.229-0.753,0.345-1.78,0.345-3.081
			c0-1.299-0.115-2.298-0.345-2.994s-0.55-1.239-0.964-1.629c-0.414-0.39-0.938-0.654-1.571-0.792
			c-0.475-0.107-1.404-0.161-2.789-0.161H104.83z"/>
	</g>
</g>
</svg>
