<?xml version="1.0" encoding="utf-8"?>
<!-- Generator: Adobe Illustrator 16.0.0, SVG Export Plug-In . SVG Version: 6.00 Build 0)  -->
<!DOCTYPE svg PUBLIC "-//W3C//DTD SVG 1.1//EN" "http://www.w3.org/Graphics/SVG/1.1/DTD/svg11.dtd">
<svg version="1.1" id="Layer_1" xmlns="http://www.w3.org/2000/svg" xmlns:xlink="http://www.w3.org/1999/xlink" x="0px" y="0px"
	 width="210px" height="50px" viewBox="0 0 210 50" enable-background="new 0 0 210 50" xml:space="preserve">
<g>
	<path id="path13406_1_" fill="#FFFFFF" stroke="#000000" stroke-width="0.5" stroke-linecap="round" d="M49.878,36.652
		c0,5.114-4.146,9.261-9.261,9.261c-5.114,0-9.26-4.146-9.26-9.261s4.146-9.26,9.26-9.26C45.732,27.393,49.878,31.538,49.878,36.652
		L49.878,36.652z"/>
	<path id="text13438_1_" d="M33.714,39.772v-6.24h4.765v1.055h-3.467v1.384h3.226v1.052h-3.226v1.698h3.59v1.052H33.714z
		 M40.622,39.772l-1.534-6.24h1.328l0.969,4.286l1.174-4.286h1.543l1.127,4.358l0.986-4.358h1.306l-1.561,6.24h-1.376l-1.279-4.666
		l-1.275,4.666H40.622z"/>
	<path id="path13412_1_" fill="#FFFFFF" stroke="#000000" stroke-width="0.5" stroke-linecap="round" d="M144.104,36.652
		c0,5.114-4.148,9.261-9.262,9.261c-5.114,0-9.261-4.146-9.261-9.261s4.146-9.26,9.261-9.26
		C139.956,27.393,144.104,31.538,144.104,36.652L144.104,36.652z"/>
	<path id="text13426_1_" d="M131.249,39.726l-2.301-6.252h1.41l1.628,4.626l1.577-4.626h1.379l-2.306,6.252H131.249z
		 M135.604,33.474h1.301v3.385c0,0.537,0.017,0.886,0.048,1.045c0.056,0.256,0.188,0.461,0.397,0.616
		c0.209,0.155,0.495,0.232,0.858,0.232c0.368,0,0.647-0.073,0.834-0.22c0.188-0.146,0.3-0.326,0.339-0.539
		c0.037-0.214,0.057-0.568,0.057-1.062v-3.457h1.299v3.282c0,0.751-0.034,1.281-0.104,1.591c-0.071,0.311-0.2,0.571-0.389,0.784
		c-0.189,0.214-0.441,0.384-0.757,0.511c-0.317,0.127-0.729,0.19-1.239,0.19c-0.614,0-1.081-0.07-1.397-0.208
		c-0.317-0.138-0.569-0.317-0.753-0.537c-0.185-0.221-0.307-0.452-0.365-0.693c-0.084-0.357-0.128-0.887-0.128-1.586V33.474z"/>
	<path id="path13410_1_" fill="#FFFFFF" stroke="#000000" stroke-width="0.5" stroke-linecap="round" d="M120.547,36.652
		c0,5.114-4.146,9.261-9.26,9.261c-5.115,0-9.261-4.146-9.261-9.261s4.146-9.26,9.261-9.26
		C116.401,27.393,120.547,31.538,120.547,36.652L120.547,36.652z"/>
	<path id="text13430_1_" d="M105.629,39.832v-6.358h4.854v1.075h-3.531v1.409h3.287v1.071h-3.287v1.729h3.657v1.073H105.629z
		 M111.751,39.832v-6.358h1.286l2.679,4.245v-4.245h1.229v6.358h-1.326l-2.64-4.147v4.147H111.751z"/>
	<path id="path13408_1_" fill="#FFFFFF" stroke="#000000" stroke-width="0.5" stroke-linecap="round" d="M96.991,36.652
		c0,5.114-4.146,9.261-9.261,9.261s-9.261-4.146-9.261-9.261s4.146-9.26,9.261-9.26S96.991,31.538,96.991,36.652L96.991,36.652z"/>
	<path id="text13442_1_" d="M85.85,37.466l1.239,0.382c-0.189,0.671-0.506,1.169-0.947,1.495c-0.442,0.326-1.003,0.489-1.683,0.489
		c-0.841,0-1.531-0.279-2.072-0.837c-0.542-0.559-0.812-1.321-0.812-2.288c0-1.023,0.272-1.818,0.816-2.384
		c0.545-0.567,1.26-0.85,2.146-0.85c0.774,0,1.403,0.223,1.887,0.666c0.288,0.264,0.504,0.641,0.647,1.133l-1.265,0.294
		c-0.075-0.319-0.231-0.57-0.469-0.755s-0.526-0.277-0.865-0.277c-0.47,0-0.851,0.163-1.143,0.491
		c-0.292,0.327-0.438,0.856-0.438,1.589c0,0.778,0.145,1.332,0.432,1.661c0.288,0.33,0.662,0.495,1.123,0.495
		c0.34,0,0.632-0.105,0.877-0.314C85.568,38.246,85.743,37.916,85.85,37.466L85.85,37.466z M88.194,39.728v-6.149h2.69
		c0.677,0,1.168,0.055,1.476,0.166c0.306,0.11,0.552,0.307,0.735,0.589c0.185,0.283,0.276,0.605,0.276,0.969
		c0,0.462-0.14,0.843-0.418,1.143c-0.28,0.301-0.697,0.49-1.253,0.568c0.276,0.157,0.505,0.329,0.685,0.517s0.422,0.52,0.728,0.997
		l0.772,1.201h-1.528l-0.924-1.339c-0.328-0.478-0.553-0.779-0.674-0.904c-0.121-0.124-0.249-0.209-0.385-0.255
		c-0.135-0.047-0.35-0.07-0.643-0.07h-0.26v2.568H88.194z M89.473,36.179h0.946c0.613,0,0.996-0.025,1.148-0.075
		c0.152-0.051,0.271-0.138,0.358-0.261c0.086-0.123,0.129-0.276,0.129-0.462c0-0.206-0.057-0.374-0.17-0.501
		c-0.113-0.126-0.274-0.206-0.481-0.24c-0.104-0.015-0.415-0.021-0.933-0.021h-0.998V36.179z"/>
	<g>
		<path id="path13404_5_" fill="#1A171B" stroke="#1A171B" stroke-width="0.5" stroke-linecap="round" d="M26.322,36.652
			c0,5.114-4.146,9.261-9.261,9.261s-9.261-4.146-9.261-9.261s4.146-9.26,9.261-9.26S26.322,31.538,26.322,36.652L26.322,36.652z"/>
		<path id="text13434_3_" fill="#FFFFFF" d="M11.403,39.772v-6.24h4.764v1.055H12.7v1.384h3.227v1.052H12.7v1.698h3.59v1.052H11.403
			z M16.746,39.772l2.195-3.257l-1.989-2.983h1.517l1.288,2.004l1.263-2.004h1.503l-1.999,3.03l2.196,3.21h-1.564l-1.425-2.159
			l-1.429,2.159H16.746z"/>
	</g>
	<path id="path13414_5_" fill="#FFFFFF" stroke="#000000" stroke-width="0.5" stroke-linecap="round" d="M167.661,36.652
		c0,5.114-4.146,9.261-9.261,9.261s-9.261-4.146-9.261-9.261s4.146-9.26,9.261-9.26S167.661,31.538,167.661,36.652L167.661,36.652z"
		/>
	<path id="text1899_1_" d="M152.736,39.832v-6.358h1.285l2.68,4.245v-4.245h1.229v6.358h-1.327l-2.64-4.147v4.147H152.736z
		 M160.805,39.832v-5.283h-1.942v-1.075h5.203v1.075h-1.939v5.283H160.805z"/>
	<path id="path2072_1_" fill="#FFFFFF" stroke="#000000" stroke-width="0.5" stroke-linecap="round" d="M191.219,36.652
		c0,5.114-4.146,9.261-9.261,9.261c-5.114,0-9.261-4.146-9.261-9.261s4.146-9.26,9.261-9.26
		C187.073,27.393,191.219,31.538,191.219,36.652L191.219,36.652z"/>
	<path id="text3021_1_" d="M176.627,39.728v-6.099h1.276v5.062h3.18v1.037H176.627z M186.049,37.466l1.24,0.382
		c-0.191,0.671-0.506,1.169-0.948,1.495c-0.441,0.326-1.004,0.489-1.683,0.489c-0.841,0-1.532-0.279-2.073-0.837
		c-0.54-0.559-0.811-1.321-0.811-2.288c0-1.023,0.271-1.818,0.815-2.384c0.544-0.567,1.26-0.85,2.146-0.85
		c0.774,0,1.402,0.223,1.887,0.666c0.288,0.264,0.504,0.641,0.647,1.133l-1.265,0.294c-0.075-0.319-0.231-0.57-0.468-0.755
		c-0.238-0.185-0.526-0.277-0.867-0.277c-0.468,0-0.849,0.163-1.143,0.491c-0.292,0.327-0.438,0.856-0.438,1.589
		c0,0.778,0.144,1.332,0.432,1.661c0.289,0.33,0.662,0.495,1.122,0.495c0.341,0,0.634-0.105,0.879-0.314
		C185.768,38.246,185.943,37.916,186.049,37.466L186.049,37.466z"/>
	<path id="path13404_4_" fill="#FFFFFF" stroke="#000000" stroke-width="0.5" stroke-linecap="round" d="M73.435,36.652
		c0,5.115-4.146,9.261-9.261,9.261s-9.261-4.146-9.261-9.261c0-5.114,4.146-9.26,9.261-9.26S73.435,31.538,73.435,36.652
		L73.435,36.652z"/>
	<g>
		<path id="text13434_2_" d="M65.118,39.813v-6.34h4.841v1.072h-3.522v1.405h3.277v1.068h-3.277v1.726h3.646v1.068H65.118z"/>
		<g>
			<path d="M58.264,39.832v-6.358h2.702c0.68,0,1.173,0.057,1.481,0.171c0.308,0.114,0.554,0.317,0.739,0.609
				c0.185,0.292,0.277,0.626,0.277,1.002c0,0.477-0.141,0.871-0.421,1.182s-0.699,0.507-1.258,0.588
				c0.277,0.162,0.507,0.34,0.688,0.533c0.181,0.194,0.424,0.538,0.73,1.032l0.776,1.241h-1.535l-0.928-1.385
				c-0.33-0.494-0.555-0.806-0.677-0.934c-0.121-0.129-0.25-0.217-0.386-0.266c-0.136-0.047-0.352-0.071-0.646-0.071h-0.26v2.655
				H58.264z M59.548,36.162h0.949c0.616,0,1.001-0.026,1.154-0.078c0.152-0.052,0.272-0.142,0.359-0.269s0.131-0.286,0.131-0.478
				c0-0.214-0.058-0.386-0.172-0.518s-0.275-0.215-0.483-0.25c-0.104-0.014-0.416-0.021-0.937-0.021h-1.002V36.162z"/>
		</g>
	</g>
	<g>
		<path d="M121.807,23.351c-6.311,0.069-8.353-0.617-9.713-1.713l-0.284-0.001c-2,1.106-4.801,1.784-10.636,1.712l-10.564-0.132
			c-5.956-0.073-9.501,0.587-9.501,1.304c-0.426,0.099-1.276,0.099-1.702,0c0-1.647,2.34-2.561,11.558-2.478l12.054,0.099
			c4.325,0.033,7.445-0.398,8.083-1.598c0.567-0.131,1.063-0.146,1.702,0c0.496,1.207,4.324,1.6,7.87,1.6l13.046-0.097
			c8.013-0.064,10.849,1.013,10.848,2.481c-0.425,0.098-1.276,0.098-1.701-0.001c-0.78-0.619-1.992-1.387-9.288-1.306
			L121.807,23.351z"/>
	</g>
	<g>
		<path d="M92.374,16.371c-0.104-0.026-0.295-0.026-0.391-0.026c-0.095,0-0.199,0-0.303,0.026c0.875-1.916,1.725-3.807,2.558-5.731
			h0.242c0.798,1.898,1.942,4.855,2.376,5.731c-0.147-0.026-0.373-0.026-0.521-0.026s-0.286,0-0.434,0.026
			c-0.053-0.193-0.249-0.869-0.674-2.006c-0.21-0.015-0.688-0.023-1.017-0.023c-0.299,0-0.901,0.009-1.118,0.023
			C92.784,15.124,92.516,15.839,92.374,16.371z M94.194,11.82h-0.018l-0.913,2.132c0.19,0.011,0.654,0.025,0.905,0.025
			c0.257,0,0.618-0.009,0.903-0.021C94.84,13.352,94.551,12.639,94.194,11.82z"/>
		<path d="M98.426,13.318c0.407-0.433,0.919-0.78,1.457-0.78c0.485,0,0.841,0.27,0.919,0.686c0.494-0.521,0.997-0.686,1.465-0.686
			c0.937,0,1.075,0.607,1.075,1.379v0.867c0,0.659,0.009,1.066,0.078,1.561l-0.018,0.026c-0.104-0.018-0.304-0.026-0.407-0.026
			c-0.104,0-0.304,0.009-0.408,0.026l-0.017-0.026c0.069-0.469,0.078-0.91,0.078-1.561V13.83c0-0.581-0.226-0.771-0.694-0.771
			c-0.338,0-0.685,0.061-1.101,0.521c0.009,0.104,0.009,0.208,0.009,0.329v0.876c0,0.659,0.009,1.066,0.078,1.561l-0.018,0.026
			c-0.104-0.018-0.304-0.026-0.407-0.026c-0.104,0-0.304,0.009-0.408,0.026l-0.017-0.026c0.069-0.469,0.077-0.91,0.077-1.561V13.83
			c0-0.581-0.242-0.771-0.572-0.771c-0.303,0-0.788,0.26-1.196,0.677v1.049c0,0.659,0.009,1.066,0.078,1.561l-0.018,0.026
			c-0.104-0.018-0.303-0.026-0.407-0.026c-0.104,0-0.304,0.009-0.407,0.026l-0.018-0.026c0.069-0.469,0.078-0.91,0.078-1.561v-0.477
			c0-0.65-0.018-1.307-0.078-1.683l0.018-0.025c0.196,0.02,0.507,0.013,0.702-0.026c0.041,0,0.052,0.02,0.052,0.087v0.633
			L98.426,13.318z"/>
		<path d="M107.564,15.66c-0.33,0.45-0.885,0.771-1.509,0.771c-0.585,0-1.08-0.215-1.379-0.572c-0.29-0.349-0.39-0.835-0.39-1.327
			c0-1.274,0.884-1.994,1.777-1.994c1.145,0,1.5,0.911,1.5,1.639c0,0.096-0.062,0.147-0.156,0.147h-2.358
			c0,0.504,0.056,0.857,0.208,1.102c0.238,0.382,0.648,0.494,0.945,0.494c0.477,0,0.884-0.147,1.188-0.477L107.564,15.66z
			 M106.671,13.978c0.087,0,0.121-0.043,0.121-0.121c0-0.65-0.386-0.971-0.728-0.971c-0.273,0-0.841,0.19-0.988,1.092H106.671z"/>
		<path d="M111.986,16.345l-0.018,0.026c-0.104-0.018-0.304-0.026-0.407-0.026c-0.104,0-0.304,0.009-0.408,0.026l-0.018-0.026
			c0.062-0.467,0.078-0.91,0.078-1.561v-0.85c0-0.702-0.182-0.876-0.624-0.876c-0.312,0-0.814,0.19-1.257,0.711v1.015
			c0,0.659,0.009,1.066,0.078,1.561l-0.018,0.026c-0.104-0.018-0.304-0.026-0.407-0.026c-0.104,0-0.304,0.009-0.408,0.026
			l-0.017-0.026c0.069-0.469,0.078-0.91,0.078-1.561v-0.477c0-0.65-0.018-1.307-0.078-1.683l0.017-0.025
			c0.197,0.02,0.508,0.013,0.703-0.026c0.04,0,0.05,0.02,0.052,0.087v0.633l0.018,0.025c0.555-0.649,1.17-0.78,1.5-0.78
			c0.78,0,1.074,0.469,1.074,1.37c0,0.277-0.017,0.599-0.017,0.876C111.908,15.443,111.918,15.851,111.986,16.345z"/>
		<path d="M115.246,15.929c-0.46,0.39-0.702,0.503-1.18,0.503c-0.642,0-1.083-0.295-1.083-0.937c0-0.59,0.555-1.058,1.438-1.257
			l0.807-0.183c0.026-0.009,0.061-0.043,0.061-0.104c0-0.98-0.52-1.023-0.832-1.023c-0.416,0-0.711,0.347-0.954,0.737l-0.112-0.009
			l-0.147-0.581l0.026-0.035c0.217-0.182,0.615-0.503,1.274-0.503c0.658,0,1.431,0.234,1.431,1.405c0,0.095-0.024,1.058-0.024,1.309
			c0,0.386,0.056,0.596,0.145,0.677c0.053,0.048,0.168,0.064,0.254,0.064c0.066,0,0.14-0.012,0.234-0.045l0.063,0.215
			c-0.204,0.216-0.471,0.269-0.689,0.269c-0.317,0-0.577-0.164-0.676-0.503H115.246z M114.544,14.594
			c-0.677,0.182-0.858,0.477-0.858,0.866c0,0.27,0.251,0.529,0.642,0.529c0.26,0,0.555-0.156,0.798-0.338
			c0.068-0.053,0.121-0.113,0.121-0.226l0.034-1.032L114.544,14.594z"/>
		<path d="M120.11,15.859l0.017,0.025c-0.009,0.069-0.017,0.147-0.017,0.226s0.008,0.121,0.017,0.234l-0.017,0.026
			c-0.131-0.018-0.312-0.026-0.486-0.026h-1.959c-0.247,0-0.702,0.026-0.702,0.026l-0.026-0.039c0.069-0.08,0.121-0.161,0.19-0.265
			l2.038-3.05c-0.994,0.015-1.978,0.093-1.978,0.093l-0.017-0.025c0.009-0.069,0.017-0.147,0.017-0.226s-0.008-0.121-0.017-0.234
			l0.017-0.025c0.131,0.017,0.312,0.025,0.486,0.025h1.769c0.251,0,0.656-0.055,0.699-0.055c0.035,0,0.046,0.021,0.046,0.055
			c-0.052,0.061-0.112,0.145-0.26,0.364l-1.986,2.965C118.996,15.948,120.11,15.859,120.11,15.859z"/>
		<path d="M123.023,15.929c-0.46,0.39-0.703,0.503-1.18,0.503c-0.642,0-1.083-0.295-1.083-0.937c0-0.59,0.555-1.058,1.438-1.257
			l0.807-0.183c0.025-0.009,0.061-0.043,0.061-0.104c0-0.98-0.521-1.023-0.832-1.023c-0.417,0-0.712,0.347-0.954,0.737l-0.112-0.009
			l-0.147-0.581l0.025-0.035c0.217-0.182,0.616-0.503,1.274-0.503c0.659,0,1.431,0.234,1.431,1.405c0,0.095-0.023,1.058-0.023,1.309
			c0,0.386,0.056,0.596,0.145,0.677c0.053,0.048,0.168,0.064,0.254,0.064c0.065,0,0.14-0.012,0.234-0.045l0.063,0.215
			c-0.204,0.216-0.472,0.269-0.689,0.269c-0.317,0-0.577-0.164-0.676-0.503H123.023z M122.32,14.594
			c-0.676,0.182-0.857,0.477-0.857,0.866c0,0.27,0.251,0.529,0.641,0.529c0.261,0,0.555-0.156,0.798-0.338
			c0.069-0.053,0.122-0.113,0.122-0.226l0.034-1.032L122.32,14.594z"/>
		<path d="M126.552,16.432c-0.937,0-1.569-0.867-1.569-1.934c0-1.18,0.83-1.96,1.959-1.96c0.174,0,0.529,0.078,0.729,0.191v-0.563
			c0-0.659-0.011-1.304-0.078-1.674l0.018-0.025c0.352-0.026,0.537-0.087,0.755-0.174c0.055,0,0.077,0.026,0.077,0.087
			c-0.043,0.535-0.077,0.988-0.077,1.63v2.67c0,0.65,0.077,1.292,0.146,1.665l-0.018,0.026c-0.112-0.018-0.275-0.026-0.385-0.026
			c-0.126,0-0.185,0.011-0.3,0.026c-0.052,0-0.077-0.009-0.077-0.026l-0.044-0.503h-0.018
			C127.357,16.245,126.968,16.432,126.552,16.432z M127.67,13.389c-0.208-0.33-0.416-0.503-0.823-0.503
			c-0.42,0-1.11,0.242-1.11,1.543c0,1.084,0.399,1.552,0.867,1.552c0.352,0,0.75-0.213,1.066-0.615V13.389z"/>
		<path d="M131.338,12.538c1.17,0,1.803,0.772,1.803,1.951c0,1.136-0.693,1.942-1.838,1.942c-1.153,0-1.838-0.824-1.838-1.864
			C129.465,13.336,130.202,12.538,131.338,12.538z M130.228,14.42c0,0.668,0.234,1.665,1.153,1.665c0.581,0,0.997-0.615,0.997-1.439
			c0-1.049-0.182-1.76-1.101-1.76C130.462,12.886,130.228,13.666,130.228,14.42z"/>
	</g>
	<g>
		<path d="M158.12,4.33l0.018-0.026c0.104,0.018,0.338,0.026,0.442,0.026c0.26,0,0.988-0.061,1.214-0.061
			c1.604,0,2.012,0.884,2.012,1.525c0,0.737-0.547,1.734-2.124,1.734c-0.304,0-0.538-0.026-0.729-0.087v0.746
			c0,0.65,0.017,1.239,0.086,1.733l-0.017,0.026c-0.104-0.018-0.338-0.026-0.442-0.026s-0.338,0.009-0.442,0.026l-0.018-0.026
			c0.069-0.468,0.087-1.083,0.087-1.733V6.064C158.207,5.414,158.189,4.824,158.12,4.33z M158.953,7.069
			c0.112,0.062,0.468,0.087,0.685,0.087c0.841,0,1.326-0.32,1.326-1.317c0-1.032-0.633-1.196-1.23-1.196
			c-0.625,0-0.78,0.13-0.78,0.381V7.069z"/>
		<path d="M163.626,7.044c0.382-0.659,0.633-0.928,1.102-0.928c0.155,0,0.164,0.018,0.312,0.061l0.034,0.035L164.9,6.853
			l-0.069,0.018c-0.112-0.104-0.277-0.121-0.451-0.121c-0.164,0-0.359,0.11-0.485,0.304c-0.187,0.286-0.295,0.494-0.295,0.858v0.45
			c0,0.659,0.013,1.066,0.078,1.561l-0.017,0.026c-0.104-0.018-0.304-0.026-0.408-0.026c-0.104,0-0.304,0.009-0.407,0.026
			l-0.018-0.026c0.067-0.466,0.078-0.91,0.078-1.561V7.885c0-0.65-0.018-1.307-0.078-1.682l0.018-0.026
			c0.197,0.02,0.507,0.013,0.702-0.026c0.041,0,0.052,0.021,0.052,0.087v0.789L163.626,7.044z"/>
		<path d="M168.732,9.237c-0.329,0.451-0.884,0.771-1.508,0.771c-0.585,0-1.081-0.214-1.379-0.572
			c-0.29-0.349-0.391-0.835-0.391-1.326c0-1.274,0.885-1.994,1.777-1.994c1.145,0,1.5,0.91,1.5,1.639
			c0,0.095-0.061,0.147-0.155,0.147h-2.358c0,0.504,0.056,0.857,0.208,1.101c0.238,0.382,0.648,0.494,0.945,0.494
			c0.477,0,0.884-0.147,1.188-0.477L168.732,9.237z M167.84,7.556c0.087,0,0.121-0.044,0.121-0.122c0-0.65-0.386-0.971-0.729-0.971
			c-0.272,0-0.841,0.19-0.988,1.093H167.84z"/>
		<path d="M171.352,6.116c1.17,0,1.803,0.771,1.803,1.95c0,1.136-0.693,1.942-1.838,1.942c-1.153,0-1.838-0.823-1.838-1.864
			C169.479,6.914,170.216,6.116,171.352,6.116z M170.241,7.997c0,0.668,0.234,1.665,1.153,1.665c0.581,0,0.997-0.614,0.997-1.439
			c0-1.049-0.183-1.76-1.102-1.76C170.476,6.463,170.241,7.243,170.241,7.997z"/>
		<path d="M174.637,7.988c0,1.015,0.494,1.587,1.128,1.587c0.322,0,0.598-0.069,0.927-0.364h0.035l0.165,0.183
			c-0.348,0.442-0.755,0.615-1.274,0.615c-1.058,0-1.743-0.771-1.743-1.977c0-1.18,0.945-1.916,1.847-1.916
			c0.434,0,0.885,0.104,1.153,0.242l0.018,0.026l-0.2,0.711l-0.112,0.009c-0.229-0.395-0.533-0.642-0.867-0.642
			C175.14,6.463,174.637,7.035,174.637,7.988z"/>
		<path d="M179.119,10.009c-0.858,0-1.136-0.606-1.136-1.205v-1.04c0-0.659-0.008-1.066-0.078-1.561l0.018-0.026
			c0.104,0.018,0.304,0.026,0.407,0.026c0.104,0,0.304-0.009,0.408-0.026l0.018,0.026c-0.069,0.459-0.078,0.91-0.078,1.561v0.858
			c0,0.806,0.281,0.901,0.581,0.901c0.424,0,0.923-0.464,1.188-0.91v-0.85c0-0.659-0.011-1.065-0.078-1.561l0.017-0.026
			c0.104,0.018,0.304,0.026,0.408,0.026c0.104,0,0.304-0.009,0.407-0.026l0.018,0.026c-0.069,0.459-0.078,0.91-0.078,1.561v0.494
			c0,0.65,0.078,1.292,0.147,1.664l-0.018,0.026c-0.112-0.018-0.276-0.026-0.386-0.026c-0.126,0-0.228,0.012-0.343,0.026
			c-0.023,0-0.034-0.009-0.034-0.026l-0.044-0.771l-0.034-0.025C180.143,9.566,179.657,10.009,179.119,10.009z"/>
		<path d="M183.342,6.896c0.399-0.607,0.833-0.78,1.171-0.78c0.971,0,1.508,0.884,1.508,1.803c0,1.222-0.693,2.09-1.838,2.09
			c-0.312,0-0.633-0.069-0.858-0.19v0.381c0,0.652,0.016,1.24,0.079,1.734l-0.018,0.026c-0.104-0.018-0.304-0.026-0.408-0.026
			c-0.104,0-0.303,0.009-0.407,0.026l-0.018-0.026c0.062-0.467,0.078-1.088,0.078-1.734V7.885c0-0.65-0.018-1.307-0.078-1.682
			l0.018-0.026c0.197,0.02,0.508,0.013,0.702-0.026c0.041,0,0.052,0.021,0.052,0.087V6.87L183.342,6.896z M183.324,9.271
			c0.304,0.355,0.668,0.391,0.807,0.391c0.928,0,1.127-0.919,1.127-1.63c0-0.979-0.304-1.518-0.893-1.518
			c-0.339,0-0.851,0.399-1.041,0.858V9.271z"/>
		<path d="M189.107,9.506c-0.459,0.391-0.702,0.503-1.179,0.503c-0.642,0-1.084-0.295-1.084-0.937c0-0.59,0.555-1.058,1.439-1.257
			l0.807-0.182c0.025-0.009,0.061-0.044,0.061-0.104c0-0.979-0.521-1.023-0.832-1.023c-0.417,0-0.712,0.347-0.954,0.737
			l-0.113-0.009l-0.147-0.581l0.026-0.034c0.217-0.183,0.615-0.503,1.274-0.503s1.431,0.234,1.431,1.404
			c0,0.096-0.024,1.058-0.024,1.31c0,0.386,0.057,0.596,0.145,0.676c0.054,0.049,0.169,0.065,0.254,0.065
			c0.066,0,0.141-0.013,0.234-0.045l0.064,0.214c-0.205,0.217-0.472,0.269-0.69,0.269c-0.317,0-0.576-0.164-0.675-0.503H189.107z
			 M188.405,8.171c-0.677,0.182-0.858,0.477-0.858,0.867c0,0.269,0.252,0.528,0.642,0.528c0.26,0,0.555-0.156,0.798-0.338
			c0.069-0.052,0.121-0.112,0.121-0.226l0.035-1.031L188.405,8.171z"/>
		<path d="M191.718,7.988c0,1.015,0.494,1.587,1.127,1.587c0.322,0,0.598-0.069,0.928-0.364h0.034l0.165,0.183
			c-0.347,0.442-0.754,0.615-1.274,0.615c-1.059,0-1.743-0.771-1.743-1.977c0-1.18,0.945-1.916,1.847-1.916
			c0.434,0,0.885,0.104,1.153,0.242l0.018,0.026l-0.199,0.711l-0.113,0.009c-0.229-0.395-0.533-0.642-0.867-0.642
			C192.22,6.463,191.718,7.035,191.718,7.988z"/>
		<path d="M195.48,4.304c0.233,0,0.442,0.208,0.442,0.442s-0.209,0.442-0.442,0.442c-0.234,0-0.442-0.208-0.442-0.442
			S195.246,4.304,195.48,4.304z M195.047,6.203l0.017-0.026c0.185,0.015,0.558,0.012,0.755-0.009c0.067,0,0.078,0.009,0.078,0.087
			c-0.057,0.528-0.078,0.841-0.078,1.491v0.615c0,0.659,0.016,1.068,0.078,1.561l-0.018,0.026c-0.104-0.018-0.304-0.026-0.407-0.026
			c-0.104,0-0.304,0.009-0.408,0.026l-0.017-0.026c0.062-0.468,0.078-0.91,0.078-1.561V7.885
			C195.125,7.234,195.101,6.574,195.047,6.203z"/>
		<path d="M198.801,6.116c1.171,0,1.804,0.771,1.804,1.95c0,1.136-0.694,1.942-1.838,1.942c-1.153,0-1.838-0.823-1.838-1.864
			C196.929,6.914,197.665,6.116,198.801,6.116z M197.69,7.997c0,0.668,0.234,1.665,1.153,1.665c0.581,0,0.997-0.614,0.997-1.439
			c0-1.049-0.182-1.76-1.101-1.76C197.925,6.463,197.69,7.243,197.69,7.997z M199.147,4.087c0.056,0,0.277,0.009,0.477,0.2
			l0.026,0.095l-0.997,0.945c-0.13,0.13-0.199,0.165-0.26,0.165s-0.122-0.053-0.122-0.113c0-0.097,0.029-0.132,0.1-0.242
			l0.655-1.032C199.053,4.096,199.104,4.087,199.147,4.087z"/>
		<path d="M205,9.922l-0.018,0.026c-0.104-0.018-0.304-0.026-0.407-0.026s-0.304,0.009-0.407,0.026l-0.018-0.026
			c0.062-0.466,0.078-0.91,0.078-1.561v-0.85c0-0.702-0.183-0.876-0.624-0.876c-0.312,0-0.815,0.191-1.258,0.712v1.014
			c0,0.659,0.009,1.066,0.078,1.561l-0.018,0.026c-0.104-0.018-0.303-0.026-0.407-0.026c-0.104,0-0.303,0.009-0.407,0.026
			l-0.018-0.026c0.069-0.468,0.078-0.91,0.078-1.561V7.885c0-0.65-0.018-1.307-0.078-1.682l0.018-0.026
			c0.197,0.02,0.507,0.013,0.702-0.026c0.041,0,0.051,0.021,0.052,0.087V6.87l0.018,0.026c0.555-0.65,1.171-0.78,1.5-0.78
			c0.78,0,1.075,0.468,1.075,1.37c0,0.277-0.018,0.598-0.018,0.875C204.922,9.021,204.933,9.428,205,9.922z"/>
		<path d="M171.381,13.833c0.408-0.434,0.92-0.78,1.457-0.78c0.485,0,0.841,0.269,0.919,0.685c0.494-0.521,0.997-0.685,1.465-0.685
			c0.937,0,1.075,0.606,1.075,1.378v0.867c0,0.659,0.009,1.066,0.078,1.561l-0.018,0.026c-0.104-0.018-0.303-0.026-0.407-0.026
			s-0.304,0.009-0.407,0.026l-0.018-0.026c0.069-0.468,0.078-0.91,0.078-1.561v-0.954c0-0.58-0.226-0.771-0.693-0.771
			c-0.338,0-0.686,0.061-1.102,0.521c0.009,0.104,0.009,0.208,0.009,0.329v0.876c0,0.659,0.009,1.066,0.078,1.561l-0.018,0.026
			c-0.104-0.018-0.303-0.026-0.407-0.026s-0.304,0.009-0.407,0.026l-0.018-0.026c0.069-0.468,0.078-0.91,0.078-1.561v-0.954
			c0-0.58-0.243-0.771-0.572-0.771c-0.304,0-0.789,0.261-1.196,0.677v1.049c0,0.659,0.009,1.066,0.078,1.561l-0.018,0.026
			c-0.104-0.018-0.304-0.026-0.407-0.026c-0.104,0-0.304,0.009-0.408,0.026l-0.017-0.026c0.069-0.468,0.078-0.91,0.078-1.561v-0.477
			c0-0.65-0.018-1.307-0.078-1.683l0.017-0.025c0.197,0.02,0.508,0.013,0.703-0.026c0.04,0,0.052,0.021,0.052,0.087v0.633
			L171.381,13.833z"/>
		<path d="M180.52,16.174c-0.329,0.45-0.884,0.771-1.509,0.771c-0.584,0-1.08-0.214-1.378-0.572c-0.291-0.349-0.39-0.835-0.39-1.326
			c0-1.275,0.884-1.994,1.776-1.994c1.145,0,1.5,0.91,1.5,1.639c0,0.095-0.061,0.146-0.156,0.146h-2.358
			c0,0.504,0.057,0.857,0.209,1.102c0.238,0.382,0.648,0.494,0.944,0.494c0.478,0,0.885-0.147,1.188-0.477L180.52,16.174z
			 M179.627,14.491c0.087,0,0.121-0.043,0.121-0.121c0-0.65-0.386-0.971-0.729-0.971c-0.272,0-0.841,0.19-0.988,1.092H179.627z"/>
		<path d="M184.941,16.858l-0.018,0.026c-0.104-0.018-0.303-0.026-0.407-0.026c-0.104,0-0.304,0.009-0.407,0.026l-0.018-0.026
			c0.062-0.467,0.078-0.91,0.078-1.561v-0.85c0-0.702-0.183-0.876-0.624-0.876c-0.312,0-0.815,0.191-1.258,0.711v1.015
			c0,0.659,0.009,1.066,0.078,1.561l-0.018,0.026c-0.104-0.018-0.303-0.026-0.407-0.026c-0.104,0-0.303,0.009-0.407,0.026
			l-0.018-0.026c0.069-0.468,0.078-0.91,0.078-1.561v-0.477c0-0.65-0.018-1.307-0.078-1.683l0.018-0.025
			c0.196,0.02,0.507,0.013,0.702-0.026c0.041,0,0.051,0.021,0.052,0.087v0.633l0.018,0.026c0.555-0.65,1.171-0.78,1.5-0.78
			c0.78,0,1.075,0.468,1.075,1.369c0,0.277-0.018,0.599-0.018,0.876C184.863,15.957,184.874,16.364,184.941,16.858z"/>
		<path d="M187.75,13.053c1.171,0,1.804,0.771,1.804,1.95c0,1.136-0.693,1.942-1.838,1.942c-1.153,0-1.838-0.824-1.838-1.864
			C185.878,13.85,186.614,13.053,187.75,13.053z M186.641,14.934c0,0.668,0.234,1.665,1.153,1.665c0.581,0,0.997-0.615,0.997-1.439
			c0-1.049-0.182-1.76-1.101-1.76C186.875,13.399,186.641,14.18,186.641,14.934z"/>
		<path d="M191.357,13.98c0.382-0.659,0.633-0.928,1.102-0.928c0.155,0,0.164,0.017,0.312,0.061l0.035,0.034l-0.174,0.642
			l-0.069,0.018c-0.112-0.104-0.277-0.121-0.451-0.121c-0.164,0-0.359,0.109-0.485,0.303c-0.187,0.286-0.295,0.494-0.295,0.858
			v0.451c0,0.659,0.014,1.066,0.078,1.561l-0.017,0.026c-0.104-0.018-0.304-0.026-0.407-0.026c-0.104,0-0.304,0.009-0.408,0.026
			l-0.018-0.026c0.068-0.467,0.078-0.91,0.078-1.561v-0.477c0-0.65-0.018-1.307-0.078-1.683l0.018-0.025
			c0.197,0.02,0.507,0.013,0.702-0.026c0.041,0,0.052,0.021,0.052,0.087v0.789L191.357,13.98z"/>
	</g>
	<g>
		<path d="M5.901,16.572c1.162,0,2.445-0.104,2.445-0.104l0.018,0.034c-0.009,0.069-0.018,0.2-0.018,0.286
			c0,0.087,0.009,0.147,0.018,0.27l-0.018,0.025c-0.139-0.018-0.339-0.025-0.521-0.025H5.459c-0.303,0-0.45,0.025-0.45,0.025
			L5,17.059c0.069-0.469,0.086-1.084,0.086-1.734V13.2c0-0.65-0.017-1.24-0.086-1.734l0.018-0.025c0,0,0.146,0.025,0.441,0.025h2.28
			c0.183,0,0.382-0.009,0.521-0.025l0.018,0.025c-0.009,0.121-0.018,0.261-0.018,0.329c0,0.078,0.009,0.156,0.018,0.226L8.26,12.056
			c0,0-1.196-0.104-2.358-0.104c-0.061,0.208-0.069,1.102-0.069,1.249v0.676c1.023,0,1.422-0.043,1.934-0.086l0.026,0.025
			c-0.018,0.078-0.026,0.199-0.026,0.277s0.009,0.199,0.026,0.277l-0.026,0.026c-0.599-0.061-1.518-0.087-1.934-0.087v1.015
			C5.832,15.472,5.841,16.364,5.901,16.572z"/>
		<path d="M9.058,13.312c0.139,0.02,0.364,0.026,0.503,0.026c0.147,0,0.318-0.007,0.468-0.026c0.292,0.483,0.529,0.943,0.877,1.417
			c0.365-0.474,0.637-0.934,0.97-1.417c0.091,0.02,0.226,0.026,0.321,0.026c0.086,0,0.279-0.007,0.39-0.026l-1.423,1.749
			c0.468,0.677,0.89,1.346,1.414,2.022c-0.134-0.015-0.364-0.025-0.494-0.025c-0.139,0-0.316,0.007-0.441,0.025
			c-0.316-0.497-0.572-0.971-0.92-1.457c-0.347,0.486-0.604,0.96-0.936,1.457c-0.09-0.016-0.295-0.025-0.382-0.025
			s-0.228,0.01-0.312,0.025l1.357-1.818L9.058,13.312z"/>
		<path d="M13.652,12.229l0.018-0.025c0.282-0.039,0.39-0.13,0.607-0.217c0.055,0,0.078,0.023,0.078,0.087
			c-0.04,0.503-0.044,0.617-0.044,1.266h0.407c0.2,0,0.451-0.012,0.607-0.018l0.043,0.061c-0.052,0.128-0.078,0.217-0.104,0.355
			c-0.115-0.011-0.416-0.017-0.625-0.017h-0.329v1.092c0,0.521-0.026,0.894-0.026,1.153c0,0.469,0.081,0.678,0.286,0.711
			c0.217,0.035,0.417,0.026,0.683-0.066l0.106,0.214c-0.364,0.234-0.642,0.32-1.005,0.32c-0.399,0-0.764-0.269-0.764-0.832
			c0-0.26,0.026-0.884,0.026-1.404v-1.188c-0.198,0-0.467,0.006-0.616,0.017l-0.043-0.061c0.084-0.13,0.133-0.214,0.19-0.355
			c0.108,0.014,0.291,0.017,0.469,0.018C13.618,12.836,13.636,12.529,13.652,12.229z"/>
		<path d="M16.878,11.44c0.234,0,0.442,0.208,0.442,0.441c0,0.234-0.208,0.442-0.442,0.442s-0.442-0.208-0.442-0.442
			C16.436,11.648,16.644,11.44,16.878,11.44z M16.444,13.339l0.018-0.026c0.184,0.015,0.558,0.012,0.754-0.009
			c0.068,0,0.078,0.009,0.078,0.087c-0.057,0.529-0.078,0.841-0.078,1.491v0.615c0,0.659,0.016,1.068,0.078,1.562l-0.018,0.025
			c-0.104-0.018-0.303-0.025-0.407-0.025c-0.104,0-0.303,0.008-0.407,0.025l-0.018-0.025c0.062-0.469,0.078-0.911,0.078-1.562
			v-0.477C16.522,14.37,16.499,13.71,16.444,13.339z"/>
		<path d="M22.062,17.059l-0.018,0.025c-0.104-0.018-0.303-0.025-0.407-0.025c-0.104,0-0.304,0.008-0.407,0.025l-0.018-0.025
			c0.062-0.467,0.078-0.911,0.078-1.562v-0.85c0-0.702-0.182-0.875-0.624-0.875c-0.312,0-0.815,0.19-1.258,0.711v1.014
			c0,0.659,0.009,1.066,0.078,1.562l-0.017,0.025c-0.104-0.018-0.304-0.025-0.408-0.025c-0.104,0-0.303,0.008-0.407,0.025
			l-0.018-0.025c0.069-0.469,0.078-0.911,0.078-1.562v-0.477c0-0.65-0.018-1.307-0.078-1.682l0.018-0.026
			c0.197,0.021,0.507,0.014,0.702-0.025c0.041,0,0.051,0.02,0.052,0.086v0.633l0.018,0.026c0.555-0.65,1.171-0.78,1.5-0.78
			c0.78,0,1.075,0.469,1.075,1.37c0,0.277-0.018,0.598-0.018,0.875C21.984,16.156,21.995,16.563,22.062,17.059z"/>
		<path d="M23.528,12.229l0.017-0.025c0.282-0.039,0.39-0.13,0.607-0.217c0.055,0,0.078,0.023,0.078,0.087
			c-0.039,0.503-0.044,0.617-0.044,1.266h0.408c0.199,0,0.45-0.012,0.606-0.018l0.043,0.061c-0.052,0.128-0.077,0.217-0.104,0.355
			c-0.115-0.011-0.416-0.017-0.624-0.017h-0.33v1.092c0,0.521-0.025,0.894-0.025,1.153c0,0.469,0.08,0.678,0.286,0.711
			c0.217,0.035,0.416,0.026,0.682-0.066l0.107,0.214c-0.364,0.234-0.642,0.32-1.006,0.32c-0.399,0-0.764-0.269-0.764-0.832
			c0-0.26,0.026-0.884,0.026-1.404v-1.188c-0.197,0-0.467,0.006-0.615,0.017l-0.044-0.061c0.084-0.13,0.133-0.214,0.191-0.355
			c0.107,0.014,0.29,0.017,0.468,0.018C23.493,12.836,23.511,12.529,23.528,12.229z"/>
		<path d="M27.819,13.252c1.171,0,1.804,0.771,1.804,1.951c0,1.136-0.693,1.941-1.838,1.941c-1.153,0-1.838-0.823-1.838-1.863
			C25.947,14.05,26.684,13.252,27.819,13.252z M26.71,15.134c0,0.667,0.234,1.664,1.153,1.664c0.581,0,0.997-0.614,0.997-1.439
			c0-1.049-0.183-1.76-1.102-1.76C26.944,13.599,26.71,14.379,26.71,15.134z"/>
	</g>
	
		<line fill="none" stroke="#000000" stroke-linecap="round" stroke-linejoin="round" stroke-miterlimit="10" x1="16.897" y1="19.414" x2="16.897" y2="25.414"/>
	
		<line fill="none" stroke="#000000" stroke-linecap="round" stroke-linejoin="round" stroke-miterlimit="10" x1="180.897" y1="19.414" x2="180.897" y2="25.414"/>
</g>
</svg>
