<?xml version="1.0" encoding="utf-8"?>
<!-- Generator: Adobe Illustrator 16.0.0, SVG Export Plug-In . SVG Version: 6.00 Build 0)  -->
<!DOCTYPE svg PUBLIC "-//W3C//DTD SVG 1.1//EN" "http://www.w3.org/Graphics/SVG/1.1/DTD/svg11.dtd">
<svg version="1.1" id="Layer_1" xmlns="http://www.w3.org/2000/svg" xmlns:xlink="http://www.w3.org/1999/xlink" x="0px" y="0px"
	 width="200px" height="50px" viewBox="0 0 200 50" enable-background="new 0 0 200 50" xml:space="preserve">
<path id="path13406_2_" fill="#FFFFFF" stroke="#000000" stroke-width="0.281" stroke-linecap="round" d="M45.079,36.177
	c0,4.878-4.11,8.831-9.179,8.831c-5.07,0-9.179-3.953-9.179-8.831s4.109-8.833,9.179-8.833
	C40.969,27.344,45.079,31.299,45.079,36.177L45.079,36.177z"/>
<path id="text13438_2_" d="M29.056,39.152V33.2h4.723v1.006h-3.436v1.32h3.197v1.003h-3.197v1.619h3.558v1.004H29.056z
	 M35.903,39.152l-1.52-5.952h1.316l0.96,4.088l1.164-4.088h1.529l1.117,4.158l0.978-4.158h1.294l-1.547,5.952h-1.364l-1.268-4.45
	l-1.265,4.45H35.903z"/>
<path id="path13412_2_" fill="none" stroke="#000000" stroke-width="0.281" stroke-linecap="round" d="M138.477,36.177
	c0,4.878-4.111,8.831-9.181,8.831s-9.179-3.953-9.179-8.831s4.109-8.833,9.179-8.833S138.477,31.299,138.477,36.177L138.477,36.177z
	"/>
<path id="text13426_2_" stroke="#000000" stroke-width="0.281" d="M125.734,39.107l-2.28-5.964h1.397l1.614,4.413l1.563-4.413h1.366
	l-2.286,5.964H125.734z M130.053,33.144h1.288v3.229c0,0.513,0.017,0.845,0.047,0.997c0.057,0.243,0.187,0.438,0.396,0.587
	c0.206,0.147,0.489,0.222,0.85,0.222c0.364,0,0.642-0.069,0.826-0.209c0.187-0.139,0.297-0.312,0.336-0.516
	c0.036-0.203,0.057-0.541,0.057-1.012v-3.299h1.287v3.132c0,0.716-0.034,1.222-0.104,1.517c-0.071,0.296-0.199,0.545-0.386,0.748
	c-0.187,0.204-0.437,0.367-0.751,0.487c-0.313,0.121-0.722,0.181-1.226,0.181c-0.61,0-1.073-0.065-1.388-0.197
	c-0.313-0.132-0.564-0.303-0.745-0.513c-0.184-0.21-0.304-0.431-0.362-0.661c-0.083-0.341-0.126-0.846-0.126-1.514V33.144z"/>
<path id="path13410_2_" fill="#FFFFFF" stroke="#000000" stroke-width="0.25" stroke-miterlimit="10" d="M115.127,36.177
	c0,4.878-4.109,8.831-9.179,8.831c-5.07,0-9.18-3.953-9.18-8.831s4.11-8.833,9.18-8.833
	C111.018,27.344,115.127,31.299,115.127,36.177L115.127,36.177z"/>
<path id="text13430_2_" stroke="#000000" stroke-width="0.281" d="M100.339,39.208v-6.064h4.812v1.026h-3.502v1.345h3.258v1.021
	h-3.258v1.65h3.626v1.021H100.339z M106.408,39.208v-6.064h1.274l2.655,4.05v-4.05h1.217v6.064h-1.313l-2.616-3.955v3.955H106.408z"
	/>
<path id="path13408_2_" fill="#FFFFFF" stroke="#000000" stroke-width="0.25" stroke-miterlimit="10" d="M91.778,36.177
	c0,4.878-4.11,8.831-9.18,8.831c-5.069,0-9.179-3.953-9.179-8.831s4.109-8.833,9.179-8.833
	C87.667,27.344,91.778,31.299,91.778,36.177L91.778,36.177z"/>
<path id="text13442_2_" stroke="#000000" stroke-width="0.281" d="M80.735,36.952l1.228,0.364c-0.188,0.64-0.502,1.115-0.94,1.426
	c-0.438,0.311-0.994,0.466-1.667,0.466c-0.833,0-1.518-0.266-2.055-0.797c-0.536-0.533-0.805-1.261-0.805-2.183
	c0-0.977,0.27-1.733,0.81-2.274c0.54-0.54,1.249-0.811,2.127-0.811c0.767,0,1.391,0.213,1.87,0.637c0.286,0.251,0.5,0.61,0.642,1.08
	l-1.253,0.28c-0.075-0.305-0.229-0.545-0.464-0.72c-0.236-0.177-0.522-0.266-0.858-0.266c-0.466,0-0.843,0.156-1.133,0.47
	c-0.289,0.312-0.435,0.815-0.435,1.515c0,0.742,0.143,1.271,0.428,1.584c0.285,0.316,0.656,0.472,1.113,0.472
	c0.337,0,0.626-0.1,0.869-0.3C80.455,37.697,80.628,37.381,80.735,36.952L80.735,36.952z M83.059,39.108v-5.864h2.667
	c0.67,0,1.157,0.052,1.462,0.158c0.303,0.104,0.546,0.293,0.729,0.562c0.183,0.27,0.273,0.577,0.273,0.925
	c0,0.439-0.138,0.804-0.415,1.09s-0.69,0.467-1.241,0.542c0.273,0.149,0.5,0.312,0.677,0.491c0.179,0.179,0.42,0.496,0.722,0.952
	l0.767,1.145h-1.516l-0.915-1.277c-0.326-0.455-0.548-0.743-0.668-0.86c-0.12-0.119-0.247-0.2-0.381-0.244
	c-0.134-0.045-0.347-0.067-0.638-0.067h-0.256v2.449H83.059z M84.326,35.725h0.937c0.608,0,0.988-0.024,1.139-0.072
	c0.151-0.048,0.269-0.131,0.355-0.248c0.085-0.118,0.128-0.264,0.128-0.44c0-0.197-0.056-0.356-0.169-0.478
	c-0.112-0.121-0.272-0.197-0.478-0.23c-0.103-0.014-0.41-0.02-0.924-0.02h-0.989V35.725z"/>
<path id="path13404_7_" fill="#FFFFFF" stroke="#000000" stroke-width="0.281" stroke-linecap="round" d="M21.729,36.177
	c0,4.878-4.109,8.831-9.18,8.831c-5.069,0-9.178-3.953-9.178-8.831s4.109-8.833,9.178-8.833
	C17.62,27.344,21.729,31.299,21.729,36.177L21.729,36.177z"/>
<path id="text13434_5_" d="M6.941,39.152V33.2h4.722v1.006H8.227v1.32h3.198v1.003H8.227v1.619h3.559v1.004H6.941z M12.237,39.152
	l2.177-3.106L12.441,33.2h1.503l1.278,1.911l1.25-1.911h1.491l-1.981,2.89l2.176,3.062h-1.551l-1.412-2.06l-1.416,2.06H12.237z"/>
<path id="path13414_6_" fill="#ADFF2F" stroke="#000000" stroke-width="0.281" stroke-linecap="round" d="M161.828,36.169
	c0,4.878-4.112,8.831-9.181,8.831c-5.069,0-9.18-3.953-9.18-8.831s4.11-8.833,9.18-8.833
	C157.716,27.336,161.828,31.291,161.828,36.169L161.828,36.169z"/>
<path id="text1899_2_" stroke="#000000" stroke-width="0.281" d="M147.034,39.208v-6.064h1.273l2.655,4.05v-4.05h1.218v6.064h-1.314
	l-2.617-3.955v3.955H147.034z M155.031,39.208V34.17h-1.927v-1.026h5.157v1.026h-1.921v5.038H155.031z"/>
<path id="path2072_2_" fill="#FFFFFF" stroke="#000000" stroke-width="0.281" stroke-linecap="round" d="M185.177,36.177
	c0,4.878-4.109,8.831-9.179,8.831s-9.18-3.953-9.18-8.831s4.11-8.833,9.18-8.833S185.177,31.299,185.177,36.177L185.177,36.177z"/>
<path id="text3021_2_" stroke="#000000" stroke-width="0.281" d="M170.714,39.108v-5.816h1.265v4.828h3.151v0.988H170.714z
	 M180.053,36.952l1.229,0.364c-0.188,0.64-0.501,1.115-0.938,1.426c-0.439,0.311-0.995,0.466-1.668,0.466
	c-0.834,0-1.52-0.266-2.056-0.797c-0.535-0.533-0.803-1.261-0.803-2.183c0-0.977,0.27-1.733,0.808-2.274
	c0.539-0.54,1.249-0.811,2.128-0.811c0.768,0,1.391,0.213,1.87,0.637c0.285,0.251,0.499,0.61,0.642,1.08l-1.254,0.28
	c-0.073-0.305-0.229-0.545-0.464-0.72c-0.235-0.177-0.521-0.266-0.859-0.266c-0.463,0-0.841,0.156-1.133,0.47
	c-0.289,0.312-0.433,0.815-0.433,1.515c0,0.742,0.143,1.271,0.428,1.584c0.286,0.316,0.655,0.472,1.111,0.472
	c0.339,0,0.628-0.1,0.872-0.3C179.773,37.697,179.947,37.381,180.053,36.952L180.053,36.952z"/>
<path id="path13404_6_" fill="#FFFFFF" stroke="#000000" stroke-width="0.281" stroke-linecap="round" d="M68.428,36.177
	c0,4.878-4.11,8.831-9.18,8.831c-5.069,0-9.179-3.953-9.179-8.831c0-4.877,4.109-8.833,9.179-8.833
	C64.318,27.344,68.428,31.3,68.428,36.177L68.428,36.177z"/>
<g>
	<path id="text13434_4_" d="M60.185,39.192v-6.049h4.798v1.023h-3.493v1.341h3.25v1.019h-3.25v1.646h3.616v1.021H60.185z"/>
	<g>
		<path d="M53.391,39.208v-6.064h2.677c0.674,0,1.163,0.055,1.468,0.165c0.305,0.108,0.549,0.302,0.733,0.58
			c0.183,0.279,0.275,0.598,0.275,0.955c0,0.456-0.139,0.831-0.417,1.128c-0.279,0.296-0.694,0.483-1.247,0.561
			c0.275,0.153,0.502,0.323,0.681,0.509c0.179,0.185,0.42,0.512,0.724,0.983l0.77,1.184h-1.521l-0.92-1.319
			c-0.326-0.472-0.55-0.77-0.67-0.892c-0.121-0.122-0.249-0.206-0.383-0.252c-0.135-0.046-0.349-0.068-0.64-0.068h-0.259v2.531
			H53.391z M54.663,35.709h0.942c0.61,0,0.992-0.024,1.144-0.074s0.271-0.135,0.357-0.257c0.085-0.122,0.129-0.272,0.129-0.455
			c0-0.204-0.057-0.368-0.17-0.494c-0.114-0.126-0.273-0.204-0.479-0.237c-0.104-0.014-0.413-0.021-0.929-0.021h-0.993V35.709z"/>
	</g>
</g>
<g>
	<path d="M116.374,22.375c-6.255,0.085-8.278-0.757-9.628-2.102h-0.281c-1.982,1.356-4.758,2.188-10.542,2.099L85.45,22.21
		c-5.903-0.091-9.417,0.719-9.417,1.6c-0.422,0.12-1.265,0.12-1.687,0c0-2.021,2.32-3.14,11.457-3.039l11.948,0.122
		c4.287,0.04,7.379-0.489,8.013-1.959c0.562-0.16,1.055-0.18,1.687,0c0.491,1.48,4.286,1.961,7.801,1.961l12.932-0.118
		c7.942-0.079,10.753,1.242,10.753,3.042c-0.421,0.12-1.265,0.12-1.687,0c-0.772-0.76-1.975-1.7-9.207-1.602L116.374,22.375z"/>
</g>
<g>
	<path d="M87.202,16.833c-0.103-0.025-0.292-0.025-0.387-0.025c-0.094,0-0.197,0-0.3,0.025c0.867-1.828,1.709-3.631,2.534-5.467
		h0.24c0.791,1.811,1.924,4.631,2.354,5.467c-0.146-0.025-0.37-0.025-0.516-0.025s-0.283,0-0.429,0.025
		c-0.053-0.184-0.247-0.829-0.667-1.913c-0.209-0.014-0.682-0.022-1.008-0.022c-0.296,0-0.894,0.008-1.108,0.022
		C87.608,15.643,87.343,16.326,87.202,16.833z M89.006,12.492h-0.018l-0.905,2.034c0.189,0.01,0.648,0.024,0.897,0.024
		c0.255,0,0.612-0.008,0.896-0.021C89.645,13.953,89.359,13.273,89.006,12.492z"/>
	<path d="M93.2,13.921c0.404-0.414,0.911-0.745,1.443-0.745c0.481,0,0.833,0.257,0.911,0.653c0.49-0.496,0.988-0.653,1.452-0.653
		c0.928,0,1.065,0.579,1.065,1.315v0.827c0,0.628,0.008,1.018,0.077,1.489l-0.017,0.025c-0.103-0.017-0.301-0.025-0.404-0.025
		s-0.301,0.008-0.404,0.025l-0.017-0.025c0.069-0.447,0.077-0.868,0.077-1.489v-0.91c0-0.554-0.223-0.736-0.687-0.736
		c-0.335,0-0.679,0.058-1.091,0.496c0.009,0.099,0.009,0.198,0.009,0.314v0.835c0,0.628,0.008,1.018,0.077,1.489l-0.017,0.025
		c-0.103-0.017-0.301-0.025-0.404-0.025s-0.301,0.008-0.404,0.025l-0.017-0.025c0.069-0.447,0.077-0.868,0.077-1.489v-0.91
		c0-0.554-0.24-0.736-0.567-0.736c-0.301,0-0.782,0.248-1.186,0.645v1c0,0.628,0.009,1.018,0.078,1.489l-0.018,0.025
		c-0.103-0.017-0.3-0.025-0.404-0.025c-0.103,0-0.3,0.008-0.403,0.025l-0.018-0.025c0.069-0.447,0.078-0.868,0.078-1.489v-0.455
		c0-0.621-0.018-1.247-0.078-1.604l0.018-0.025c0.195,0.019,0.502,0.012,0.696-0.025c0.04,0,0.051,0.019,0.051,0.083v0.604
		L93.2,13.921z"/>
	<path d="M102.258,16.154c-0.326,0.43-0.876,0.736-1.495,0.736c-0.579,0-1.07-0.204-1.366-0.545
		c-0.288-0.333-0.387-0.797-0.387-1.266c0-1.216,0.876-1.902,1.761-1.902c1.134,0,1.486,0.869,1.486,1.563
		c0,0.091-0.061,0.141-0.155,0.141h-2.336c0,0.48,0.055,0.818,0.207,1.05c0.236,0.364,0.643,0.471,0.936,0.471
		c0.473,0,0.876-0.141,1.177-0.455L102.258,16.154z M101.373,14.55c0.086,0,0.12-0.042,0.12-0.116c0-0.62-0.383-0.926-0.722-0.926
		c-0.271,0-0.833,0.182-0.979,1.042H101.373z"/>
	<path d="M106.641,16.808l-0.018,0.025c-0.103-0.017-0.301-0.025-0.403-0.025c-0.104,0-0.301,0.008-0.404,0.025l-0.017-0.025
		c0.062-0.445,0.077-0.868,0.077-1.489v-0.811c0-0.67-0.181-0.835-0.619-0.835c-0.309,0-0.807,0.182-1.245,0.678v0.967
		c0,0.628,0.009,1.018,0.077,1.489l-0.018,0.025c-0.103-0.017-0.3-0.025-0.403-0.025s-0.301,0.008-0.403,0.025l-0.018-0.025
		c0.068-0.447,0.077-0.868,0.077-1.489v-0.455c0-0.621-0.017-1.247-0.077-1.604l0.018-0.025c0.194,0.019,0.502,0.012,0.695-0.025
		c0.04,0,0.05,0.019,0.052,0.083v0.604l0.017,0.025c0.55-0.621,1.16-0.745,1.486-0.745c0.773,0,1.065,0.447,1.065,1.307
		c0,0.265-0.017,0.57-0.017,0.835C106.563,15.947,106.573,16.336,106.641,16.808z"/>
	<path d="M109.872,16.411c-0.455,0.372-0.696,0.479-1.169,0.479c-0.635,0-1.073-0.281-1.073-0.893c0-0.562,0.55-1.009,1.426-1.199
		l0.799-0.174c0.026-0.008,0.061-0.041,0.061-0.099c0-0.935-0.516-0.976-0.825-0.976c-0.412,0-0.704,0.331-0.944,0.703l-0.112-0.008
		l-0.146-0.554l0.025-0.033c0.215-0.174,0.61-0.48,1.263-0.48c0.653,0,1.418,0.224,1.418,1.34c0,0.091-0.024,1.009-0.024,1.249
		c0,0.368,0.056,0.568,0.144,0.645c0.053,0.046,0.167,0.062,0.252,0.062c0.065,0,0.138-0.012,0.231-0.043l0.063,0.204
		c-0.202,0.207-0.467,0.256-0.684,0.256c-0.314,0-0.571-0.156-0.669-0.479H109.872z M109.176,15.137
		c-0.67,0.173-0.851,0.455-0.851,0.827c0,0.256,0.25,0.505,0.636,0.505c0.258,0,0.55-0.149,0.791-0.323
		c0.068-0.05,0.12-0.107,0.12-0.215l0.034-0.984L109.176,15.137z"/>
	<path d="M114.693,16.345l0.017,0.024c-0.009,0.066-0.017,0.141-0.017,0.215c0,0.074,0.008,0.116,0.017,0.223l-0.017,0.025
		c-0.129-0.017-0.31-0.025-0.481-0.025h-1.941c-0.245,0-0.696,0.025-0.696,0.025l-0.025-0.037c0.068-0.076,0.12-0.153,0.188-0.252
		l2.02-2.909c-0.984,0.013-1.959,0.088-1.959,0.088l-0.018-0.024c0.009-0.066,0.018-0.141,0.018-0.215
		c0-0.074-0.009-0.116-0.018-0.223l0.018-0.025c0.129,0.017,0.31,0.025,0.481,0.025h1.752c0.249,0,0.65-0.052,0.693-0.052
		c0.034,0,0.046,0.019,0.046,0.052c-0.052,0.058-0.112,0.137-0.258,0.347l-1.968,2.829C113.589,16.43,114.693,16.345,114.693,16.345
		z"/>
	<path d="M117.581,16.411c-0.455,0.372-0.696,0.479-1.169,0.479c-0.635,0-1.073-0.281-1.073-0.893c0-0.562,0.55-1.009,1.426-1.199
		l0.799-0.174c0.026-0.008,0.061-0.041,0.061-0.099c0-0.935-0.516-0.976-0.825-0.976c-0.412,0-0.704,0.331-0.944,0.703l-0.112-0.008
		l-0.146-0.554l0.025-0.033c0.215-0.174,0.61-0.48,1.263-0.48c0.653,0,1.418,0.224,1.418,1.34c0,0.091-0.024,1.009-0.024,1.249
		c0,0.368,0.056,0.568,0.144,0.645c0.053,0.046,0.167,0.062,0.252,0.062c0.065,0,0.138-0.012,0.231-0.043l0.063,0.204
		c-0.202,0.207-0.467,0.256-0.684,0.256c-0.314,0-0.571-0.156-0.669-0.479H117.581z M116.885,15.137
		c-0.67,0.173-0.851,0.455-0.851,0.827c0,0.256,0.25,0.505,0.636,0.505c0.258,0,0.55-0.149,0.791-0.323
		c0.068-0.05,0.12-0.107,0.12-0.215l0.034-0.984L116.885,15.137z"/>
	<path d="M121.079,16.89c-0.928,0-1.555-0.827-1.555-1.844c0-1.125,0.822-1.869,1.941-1.869c0.172,0,0.523,0.075,0.722,0.182v-0.538
		c0-0.628-0.012-1.243-0.078-1.596l0.018-0.025c0.348-0.024,0.532-0.083,0.747-0.165c0.055,0,0.078,0.024,0.078,0.083
		c-0.043,0.51-0.078,0.943-0.078,1.555v2.547c0,0.62,0.078,1.232,0.146,1.588l-0.018,0.025c-0.111-0.017-0.273-0.025-0.382-0.025
		c-0.125,0-0.183,0.011-0.297,0.025c-0.051,0-0.077-0.008-0.077-0.025l-0.043-0.479h-0.017
		C121.878,16.712,121.491,16.89,121.079,16.89z M122.188,13.987c-0.206-0.314-0.413-0.479-0.816-0.479c-0.416,0-1.1,0.231-1.1,1.472
		c0,1.034,0.396,1.48,0.859,1.48c0.348,0,0.743-0.203,1.057-0.587V13.987z"/>
	<path d="M125.822,13.177c1.16,0,1.787,0.736,1.787,1.861c0,1.083-0.688,1.853-1.821,1.853c-1.143,0-1.821-0.786-1.821-1.778
		C123.967,13.938,124.697,13.177,125.822,13.177z M124.723,14.972c0,0.637,0.232,1.588,1.143,1.588c0.576,0,0.988-0.586,0.988-1.373
		c0-1-0.181-1.679-1.091-1.679C124.955,13.508,124.723,14.252,124.723,14.972z"/>
</g>
<g>
	<path d="M152.37,5.347l0.017-0.025c0.104,0.017,0.336,0.025,0.438,0.025c0.258,0,0.979-0.058,1.203-0.058
		c1.589,0,1.993,0.843,1.993,1.456c0,0.703-0.542,1.654-2.105,1.654c-0.301,0-0.532-0.025-0.722-0.083v0.711
		c0,0.621,0.018,1.183,0.086,1.654l-0.017,0.025c-0.104-0.017-0.335-0.025-0.438-0.025c-0.103,0-0.335,0.008-0.438,0.025
		l-0.017-0.025c0.068-0.447,0.086-1.034,0.086-1.654V7.001C152.456,6.381,152.438,5.819,152.37,5.347z M153.194,7.961
		c0.112,0.058,0.464,0.083,0.679,0.083c0.834,0,1.314-0.306,1.314-1.257c0-0.984-0.627-1.141-1.22-1.141
		c-0.618,0-0.773,0.124-0.773,0.364V7.961z"/>
	<path d="M157.826,7.936c0.379-0.628,0.628-0.885,1.092-0.885c0.154,0,0.163,0.017,0.309,0.058l0.035,0.033l-0.172,0.612
		l-0.069,0.017c-0.111-0.099-0.274-0.116-0.446-0.116c-0.163,0-0.356,0.105-0.481,0.29c-0.185,0.273-0.292,0.471-0.292,0.818v0.43
		c0,0.628,0.013,1.018,0.077,1.489l-0.017,0.025c-0.104-0.017-0.301-0.025-0.404-0.025c-0.103,0-0.301,0.008-0.403,0.025
		l-0.018-0.025c0.067-0.445,0.077-0.868,0.077-1.489V8.738c0-0.621-0.017-1.247-0.077-1.604l0.018-0.025
		c0.194,0.019,0.502,0.012,0.695-0.025c0.041,0,0.052,0.019,0.052,0.083v0.752L157.826,7.936z"/>
	<path d="M162.888,10.028c-0.326,0.43-0.876,0.736-1.494,0.736c-0.579,0-1.07-0.204-1.366-0.545
		c-0.288-0.333-0.387-0.797-0.387-1.266c0-1.216,0.876-1.902,1.761-1.902c1.135,0,1.486,0.869,1.486,1.563
		c0,0.091-0.06,0.141-0.154,0.141h-2.337c0,0.48,0.056,0.818,0.206,1.05c0.236,0.364,0.643,0.471,0.937,0.471
		c0.473,0,0.876-0.141,1.177-0.455L162.888,10.028z M162.003,8.424c0.086,0,0.12-0.042,0.12-0.116c0-0.62-0.382-0.926-0.722-0.926
		c-0.271,0-0.833,0.182-0.979,1.042H162.003z"/>
	<path d="M165.483,7.051c1.16,0,1.787,0.736,1.787,1.861c0,1.083-0.688,1.853-1.821,1.853c-1.143,0-1.821-0.786-1.821-1.778
		C163.628,7.812,164.358,7.051,165.483,7.051z M164.384,8.846c0,0.637,0.232,1.588,1.143,1.588c0.576,0,0.988-0.586,0.988-1.373
		c0-1-0.181-1.679-1.091-1.679C164.616,7.382,164.384,8.126,164.384,8.846z"/>
	<path d="M168.741,8.837c0,0.968,0.49,1.513,1.117,1.513c0.319,0,0.593-0.066,0.919-0.347h0.034l0.164,0.174
		c-0.344,0.422-0.748,0.587-1.264,0.587c-1.048,0-1.727-0.735-1.727-1.885c0-1.125,0.937-1.828,1.83-1.828
		c0.43,0,0.876,0.1,1.143,0.232l0.018,0.025l-0.198,0.678l-0.111,0.008c-0.228-0.376-0.528-0.612-0.859-0.612
		C169.24,7.382,168.741,7.928,168.741,8.837z"/>
	<path d="M173.185,10.764c-0.851,0-1.126-0.579-1.126-1.149V8.623c0-0.629-0.009-1.018-0.077-1.489l0.018-0.025
		c0.103,0.017,0.3,0.025,0.403,0.025s0.301-0.008,0.403-0.025l0.018,0.025c-0.068,0.438-0.077,0.868-0.077,1.489v0.818
		c0,0.77,0.279,0.86,0.575,0.86c0.421,0,0.915-0.442,1.177-0.869v-0.81c0-0.629-0.01-1.016-0.077-1.489l0.018-0.025
		c0.103,0.017,0.301,0.025,0.403,0.025c0.104,0,0.301-0.008,0.404-0.025l0.017,0.025c-0.068,0.438-0.077,0.868-0.077,1.489v0.471
		c0,0.62,0.077,1.232,0.146,1.588l-0.018,0.025c-0.111-0.017-0.273-0.025-0.382-0.025c-0.125,0-0.226,0.011-0.34,0.025
		c-0.023,0-0.034-0.008-0.034-0.025l-0.043-0.736l-0.034-0.025C174.198,10.343,173.717,10.764,173.185,10.764z"/>
	<path d="M177.37,7.795c0.395-0.579,0.824-0.745,1.159-0.745c0.963,0,1.495,0.844,1.495,1.72c0,1.166-0.688,1.993-1.821,1.993
		c-0.31,0-0.627-0.066-0.851-0.182v0.364c0,0.622,0.016,1.183,0.077,1.654l-0.017,0.024c-0.104-0.017-0.301-0.024-0.404-0.024
		c-0.103,0-0.301,0.008-0.403,0.024l-0.018-0.024c0.062-0.445,0.077-1.038,0.077-1.654V8.738c0-0.621-0.017-1.247-0.077-1.604
		l0.018-0.025c0.194,0.019,0.502,0.012,0.695-0.025c0.041,0,0.052,0.019,0.052,0.083v0.604L177.37,7.795z M177.353,10.062
		c0.301,0.339,0.661,0.372,0.799,0.372c0.919,0,1.117-0.877,1.117-1.555c0-0.935-0.301-1.447-0.885-1.447
		c-0.335,0-0.842,0.38-1.031,0.818V10.062z"/>
	<path d="M183.084,10.285c-0.455,0.372-0.696,0.479-1.169,0.479c-0.636,0-1.073-0.281-1.073-0.893c0-0.562,0.55-1.009,1.426-1.199
		l0.799-0.174c0.026-0.008,0.061-0.041,0.061-0.099c0-0.935-0.516-0.976-0.825-0.976c-0.412,0-0.704,0.331-0.944,0.703l-0.112-0.008
		L181.1,7.564l0.025-0.033c0.215-0.174,0.61-0.48,1.263-0.48c0.653,0,1.418,0.224,1.418,1.34c0,0.091-0.024,1.009-0.024,1.249
		c0,0.368,0.056,0.568,0.144,0.645c0.053,0.046,0.167,0.062,0.252,0.062c0.065,0,0.138-0.012,0.231-0.043l0.063,0.204
		c-0.202,0.207-0.467,0.256-0.684,0.256c-0.314,0-0.571-0.156-0.669-0.479H183.084z M182.388,9.011
		c-0.67,0.173-0.851,0.455-0.851,0.827c0,0.256,0.25,0.505,0.636,0.505c0.258,0,0.55-0.149,0.791-0.323
		c0.068-0.05,0.12-0.107,0.12-0.215l0.034-0.984L182.388,9.011z"/>
	<path d="M185.671,8.837c0,0.968,0.49,1.513,1.117,1.513c0.319,0,0.593-0.066,0.919-0.347h0.034l0.164,0.174
		c-0.344,0.422-0.748,0.587-1.264,0.587c-1.048,0-1.727-0.735-1.727-1.885c0-1.125,0.937-1.828,1.83-1.828
		c0.43,0,0.876,0.1,1.143,0.232l0.018,0.025l-0.198,0.678l-0.111,0.008c-0.228-0.376-0.528-0.612-0.859-0.612
		C186.17,7.382,185.671,7.928,185.671,8.837z"/>
	<path d="M189.401,5.322c0.232,0,0.438,0.199,0.438,0.422c0,0.224-0.206,0.422-0.438,0.422c-0.231,0-0.438-0.198-0.438-0.422
		C188.964,5.521,189.17,5.322,189.401,5.322z M188.973,7.134l0.017-0.025c0.183,0.014,0.553,0.011,0.747-0.008
		c0.067,0,0.078,0.008,0.078,0.083c-0.057,0.505-0.078,0.802-0.078,1.423v0.587c0,0.628,0.016,1.019,0.078,1.489l-0.018,0.025
		c-0.104-0.017-0.301-0.025-0.403-0.025c-0.104,0-0.301,0.008-0.404,0.025l-0.017-0.025c0.062-0.447,0.077-0.868,0.077-1.489V8.738
		C189.05,8.118,189.026,7.488,188.973,7.134z"/>
	<path d="M192.692,7.051c1.16,0,1.787,0.736,1.787,1.861c0,1.083-0.688,1.853-1.821,1.853c-1.143,0-1.821-0.786-1.821-1.778
		C190.837,7.812,191.567,7.051,192.692,7.051z M191.593,8.846c0,0.637,0.232,1.588,1.143,1.588c0.576,0,0.988-0.586,0.988-1.373
		c0-1-0.181-1.679-1.091-1.679C191.825,7.382,191.593,8.126,191.593,8.846z M193.036,5.116c0.056,0,0.275,0.008,0.473,0.19
		l0.026,0.091l-0.988,0.901c-0.129,0.124-0.197,0.157-0.258,0.157s-0.12-0.05-0.12-0.107c0-0.093,0.028-0.126,0.098-0.232
		l0.649-0.984C192.942,5.124,192.993,5.116,193.036,5.116z"/>
	<path d="M198.837,10.682l-0.018,0.025c-0.103-0.017-0.301-0.025-0.403-0.025c-0.104,0-0.301,0.008-0.404,0.025l-0.017-0.025
		c0.062-0.445,0.077-0.868,0.077-1.489V8.382c0-0.67-0.181-0.835-0.619-0.835c-0.309,0-0.807,0.182-1.245,0.678v0.967
		c0,0.628,0.009,1.018,0.077,1.489l-0.018,0.025c-0.103-0.017-0.3-0.025-0.403-0.025s-0.301,0.008-0.403,0.025l-0.018-0.025
		c0.068-0.447,0.077-0.868,0.077-1.489V8.738c0-0.621-0.017-1.247-0.077-1.604l0.018-0.025c0.194,0.019,0.502,0.012,0.695-0.025
		c0.04,0,0.05,0.019,0.052,0.083v0.604l0.017,0.025c0.55-0.621,1.16-0.745,1.486-0.745c0.773,0,1.065,0.447,1.065,1.307
		c0,0.265-0.017,0.57-0.017,0.835C198.76,9.821,198.77,10.21,198.837,10.682z"/>
	<path d="M165.514,14.411c0.404-0.414,0.911-0.745,1.443-0.745c0.481,0,0.834,0.256,0.911,0.654
		c0.489-0.497,0.987-0.654,1.452-0.654c0.928,0,1.064,0.579,1.064,1.315v0.827c0,0.629,0.009,1.018,0.077,1.489l-0.017,0.025
		c-0.104-0.017-0.301-0.025-0.404-0.025c-0.103,0-0.3,0.008-0.403,0.025l-0.018-0.025c0.069-0.447,0.078-0.868,0.078-1.489v-0.91
		c0-0.554-0.224-0.736-0.688-0.736c-0.335,0-0.679,0.058-1.091,0.496c0.008,0.099,0.008,0.198,0.008,0.314v0.835
		c0,0.629,0.009,1.018,0.078,1.489l-0.018,0.025c-0.104-0.017-0.301-0.025-0.403-0.025c-0.104,0-0.301,0.008-0.404,0.025
		l-0.018-0.025c0.069-0.447,0.078-0.868,0.078-1.489v-0.91c0-0.554-0.241-0.736-0.567-0.736c-0.301,0-0.781,0.248-1.186,0.645v1
		c0,0.629,0.009,1.018,0.077,1.489l-0.017,0.025c-0.104-0.017-0.301-0.025-0.404-0.025c-0.103,0-0.301,0.008-0.403,0.025
		l-0.018-0.025c0.069-0.447,0.077-0.868,0.077-1.489v-0.455c0-0.621-0.017-1.247-0.077-1.604l0.018-0.025
		c0.194,0.019,0.502,0.012,0.695-0.025c0.041,0,0.052,0.019,0.052,0.083v0.604L165.514,14.411z"/>
	<path d="M174.571,16.644c-0.326,0.43-0.876,0.736-1.494,0.736c-0.579,0-1.07-0.204-1.366-0.546
		c-0.288-0.332-0.387-0.796-0.387-1.265c0-1.216,0.876-1.902,1.761-1.902c1.135,0,1.486,0.869,1.486,1.563
		c0,0.091-0.06,0.141-0.154,0.141h-2.337c0,0.48,0.056,0.818,0.206,1.05c0.236,0.364,0.643,0.471,0.937,0.471
		c0.473,0,0.876-0.141,1.177-0.455L174.571,16.644z M173.687,15.04c0.086,0,0.12-0.042,0.12-0.116c0-0.62-0.382-0.926-0.722-0.926
		c-0.271,0-0.833,0.182-0.979,1.042H173.687z"/>
	<path d="M178.954,17.297l-0.018,0.025c-0.103-0.017-0.301-0.025-0.403-0.025c-0.104,0-0.301,0.008-0.404,0.025l-0.017-0.025
		c0.062-0.445,0.077-0.868,0.077-1.489v-0.811c0-0.67-0.181-0.835-0.619-0.835c-0.309,0-0.807,0.182-1.245,0.678v0.967
		c0,0.629,0.009,1.018,0.077,1.489l-0.018,0.025c-0.103-0.017-0.3-0.025-0.403-0.025s-0.301,0.008-0.403,0.025l-0.018-0.025
		c0.068-0.447,0.077-0.868,0.077-1.489v-0.455c0-0.621-0.017-1.247-0.077-1.604l0.018-0.025c0.194,0.019,0.502,0.012,0.695-0.025
		c0.04,0,0.05,0.019,0.052,0.083v0.604l0.017,0.025c0.55-0.62,1.16-0.745,1.486-0.745c0.773,0,1.065,0.447,1.065,1.307
		c0,0.265-0.017,0.57-0.017,0.835C178.877,16.438,178.887,16.826,178.954,17.297z"/>
	<path d="M181.739,13.667c1.16,0,1.787,0.736,1.787,1.861c0,1.083-0.688,1.853-1.821,1.853c-1.143,0-1.821-0.786-1.821-1.778
		C179.884,14.428,180.614,13.667,181.739,13.667z M180.64,15.461c0,0.637,0.232,1.588,1.143,1.588c0.576,0,0.988-0.586,0.988-1.373
		c0-1-0.181-1.679-1.091-1.679C180.872,13.998,180.64,14.742,180.64,15.461z"/>
	<path d="M185.314,14.552c0.379-0.629,0.628-0.885,1.092-0.885c0.154,0,0.163,0.017,0.309,0.058l0.035,0.033l-0.172,0.612
		l-0.069,0.017c-0.111-0.099-0.274-0.116-0.446-0.116c-0.163,0-0.356,0.105-0.481,0.29c-0.185,0.273-0.292,0.471-0.292,0.819v0.43
		c0,0.629,0.013,1.018,0.077,1.489l-0.017,0.025c-0.104-0.017-0.301-0.025-0.404-0.025c-0.103,0-0.301,0.008-0.403,0.025
		l-0.018-0.025c0.067-0.445,0.077-0.868,0.077-1.489v-0.455c0-0.621-0.017-1.247-0.077-1.604l0.018-0.025
		c0.194,0.019,0.502,0.012,0.695-0.025c0.041,0,0.052,0.019,0.052,0.083v0.752L185.314,14.552z"/>
</g>
<g>
	<path d="M1.488,17.024c1.151,0,2.422-0.1,2.422-0.1l0.017,0.033c-0.008,0.066-0.017,0.19-0.017,0.273s0.009,0.141,0.017,0.256
		l-0.017,0.025c-0.137-0.017-0.335-0.025-0.516-0.025H1.05c-0.301,0-0.447,0.025-0.447,0.025l-0.008-0.025
		c0.069-0.447,0.086-1.034,0.086-1.654v-2.026c0-0.621-0.017-1.183-0.086-1.654l0.017-0.025c0,0,0.146,0.025,0.438,0.025h2.259
		c0.181,0,0.378-0.008,0.516-0.025l0.017,0.025c-0.008,0.116-0.017,0.248-0.017,0.314c0,0.074,0.009,0.149,0.017,0.215l-0.017,0.033
		c0,0-1.186-0.099-2.336-0.099c-0.061,0.198-0.069,1.05-0.069,1.191v0.645c1.014,0,1.409-0.042,1.916-0.083l0.026,0.024
		c-0.017,0.075-0.026,0.19-0.026,0.265c0,0.075,0.009,0.19,0.026,0.265l-0.026,0.025c-0.593-0.058-1.503-0.083-1.916-0.083v0.967
		C1.419,15.974,1.428,16.826,1.488,17.024z"/>
	<path d="M4.617,13.915c0.138,0.018,0.361,0.025,0.499,0.025c0.146,0,0.315-0.007,0.464-0.025c0.289,0.46,0.524,0.9,0.868,1.352
		c0.363-0.452,0.632-0.891,0.961-1.352c0.09,0.018,0.224,0.025,0.318,0.025c0.086,0,0.277-0.007,0.387-0.025l-1.41,1.668
		c0.463,0.646,0.881,1.284,1.401,1.93c-0.133-0.014-0.361-0.025-0.49-0.025c-0.137,0-0.313,0.007-0.438,0.025
		c-0.312-0.474-0.567-0.926-0.911-1.39c-0.343,0.464-0.6,0.916-0.928,1.39c-0.088-0.015-0.292-0.025-0.378-0.025
		s-0.225,0.01-0.309,0.025l1.344-1.735L4.617,13.915z"/>
	<path d="M9.171,12.881l0.017-0.025c0.279-0.037,0.386-0.124,0.602-0.207c0.054,0,0.077,0.022,0.077,0.083
		c-0.039,0.479-0.043,0.589-0.043,1.208h0.404c0.197,0,0.447-0.011,0.601-0.017l0.043,0.058c-0.051,0.122-0.077,0.207-0.103,0.339
		c-0.114-0.011-0.412-0.017-0.619-0.017H9.824v1.042c0,0.496-0.026,0.852-0.026,1.1c0,0.447,0.08,0.646,0.284,0.678
		c0.215,0.033,0.412,0.025,0.676-0.064l0.106,0.205c-0.361,0.223-0.636,0.306-0.997,0.306c-0.395,0-0.756-0.256-0.756-0.794
		c0-0.248,0.025-0.843,0.025-1.339v-1.133c-0.196,0.001-0.462,0.006-0.61,0.017l-0.043-0.058c0.083-0.124,0.131-0.204,0.189-0.339
		c0.106,0.013,0.288,0.016,0.464,0.017C9.137,13.459,9.154,13.168,9.171,12.881z"/>
	<path d="M12.369,12.128c0.232,0,0.438,0.199,0.438,0.422c0,0.224-0.206,0.422-0.438,0.422s-0.438-0.198-0.438-0.422
		C11.931,12.327,12.137,12.128,12.369,12.128z M11.939,13.939l0.017-0.025c0.182,0.014,0.553,0.011,0.748-0.008
		c0.067,0,0.077,0.008,0.077,0.083c-0.056,0.505-0.077,0.802-0.077,1.423v0.587c0,0.628,0.016,1.019,0.077,1.489l-0.017,0.025
		c-0.103-0.017-0.301-0.025-0.404-0.025s-0.301,0.008-0.404,0.025l-0.017-0.025c0.062-0.447,0.077-0.868,0.077-1.489v-0.455
		C12.016,14.923,11.993,14.293,11.939,13.939z"/>
	<path d="M17.506,17.487l-0.017,0.025c-0.103-0.017-0.301-0.025-0.404-0.025s-0.3,0.008-0.404,0.025l-0.017-0.025
		c0.062-0.445,0.078-0.868,0.078-1.489v-0.811c0-0.67-0.181-0.835-0.619-0.835c-0.309,0-0.808,0.182-1.246,0.678v0.967
		c0,0.628,0.008,1.018,0.077,1.489l-0.017,0.025c-0.103-0.017-0.301-0.025-0.404-0.025s-0.301,0.008-0.404,0.025l-0.017-0.025
		c0.069-0.447,0.077-0.868,0.077-1.489v-0.455c0-0.621-0.017-1.247-0.077-1.604l0.017-0.025c0.195,0.019,0.502,0.012,0.696-0.025
		c0.041,0,0.05,0.019,0.052,0.083v0.604l0.017,0.025c0.55-0.621,1.16-0.745,1.486-0.745c0.773,0,1.065,0.447,1.065,1.307
		c0,0.265-0.017,0.57-0.017,0.835C17.429,16.627,17.439,17.016,17.506,17.487z"/>
	<path d="M18.96,12.881l0.017-0.025c0.279-0.037,0.386-0.124,0.602-0.207c0.054,0,0.077,0.022,0.077,0.083
		c-0.039,0.479-0.043,0.589-0.043,1.208h0.404c0.197,0,0.447-0.011,0.601-0.017l0.043,0.058c-0.051,0.122-0.077,0.207-0.103,0.339
		c-0.114-0.011-0.412-0.017-0.619-0.017h-0.326v1.042c0,0.496-0.026,0.852-0.026,1.1c0,0.447,0.08,0.646,0.284,0.678
		c0.215,0.033,0.412,0.025,0.676-0.064l0.106,0.205c-0.361,0.223-0.636,0.306-0.997,0.306c-0.395,0-0.756-0.256-0.756-0.794
		c0-0.248,0.025-0.843,0.025-1.339v-1.133c-0.196,0.001-0.462,0.006-0.61,0.017l-0.043-0.058c0.083-0.124,0.131-0.204,0.189-0.339
		c0.107,0.013,0.288,0.016,0.464,0.017C18.925,13.459,18.943,13.168,18.96,12.881z"/>
	<path d="M23.214,13.856c1.16,0,1.787,0.736,1.787,1.861c0,1.083-0.687,1.853-1.821,1.853c-1.143,0-1.821-0.786-1.821-1.778
		C21.358,14.618,22.088,13.856,23.214,13.856z M22.114,15.651c0,0.637,0.232,1.588,1.143,1.588c0.576,0,0.988-0.586,0.988-1.373
		c0-1-0.18-1.679-1.091-1.679C22.346,14.188,22.114,14.932,22.114,15.651z"/>
</g>
<line fill="none" stroke="#000000" stroke-linecap="round" stroke-linejoin="round" stroke-miterlimit="10" x1="11.5" y1="20" x2="11.5" y2="25"/>
<line fill="none" stroke="#000000" stroke-linecap="round" stroke-linejoin="round" stroke-miterlimit="10" x1="175.5" y1="20" x2="175.5" y2="25"/>
</svg>
